<?xml version="1.0" encoding="UTF-8" standalone="no"?>
<!DOCTYPE svg PUBLIC "-//W3C//DTD SVG 1.1//EN" "http://www.w3.org/Graphics/SVG/1.1/DTD/svg11.dtd">
<svg xmlns="http://www.w3.org/2000/svg" version="1.1" viewBox="0.00 0.00 500.00 500.00">
<g stroke-width="2.00" fill="none" stroke-linecap="butt">
<path stroke="#71cff5" vector-effect="non-scaling-stroke" d="
  M 317.68 97.18
  Q 314.72 99.52 311.58 98.52
  A 0.65 0.64 -77.1 0 0 310.75 99.05
  L 310.70 99.47
  Q 310.64 99.91 311.07 100.03
  Q 311.83 100.24 311.76 100.89
  Q 311.70 101.41 312.22 101.54
  Q 313.86 101.95 314.09 102.92"
/>
<path stroke="#71cff5" vector-effect="non-scaling-stroke" d="
  M 302.55 98.51
  L 302.44 97.83
  Q 302.35 97.26 301.79 97.13
  L 298.26 96.31
  Q 297.73 96.19 298.13 96.56
  Q 300.08 98.39 302.52 99.01"
/>
<path stroke="#71cff5" vector-effect="non-scaling-stroke" d="
  M 309.03 102.56
  Q 308.33 104.98 306.03 105.44
  A 2.14 2.07 -67.8 0 0 305.17 105.82
  C 302.90 107.53 300.24 107.43 299.01 110.17"
/>
<path stroke="#71cff5" vector-effect="non-scaling-stroke" d="
  M 196.65 116.15
  Q 194.91 113.07 191.43 111.50
  A 0.74 0.73 14.1 0 1 191.00 110.79
  C 191.03 110.36 188.75 108.57 188.35 107.70"
/>
<path stroke="#5dc2ec" vector-effect="non-scaling-stroke" d="
  M 200.38 98.53
  L 197.91 93.24"
/>
<path stroke="#b9e9fa" vector-effect="non-scaling-stroke" d="
  M 377.88 143.46
  C 373.68 144.66 372.10 142.47 368.62 141.92
  C 365.07 141.35 358.92 139.78 355.52 140.39
  Q 352.74 140.89 353.04 143.35"
/>
<path stroke="#b9e9fa" vector-effect="non-scaling-stroke" d="
  M 348.60 142.02
  L 329.25 140.28"
/>
<path stroke="#c6edfb" vector-effect="non-scaling-stroke" d="
  M 179.17 134.70
  Q 178.25 134.32 177.62 136.80"
/>
<path stroke="#b9e9fa" vector-effect="non-scaling-stroke" d="
  M 177.62 136.80
  C 172.31 135.00 166.82 136.79 162.56 132.37
  Q 162.54 132.35 162.51 132.38
  Q 162.43 132.49 162.29 132.58
  Q 161.98 132.78 161.85 132.44
  L 161.64 131.89"
/>
<path stroke="#88d1ef" vector-effect="non-scaling-stroke" d="
  M 181.04 108.80
  L 175.42 101.91"
/>
<path stroke="#e3f8fc" vector-effect="non-scaling-stroke" d="
  M 177.62 136.80
  Q 173.49 143.84 171.14 152.42
  A 0.87 0.87 0.0 0 0 172.04 153.51
  L 172.59 153.47
  A 0.67 0.66 8.1 0 0 173.14 153.06
  L 176.99 143.61"
/>
<path stroke="#90c49a" vector-effect="non-scaling-stroke" d="
  M 384.37 151.31
  C 372.11 154.11 359.26 155.62 347.04 157.00"
/>
<path stroke="#e3f8fc" vector-effect="non-scaling-stroke" d="
  M 347.04 157.00
  Q 345.49 156.48 343.98 156.00
  C 340.68 154.97 337.05 156.01 333.73 157.14
  Q 328.18 159.01 321.52 158.58
  Q 321.29 158.57 321.24 158.74
  Q 321.18 158.97 320.94 158.96
  C 306.64 158.60 298.70 158.53 287.08 159.95
  C 268.33 162.25 248.10 161.45 229.19 161.21
  C 226.31 161.18 222.84 162.39 219.22 161.27
  Q 218.77 161.13 218.76 160.67
  C 218.76 160.48 211.30 160.32 210.46 160.17
  C 208.39 159.82 206.31 160.03 204.23 159.60
  C 199.66 158.67 195.15 159.72 190.89 158.31
  C 185.76 156.62 180.92 154.16 175.56 157.59"
/>
<path stroke="#a4d899" vector-effect="non-scaling-stroke" d="
  M 175.56 157.59
  L 168.25 156.29"
/>
<path stroke="#8bbc9a" vector-effect="non-scaling-stroke" d="
  M 168.25 156.29
  Q 144.18 151.33 119.49 150.46"
/>
<path stroke="#90c49a" vector-effect="non-scaling-stroke" d="
  M 119.49 150.46
  Q 119.39 149.91 118.91 149.41"
/>
<path stroke="#b9e9fa" vector-effect="non-scaling-stroke" d="
  M 191.16 150.20
  Q 188.98 150.25 187.37 148.85
  Q 187.01 148.53 186.56 148.39
  L 181.11 146.70
  A 0.05 0.05 0.0 0 1 181.08 146.63
  Q 181.17 146.51 181.21 146.32
  A 0.36 0.35 20.7 0 0 181.03 145.94
  L 176.99 143.61"
/>
<path stroke="#c6edfb" vector-effect="non-scaling-stroke" d="
  M 176.99 143.61
  L 180.63 136.54"
/>
<path stroke="#88d1ef" vector-effect="non-scaling-stroke" d="
  M 307.62 120.37
  L 303.65 122.26
  Q 303.53 122.32 303.61 122.43
  Q 303.70 122.53 303.97 122.50
  Q 304.08 122.48 303.98 122.52
  Q 298.86 124.71 293.38 124.10
  A 2.15 2.15 0.0 0 1 292.41 123.74
  L 289.99 122.05
  A 0.62 0.62 0.0 0 0 289.06 122.33
  Q 288.92 122.69 288.93 123.06"
/>
<path stroke="#88d1ef" vector-effect="non-scaling-stroke" d="
  M 211.31 126.41
  C 210.51 126.18 210.49 126.35 210.78 125.56
  Q 210.88 125.27 210.63 125.10
  L 199.99 117.87"
/>
<path stroke="#b9e9fa" vector-effect="non-scaling-stroke" d="
  M 325.89 141.98
  Q 322.60 141.12 320.39 141.76
  A 1.81 1.81 0.0 0 1 319.37 141.76
  Q 316.27 140.86 313.07 141.00
  Q 312.78 141.01 312.57 141.22
  L 312.33 141.46
  A 0.81 0.81 0.0 0 1 311.59 141.68
  Q 310.17 141.38 310.15 142.54"
/>
<path stroke="#c6edfb" vector-effect="non-scaling-stroke" d="
  M 301.71 135.47
  C 303.16 132.62 296.16 128.33 294.13 127.01
  Q 293.71 126.73 293.27 126.99
  L 292.77 127.29"
/>
<path stroke="#b9e9fa" vector-effect="non-scaling-stroke" d="
  M 153.77 137.40
  L 150.16 135.52
  Q 149.70 135.28 149.18 135.35
  Q 140.76 136.44 133.49 132.90"
/>
<path stroke="#c6edfb" vector-effect="non-scaling-stroke" d="
  M 291.35 128.60
  L 300.14 135.77
  A 0.74 0.73 56.0 0 0 300.83 135.91
  Q 301.69 135.66 301.26 135.93"
/>
<path stroke="#b9e9fa" vector-effect="non-scaling-stroke" d="
  M 308.87 146.79
  Q 303.45 146.57 298.62 146.99
  C 294.88 147.31 291.48 147.33 287.91 147.61
  C 283.06 147.99 277.17 147.48 272.20 148.47
  Q 270.16 148.88 268.49 148.80
  C 262.07 148.50 255.68 148.87 249.24 148.53
  C 238.42 147.95 230.14 148.02 220.52 147.98
  Q 220.11 147.98 219.73 147.86
  L 218.90 147.60
  Q 218.88 147.59 218.86 147.60
  Q 218.72 147.67 218.72 147.82
  Q 218.71 148.03 218.50 148.05
  C 215.76 148.31 213.38 147.17 210.88 147.15
  Q 204.14 147.10 197.83 144.68"
/>
<path stroke="#61a35e" vector-effect="non-scaling-stroke" d="
  M 198.72 172.05
  L 198.62 172.48
  Q 198.51 172.95 198.89 173.25
  Q 206.24 179.09 212.45 186.36"
/>
<path stroke="#599f38" vector-effect="non-scaling-stroke" d="
  M 168.25 156.29
  Q 167.90 157.59 168.94 157.84
  Q 169.44 157.96 169.71 158.41
  C 170.69 160.06 171.79 161.56 172.58 163.30
  Q 178.72 176.82 187.05 189.16
  A 1.71 1.64 83.0 0 0 187.81 189.78
  Q 190.13 190.76 189.45 192.57"
/>
<path stroke="#458b39" vector-effect="non-scaling-stroke" d="
  M 119.49 150.46
  Q 118.29 151.14 118.03 152.23
  Q 117.90 152.75 118.26 153.15
  Q 128.47 164.38 132.93 172.32
  Q 141.49 187.56 151.08 202.90"
/>
<path stroke="#2f8c7c" vector-effect="non-scaling-stroke" d="
  M 413.68 214.29
  Q 411.38 214.47 410.28 215.26"
/>
<path stroke="#75af33" vector-effect="non-scaling-stroke" d="
  M 316.09 190.74
  C 326.59 180.41 332.54 168.12 343.30 159.80
  Q 344.10 159.19 343.51 158.59"
/>
<path stroke="#9dc89b" vector-effect="non-scaling-stroke" d="
  M 343.51 158.59
  L 347.04 157.00"
/>
<path stroke="#c8e395" vector-effect="non-scaling-stroke" d="
  M 343.51 158.59
  Q 330.26 161.58 319.40 169.39"
/>
<path stroke="#9bdef7" vector-effect="non-scaling-stroke" d="
  M 311.43 171.81
  L 294.17 174.48"
/>
<path stroke="#a0c3c1" vector-effect="non-scaling-stroke" d="
  M 210.91 173.29
  Q 206.51 173.10 201.60 171.62"
/>
<path stroke="#b1dc9a" vector-effect="non-scaling-stroke" d="
  M 197.95 169.89
  Q 193.61 168.71 192.56 166.88"
/>
<path stroke="#b1dc9a" vector-effect="non-scaling-stroke" d="
  M 183.93 161.43
  Q 183.52 161.09 182.61 161.35
  Q 182.13 161.49 181.70 161.24
  L 175.56 157.59"
/>
<path stroke="#a0c3c1" vector-effect="non-scaling-stroke" d="
  M 226.92 183.26
  C 224.90 182.50 218.54 185.19 216.57 186.07"
/>
<path stroke="#73c58f" vector-effect="non-scaling-stroke" d="
  M 300.83 186.69
  L 314.31 174.44
  Q 314.68 174.10 315.16 173.96
  Q 315.44 173.88 315.71 173.73
  Q 316.13 173.50 316.09 173.02
  L 316.01 172.03"
/>
<path stroke="#1479ae" vector-effect="non-scaling-stroke" d="
  M 416.54 228.86
  C 412.41 229.90 409.82 224.61 406.28 228.28
  C 399.80 235.01 391.86 240.71 385.52 246.53
  C 379.77 251.83 373.85 256.56 368.17 262.19
  C 350.53 279.66 328.56 295.50 304.50 302.72"
/>
<path stroke="#44a4d2" vector-effect="non-scaling-stroke" d="
  M 278.03 301.99
  Q 284.79 296.80 289.54 294.77
  C 314.62 284.03 337.51 274.92 361.21 257.72
  Q 368.23 252.63 373.73 245.98
  A 0.45 0.45 0.0 0 0 373.42 245.24
  C 371.86 245.07 359.89 253.52 357.55 254.86
  C 347.30 260.78 335.42 264.80 323.99 268.87"
/>
<path stroke="#2594c9" vector-effect="non-scaling-stroke" d="
  M 323.99 268.87
  Q 324.00 264.88 322.02 265.44"
/>
<path stroke="#f2dc94" vector-effect="non-scaling-stroke" d="
  M 227.78 184.19
  Q 221.21 185.41 215.03 188.28"
/>
<path stroke="#54b3dd" vector-effect="non-scaling-stroke" d="
  M 269.72 299.91
  C 269.70 295.16 279.57 287.89 283.25 285.40
  Q 288.14 282.09 296.87 278.75
  Q 310.43 273.58 323.99 268.87"
/>
<path stroke="#7ab25d" vector-effect="non-scaling-stroke" d="
  M 417.18 235.82
  C 408.82 243.05 400.19 251.27 392.35 257.78
  Q 366.20 279.55 338.16 299.55"
/>
<path stroke="#ebd924" vector-effect="non-scaling-stroke" d="
  M 235.00 186.53
  L 213.39 198.29"
/>
<path stroke="#d89e29" vector-effect="non-scaling-stroke" d="
  M 213.39 198.29
  Q 213.00 198.33 212.96 198.50"
/>
<path stroke="#d89e29" vector-effect="non-scaling-stroke" d="
  M 117.44 249.49
  C 108.61 246.03 106.48 239.85 103.84 231.56"
/>
<path stroke="#99cd2b" vector-effect="non-scaling-stroke" d="
  M 417.49 238.95
  Q 411.79 245.26 405.01 251.51
  Q 400.31 255.84 392.26 261.76
  C 387.82 265.03 383.43 269.75 379.00 273.11
  Q 363.02 285.27 346.05 297.92"
/>
<path stroke="#cebb22" vector-effect="non-scaling-stroke" d="
  M 213.39 198.29
  L 213.67 198.56
  A 0.77 0.76 -36.3 0 0 214.55 198.69
  L 237.36 186.90"
/>
<path stroke="#aea529" vector-effect="non-scaling-stroke" d="
  M 274.49 183.75
  Q 275.41 186.33 276.44 185.48"
/>
<path stroke="#cac32c" vector-effect="non-scaling-stroke" d="
  M 276.44 185.48
  Q 276.27 186.31 274.95 186.29
  Q 274.54 186.28 274.56 186.69
  Q 274.64 188.51 273.19 189.75
  A 0.45 0.44 46.2 0 0 273.18 190.41
  Q 274.36 191.52 275.95 192.02"
/>
<path stroke="#89c332" vector-effect="non-scaling-stroke" d="
  M 275.95 192.02
  Q 273.07 191.85 270.19 191.56
  Q 269.75 191.07 268.75 191.95"
/>
<path stroke="#70a733" vector-effect="non-scaling-stroke" d="
  M 268.75 191.95
  Q 268.19 192.38 268.67 192.08"
/>
<path stroke="#89c332" vector-effect="non-scaling-stroke" d="
  M 282.46 233.85
  Q 280.86 235.41 278.14 236.18
  A 1.11 1.09 -85.7 0 0 277.44 236.79
  C 276.19 239.61 272.10 239.32 268.57 239.56
  Q 266.03 239.73 262.00 240.44
  Q 253.28 241.97 244.50 240.61"
/>
<path stroke="#aea529" vector-effect="non-scaling-stroke" d="
  M 245.10 189.00
  Q 243.97 187.35 241.08 185.66"
/>
<path stroke="#aad92a" vector-effect="non-scaling-stroke" d="
  M 285.50 201.92
  C 285.22 200.64 283.67 200.66 282.74 200.15
  Q 277.45 197.26 272.44 194.17
  A 0.42 0.42 0.0 0 0 271.91 194.81
  Q 273.41 196.49 275.68 197.34
  Q 280.20 199.02 283.62 202.49
  C 283.98 202.86 284.31 202.84 284.68 202.52"
/>
<path stroke="#599f38" vector-effect="non-scaling-stroke" d="
  M 270.41 194.93
  C 271.62 192.98 270.37 192.45 268.75 191.95"
/>
<path stroke="#979e2f" vector-effect="non-scaling-stroke" d="
  M 363.86 211.01
  Q 362.70 212.35 361.26 212.30"
/>
<path stroke="#d89e29" vector-effect="non-scaling-stroke" d="
  M 361.26 212.30
  Q 357.62 211.78 354.23 211.30
  C 348.85 210.55 343.84 208.44 338.50 207.11
  Q 333.71 205.92 329.74 204.37
  C 319.57 200.38 308.17 197.03 298.91 193.60
  Q 287.67 189.43 276.44 185.48"
/>
<path stroke="#b3bc31" vector-effect="non-scaling-stroke" d="
  M 361.26 212.30
  Q 354.24 213.10 347.73 211.53
  C 331.88 207.72 314.86 201.67 299.50 198.01
  Q 283.07 194.08 275.95 192.02"
/>
<path stroke="#d3901d" vector-effect="non-scaling-stroke" d="
  M 244.60 219.72
  Q 243.10 219.93 242.31 219.25
  A 1.71 1.67 -19.2 0 0 241.50 218.87
  Q 234.19 217.64 226.88 218.93
  A 0.40 0.40 0.0 0 1 226.44 218.39
  Q 226.62 217.93 227.06 217.82
  Q 227.55 217.70 226.98 217.27
  Q 226.61 216.99 226.71 216.49"
/>
<path stroke="#d3901d" vector-effect="non-scaling-stroke" d="
  M 215.92 222.74
  L 213.36 222.14
  Q 212.85 222.02 212.51 222.41
  Q 207.16 228.65 204.26 231.01
  C 192.29 240.78 181.69 250.36 168.96 261.02
  Q 158.18 270.04 148.23 279.98
  Q 145.64 282.57 137.62 288.55"
/>
<path stroke="#e6cb19" vector-effect="non-scaling-stroke" d="
  M 241.89 195.20
  C 242.88 196.53 238.76 198.65 238.28 200.81
  A 0.50 0.49 -13.2 0 0 239.08 201.30
  C 240.38 200.26 241.42 198.40 242.42 197.39
  C 244.83 194.97 248.93 191.18 250.13 188.03"
/>
<path stroke="#ca841b" vector-effect="non-scaling-stroke" d="
  M 87.37 259.73
  L 89.14 260.36
  Q 89.62 260.53 89.77 261.00
  C 91.66 266.80 93.76 275.92 97.65 280.54
  Q 103.82 287.88 110.18 294.95
  A 0.51 0.51 0.0 0 0 111.01 294.36
  C 107.24 287.66 103.08 280.44 100.81 273.50
  Q 94.59 254.51 98.54 234.51
  Q 98.60 234.20 98.15 233.80"
/>
<path stroke="#44a4d2" vector-effect="non-scaling-stroke" d="
  M 211.71 376.38
  L 211.75 375.61
  Q 211.78 375.17 212.21 375.07
  C 218.34 373.74 223.87 371.19 230.25 371.21
  Q 259.10 371.32 287.94 371.36
  C 306.46 371.38 328.30 366.80 343.99 356.49"
/>
<path stroke="#2594c9" vector-effect="non-scaling-stroke" d="
  M 343.99 356.49
  C 351.17 351.93 374.06 337.26 371.81 326.78
  C 369.80 317.39 352.39 315.47 344.77 315.50
  A 0.34 0.34 0.0 0 0 344.66 316.16
  Q 350.92 318.31 357.21 320.59
  C 367.25 324.21 366.98 335.36 357.75 339.57
  Q 345.17 345.31 337.31 350.33"
/>
<path stroke="#44a4d2" vector-effect="non-scaling-stroke" d="
  M 337.31 350.33
  Q 317.77 363.28 292.52 364.49
  C 265.78 365.78 243.28 365.37 223.74 366.27
  Q 214.16 366.71 205.18 372.71"
/>
<path stroke="#54b3dd" vector-effect="non-scaling-stroke" d="
  M 343.99 356.49
  Q 341.31 352.27 337.31 350.33"
/>
<path stroke="#44a4d2" vector-effect="non-scaling-stroke" d="
  M 154.16 356.00
  L 152.93 350.97
  A 1.36 1.32 52.8 0 1 153.04 350.06
  C 161.04 334.38 213.80 332.01 229.76 332.12"
/>
<path stroke="#2ea3d8" vector-effect="non-scaling-stroke" d="
  M 229.76 332.12
  C 253.99 332.13 278.16 333.10 302.36 331.23"
/>
<path stroke="#44a4d2" vector-effect="non-scaling-stroke" d="
  M 302.36 331.23
  L 314.29 329.76
  A 0.94 0.93 81.1 0 0 315.09 328.65
  C 313.93 322.75 308.50 320.68 303.23 320.12
  Q 279.67 317.62 256.33 320.72
  Q 243.94 322.37 239.63 322.66
  C 227.35 323.48 213.81 323.42 202.84 324.32
  Q 186.20 325.68 169.59 327.38
  C 165.05 327.85 159.97 327.80 155.17 328.18
  C 148.07 328.75 134.24 335.95 140.37 345.30
  Q 143.01 349.33 146.60 353.26"
/>
<path stroke="#5dc2ec" vector-effect="non-scaling-stroke" d="
  M 302.36 331.23
  Q 301.00 327.96 297.95 327.53
  Q 288.10 326.14 278.25 327.23
  C 264.51 328.75 250.92 329.27 237.09 328.73
  C 233.83 328.61 231.71 329.77 229.76 332.12"
/>
<path stroke="#1479ae" vector-effect="non-scaling-stroke" d="
  M 122.11 346.14
  Q 120.94 348.04 120.84 350.17
  A 1.28 1.28 0.0 0 0 121.14 351.07
  C 122.70 352.98 125.09 354.28 126.60 355.76
  Q 134.72 363.71 144.10 370.13
  C 170.73 388.35 198.95 401.42 231.49 404.28
  C 246.44 405.59 261.49 406.13 275.45 413.04
  Q 276.74 413.68 278.80 413.00"
/>
<path stroke="#c6edfb" vector-effect="non-scaling-stroke" d="
  M 253.69 131.61
  Q 252.38 130.85 251.54 129.47
  Q 251.25 129.00 250.72 128.87
  Q 248.09 128.24 246.50 130.70
  Q 246.14 131.25 246.80 131.25
  L 248.95 131.25
  Q 249.46 131.25 249.76 131.66
  L 251.92 134.62
  A 2.03 2.03 0.0 0 0 255.43 134.20
  Q 255.93 132.98 257.31 132.71
  A 1.13 1.13 0.0 0 1 258.39 133.08
  L 260.36 135.33
  A 0.41 0.40 -49.3 0 0 261.00 135.28
  Q 263.63 131.33 268.07 129.61
  A 0.73 0.73 0.0 0 0 267.88 128.20
  Q 264.52 127.84 260.12 131.00
  A 0.12 0.12 0.0 0 1 259.93 130.93
  Q 259.49 129.09 257.69 128.96
  A 0.97 0.97 0.0 0 0 256.92 129.24
  L 254.60 131.49
  Q 254.19 131.90 253.69 131.61"
/>
</g>
<ellipse fill="#f4bc2b" cx="0.00" cy="0.00" transform="translate(386.78,67.71) rotate(1.5)" rx="17.69" ry="17.25"/>
<path fill="#46c0f1" d="
  M 317.68 97.18
  Q 314.72 99.52 311.58 98.52
  A 0.65 0.64 -77.1 0 0 310.75 99.05
  L 310.70 99.47
  Q 310.64 99.91 311.07 100.03
  Q 311.83 100.24 311.76 100.89
  Q 311.70 101.41 312.22 101.54
  Q 313.86 101.95 314.09 102.92
  C 312.57 102.21 303.40 97.73 302.55 98.51
  L 302.44 97.83
  Q 302.35 97.26 301.79 97.13
  L 298.26 96.31
  Q 297.73 96.19 298.13 96.56
  Q 300.08 98.39 302.52 99.01
  L 309.03 102.56
  Q 308.33 104.98 306.03 105.44
  A 2.14 2.07 -67.8 0 0 305.17 105.82
  C 302.90 107.53 300.24 107.43 299.01 110.17
  Q 287.38 103.79 279.75 100.98
  C 266.77 96.19 250.92 95.65 236.46 98.60
  C 222.33 101.48 208.82 108.37 196.65 116.15
  Q 194.91 113.07 191.43 111.50
  A 0.74 0.73 14.1 0 1 191.00 110.79
  C 191.03 110.36 188.75 108.57 188.35 107.70
  Q 199.10 101.04 210.04 95.75
  A 0.33 0.32 -67.7 0 0 209.79 95.15
  L 200.38 98.53
  L 197.91 93.24
  C 227.47 83.18 258.78 81.14 289.02 88.31
  C 298.61 90.58 308.72 92.98 317.68 97.18
  Z"
/>
<path fill="#73c3e6" d="
  M 197.91 93.24
  L 200.38 98.53
  Q 190.35 102.81 181.04 108.80
  L 175.42 101.91
  Q 186.45 96.28 197.91 93.24
  Z"
/>
<path fill="#9cdef8" d="
  M 302.55 98.51
  Q 302.46 98.69 302.52 99.01
  Q 300.08 98.39 298.13 96.56
  Q 297.73 96.19 298.26 96.31
  L 301.79 97.13
  Q 302.35 97.26 302.44 97.83
  L 302.55 98.51
  Z"
/>
<path fill="#9cdef8" d="
  M 317.68 97.18
  Q 341.76 107.59 361.19 124.81
  Q 365.45 128.59 377.88 143.46
  C 373.68 144.66 372.10 142.47 368.62 141.92
  C 365.07 141.35 358.92 139.78 355.52 140.39
  Q 352.74 140.89 353.04 143.35
  Q 345.14 127.15 332.19 115.31
  Q 327.87 111.37 314.09 102.92
  Q 313.86 101.95 312.22 101.54
  Q 311.70 101.41 311.76 100.89
  Q 311.83 100.24 311.07 100.03
  Q 310.64 99.91 310.70 99.47
  L 310.75 99.05
  A 0.65 0.64 -77.1 0 1 311.58 98.52
  Q 314.72 99.52 317.68 97.18
  Z"
/>
<path fill="#9cdef8" d="
  M 175.42 101.91
  L 181.04 108.80
  C 170.24 117.07 161.03 125.67 153.77 137.40
  L 150.16 135.52
  Q 149.70 135.28 149.18 135.35
  Q 140.76 136.44 133.49 132.90
  C 146.30 119.05 158.81 110.94 175.42 101.91
  Z"
/>
<path fill="#9cdef8" d="
  M 309.03 102.56
  Q 316.63 106.75 323.18 112.46
  C 324.93 113.98 327.20 115.25 329.02 116.97
  Q 340.17 127.47 348.60 142.02
  L 329.25 140.28
  Q 323.38 131.32 320.43 127.81
  C 313.47 119.52 306.87 115.82 299.01 110.17
  C 300.24 107.43 302.90 107.53 305.17 105.82
  A 2.14 2.07 -67.8 0 1 306.03 105.44
  Q 308.33 104.98 309.03 102.56
  Z"
/>
<path fill="#73c3e6" d="
  M 307.62 120.37
  L 303.65 122.26
  Q 303.53 122.32 303.61 122.43
  Q 303.70 122.53 303.97 122.50
  Q 304.08 122.48 303.98 122.52
  Q 298.86 124.71 293.38 124.10
  A 2.15 2.15 0.0 0 1 292.41 123.74
  L 289.99 122.05
  A 0.62 0.62 0.0 0 0 289.06 122.33
  Q 288.92 122.69 288.93 123.06
  L 276.33 116.71
  Q 275.83 116.46 275.77 115.90
  C 275.39 112.14 275.82 109.61 271.80 107.74
  C 266.10 105.09 264.18 108.87 261.12 112.47
  Q 260.73 112.93 260.39 112.44
  C 259.39 110.98 259.12 109.84 257.63 108.86
  Q 250.47 104.18 242.86 107.68
  C 239.64 109.16 238.52 112.44 237.37 115.56
  A 0.91 0.91 0.0 0 1 236.63 116.15
  Q 222.71 118.08 211.31 126.41
  C 210.51 126.18 210.49 126.35 210.78 125.56
  Q 210.88 125.27 210.63 125.10
  L 199.99 117.87
  C 209.99 112.20 220.35 107.34 231.57 105.13
  Q 252.47 101.01 273.53 104.49
  C 285.92 106.53 297.81 112.69 307.62 120.37
  Z"
/>
<path fill="#9cdef8" d="
  M 188.35 107.70
  C 188.75 108.57 191.03 110.36 191.00 110.79
  A 0.74 0.73 14.1 0 0 191.43 111.50
  Q 194.91 113.07 196.65 116.15
  C 189.98 121.84 183.81 127.23 179.17 134.70
  Q 178.25 134.32 177.62 136.80
  C 172.31 135.00 166.82 136.79 162.56 132.37
  Q 162.54 132.35 162.51 132.38
  Q 162.43 132.49 162.29 132.58
  Q 161.98 132.78 161.85 132.44
  L 161.64 131.89
  C 170.32 122.44 178.20 114.07 188.35 107.70
  Z"
/>
<path fill="#9cdef8" d="
  M 291.35 128.60
  L 300.14 135.77
  A 0.74 0.73 56.0 0 0 300.83 135.91
  Q 301.69 135.66 301.26 135.93
  L 308.87 146.79
  Q 303.45 146.57 298.62 146.99
  C 294.88 147.31 291.48 147.33 287.91 147.61
  C 283.06 147.99 277.17 147.48 272.20 148.47
  Q 270.16 148.88 268.49 148.80
  C 262.07 148.50 255.68 148.87 249.24 148.53
  C 238.42 147.95 230.14 148.02 220.52 147.98
  Q 220.11 147.98 219.73 147.86
  L 218.90 147.60
  Q 218.88 147.59 218.86 147.60
  Q 218.72 147.67 218.72 147.82
  Q 218.71 148.03 218.50 148.05
  C 215.76 148.31 213.38 147.17 210.88 147.15
  Q 204.14 147.10 197.83 144.68
  Q 198.77 142.79 200.72 140.47
  C 211.45 127.73 222.98 122.75 239.10 119.85
  A 1.54 1.54 0.0 0 0 240.34 118.01
  Q 239.68 114.90 242.35 112.65
  Q 248.36 107.59 254.81 111.60
  Q 255.20 111.84 255.40 112.26
  Q 256.39 114.32 257.03 116.51
  Q 257.22 117.19 257.88 116.94
  Q 261.84 115.42 265.90 111.18
  Q 268.08 108.91 271.22 110.70
  Q 271.66 110.96 271.81 111.45
  Q 272.65 114.35 270.36 116.24
  A 1.48 1.47 35.6 0 0 270.78 118.76
  Q 281.47 122.73 291.35 128.60
  Z
  M 253.69 131.61
  Q 252.38 130.85 251.54 129.47
  Q 251.25 129.00 250.72 128.87
  Q 248.09 128.24 246.50 130.70
  Q 246.14 131.25 246.80 131.25
  L 248.95 131.25
  Q 249.46 131.25 249.76 131.66
  L 251.92 134.62
  A 2.03 2.03 0.0 0 0 255.43 134.20
  Q 255.93 132.98 257.31 132.71
  A 1.13 1.13 0.0 0 1 258.39 133.08
  L 260.36 135.33
  A 0.41 0.40 -49.3 0 0 261.00 135.28
  Q 263.63 131.33 268.07 129.61
  A 0.73 0.73 0.0 0 0 267.88 128.20
  Q 264.52 127.84 260.12 131.00
  A 0.12 0.12 0.0 0 1 259.93 130.93
  Q 259.49 129.09 257.69 128.96
  A 0.97 0.97 0.0 0 0 256.92 129.24
  L 254.60 131.49
  Q 254.19 131.90 253.69 131.61
  Z"
/>
<path fill="#9cdef8" d="
  M 199.99 117.87
  L 210.63 125.10
  Q 210.88 125.27 210.78 125.56
  C 210.49 126.35 210.51 126.18 211.31 126.41
  Q 201.68 133.01 198.44 136.94
  Q 195.87 140.04 191.16 150.20
  Q 188.98 150.25 187.37 148.85
  Q 187.01 148.53 186.56 148.39
  L 181.11 146.70
  A 0.05 0.05 0.0 0 1 181.08 146.63
  Q 181.17 146.51 181.21 146.32
  A 0.36 0.35 20.7 0 0 181.03 145.94
  L 176.99 143.61
  L 180.63 136.54
  C 187.13 131.19 191.92 124.98 199.99 117.87
  Z"
/>
<path fill="#9cdef8" d="
  M 307.62 120.37
  Q 318.69 129.75 325.89 141.98
  Q 322.60 141.12 320.39 141.76
  A 1.81 1.81 0.0 0 1 319.37 141.76
  Q 316.27 140.86 313.07 141.00
  Q 312.78 141.01 312.57 141.22
  L 312.33 141.46
  A 0.81 0.81 0.0 0 1 311.59 141.68
  Q 310.17 141.38 310.15 142.54
  C 309.17 141.13 303.73 133.36 301.71 135.47
  C 303.16 132.62 296.16 128.33 294.13 127.01
  Q 293.71 126.73 293.27 126.99
  L 292.77 127.29
  C 293.42 125.45 290.36 124.20 288.93 123.06
  Q 288.92 122.69 289.06 122.33
  A 0.62 0.62 0.0 0 1 289.99 122.05
  L 292.41 123.74
  A 2.15 2.15 0.0 0 0 293.38 124.10
  Q 298.86 124.71 303.98 122.52
  Q 304.08 122.48 303.97 122.50
  Q 303.70 122.53 303.61 122.43
  Q 303.53 122.32 303.65 122.26
  L 307.62 120.37
  Z"
/>
<path fill="#f0fcfd" d="
  M 301.71 135.47
  Q 302.02 135.54 301.26 135.93
  Q 301.69 135.66 300.83 135.91
  A 0.74 0.73 56.0 0 1 300.14 135.77
  L 291.35 128.60
  L 292.77 127.29
  L 293.27 126.99
  Q 293.71 126.73 294.13 127.01
  C 296.16 128.33 303.16 132.62 301.71 135.47
  Z"
/>
<path fill="#f0fcfd" d="
  M 254.60 131.49
  L 256.92 129.24
  A 0.97 0.97 0.0 0 1 257.69 128.96
  Q 259.49 129.09 259.93 130.93
  A 0.12 0.12 0.0 0 0 260.12 131.00
  Q 264.52 127.84 267.88 128.20
  A 0.73 0.73 0.0 0 1 268.07 129.61
  Q 263.63 131.33 261.00 135.28
  A 0.41 0.40 -49.3 0 1 260.36 135.33
  L 258.39 133.08
  A 1.13 1.13 0.0 0 0 257.31 132.71
  Q 255.93 132.98 255.43 134.20
  A 2.03 2.03 0.0 0 1 251.92 134.62
  L 249.76 131.66
  Q 249.46 131.25 248.95 131.25
  L 246.80 131.25
  Q 246.14 131.25 246.50 130.70
  Q 248.09 128.24 250.72 128.87
  Q 251.25 129.00 251.54 129.47
  Q 252.38 130.85 253.69 131.61
  Q 254.19 131.90 254.60 131.49
  Z"
/>
<path fill="#d6f4fb" d="
  M 161.64 131.89
  L 161.85 132.44
  Q 161.98 132.78 162.29 132.58
  Q 162.43 132.49 162.51 132.38
  Q 162.54 132.35 162.56 132.37
  C 166.82 136.79 172.31 135.00 177.62 136.80
  Q 173.49 143.84 171.14 152.42
  A 0.87 0.87 0.0 0 0 172.04 153.51
  L 172.59 153.47
  A 0.67 0.66 8.1 0 0 173.14 153.06
  L 176.99 143.61
  L 181.03 145.94
  A 0.36 0.35 20.7 0 1 181.21 146.32
  Q 181.17 146.51 181.08 146.63
  A 0.05 0.05 0.0 0 0 181.11 146.70
  L 186.56 148.39
  Q 187.01 148.53 187.37 148.85
  Q 188.98 150.25 191.16 150.20
  Q 190.38 151.90 190.52 153.11
  A 1.53 1.53 0.0 0 0 193.41 153.61
  L 197.83 144.68
  Q 204.14 147.10 210.88 147.15
  C 213.38 147.17 215.76 148.31 218.50 148.05
  Q 218.71 148.03 218.72 147.82
  Q 218.72 147.67 218.86 147.60
  Q 218.88 147.59 218.90 147.60
  L 219.73 147.86
  Q 220.11 147.98 220.52 147.98
  C 230.14 148.02 238.42 147.95 249.24 148.53
  C 255.68 148.87 262.07 148.50 268.49 148.80
  Q 270.16 148.88 272.20 148.47
  C 277.17 147.48 283.06 147.99 287.91 147.61
  C 291.48 147.33 294.88 147.31 298.62 146.99
  Q 303.45 146.57 308.87 146.79
  L 312.27 152.76
  A 1.70 1.65 -0.8 0 0 312.98 153.43
  L 314.40 154.15
  A 1.16 1.16 0.0 0 0 315.99 152.67
  Q 313.60 146.99 310.15 142.54
  Q 310.17 141.38 311.59 141.68
  A 0.81 0.81 0.0 0 0 312.33 141.46
  L 312.57 141.22
  Q 312.78 141.01 313.07 141.00
  Q 316.27 140.86 319.37 141.76
  A 1.81 1.81 0.0 0 0 320.39 141.76
  Q 322.60 141.12 325.89 141.98
  L 331.13 151.62
  A 1.62 1.53 48.4 0 0 333.81 151.85
  C 334.59 150.71 330.21 142.35 329.25 140.28
  L 348.60 142.02
  L 351.83 147.73
  A 1.40 1.40 0.0 0 0 354.35 146.50
  L 353.04 143.35
  Q 352.74 140.89 355.52 140.39
  C 358.92 139.78 365.07 141.35 368.62 141.92
  C 372.10 142.47 373.68 144.66 377.88 143.46
  L 384.37 151.31
  C 372.11 154.11 359.26 155.62 347.04 157.00
  Q 345.49 156.48 343.98 156.00
  C 340.68 154.97 337.05 156.01 333.73 157.14
  Q 328.18 159.01 321.52 158.58
  Q 321.29 158.57 321.24 158.74
  Q 321.18 158.97 320.94 158.96
  C 306.64 158.60 298.70 158.53 287.08 159.95
  C 268.33 162.25 248.10 161.45 229.19 161.21
  C 226.31 161.18 222.84 162.39 219.22 161.27
  Q 218.77 161.13 218.76 160.67
  C 218.76 160.48 211.30 160.32 210.46 160.17
  C 208.39 159.82 206.31 160.03 204.23 159.60
  C 199.66 158.67 195.15 159.72 190.89 158.31
  C 185.76 156.62 180.92 154.16 175.56 157.59
  L 168.25 156.29
  Q 144.18 151.33 119.49 150.46
  Q 119.39 149.91 118.91 149.41
  Q 126.39 140.00 133.49 132.90
  Q 140.76 136.44 149.18 135.35
  Q 149.70 135.28 150.16 135.52
  L 153.77 137.40
  Q 152.31 139.47 152.02 141.90
  A 0.58 0.57 68.4 0 0 153.03 142.34
  L 161.64 131.89
  Z"
/>
<path fill="#f0fcfd" d="
  M 179.17 134.70
  Q 179.66 136.52 180.63 136.54
  L 176.99 143.61
  L 173.14 153.06
  A 0.67 0.66 8.1 0 1 172.59 153.47
  L 172.04 153.51
  A 0.87 0.87 0.0 0 1 171.14 152.42
  Q 173.49 143.84 177.62 136.80
  Q 178.25 134.32 179.17 134.70
  Z"
/>
<path fill="#499339" d="
  M 118.91 149.41
  Q 119.39 149.91 119.49 150.46
  Q 118.29 151.14 118.03 152.23
  Q 117.90 152.75 118.26 153.15
  Q 128.47 164.38 132.93 172.32
  Q 141.49 187.56 151.08 202.90
  Q 127.15 209.64 104.43 216.18
  C 100.74 217.25 93.93 218.82 88.94 220.77
  Q 87.86 221.20 88.05 220.05
  C 90.66 204.90 95.00 190.44 102.29 176.61
  Q 109.76 162.42 118.91 149.41
  Z"
/>
<path fill="#408339" d="
  M 168.25 156.29
  Q 167.90 157.59 168.94 157.84
  Q 169.44 157.96 169.71 158.41
  C 170.69 160.06 171.79 161.56 172.58 163.30
  Q 178.72 176.82 187.05 189.16
  A 1.71 1.64 83.0 0 0 187.81 189.78
  Q 190.13 190.76 189.45 192.57
  L 151.08 202.90
  Q 141.49 187.56 132.93 172.32
  Q 128.47 164.38 118.26 153.15
  Q 117.90 152.75 118.03 152.23
  Q 118.29 151.14 119.49 150.46
  Q 144.18 151.33 168.25 156.29
  Z"
/>
<path fill="#499339" d="
  M 384.37 151.31
  Q 405.76 179.43 413.68 214.29
  Q 411.38 214.47 410.28 215.26
  Q 383.94 208.77 358.13 201.46
  C 345.01 197.74 330.11 194.89 316.09 190.74
  C 326.59 180.41 332.54 168.12 343.30 159.80
  Q 344.10 159.19 343.51 158.59
  L 347.04 157.00
  C 359.26 155.62 372.11 154.11 384.37 151.31
  Z"
/>
<path fill="#f0fcfd" d="
  M 347.04 157.00
  L 343.51 158.59
  Q 330.26 161.58 319.40 169.39
  L 311.43 171.81
  L 294.17 174.48
  Q 291.53 169.55 285.23 170.70
  Q 280.62 171.54 279.54 171.56
  C 269.84 171.71 261.39 166.83 251.68 166.86
  C 241.65 166.88 232.74 170.21 223.42 170.41
  Q 216.93 170.56 210.91 173.29
  Q 206.51 173.10 201.60 171.62
  Q 200.16 170.46 197.95 169.89
  Q 193.61 168.71 192.56 166.88
  Q 190.40 161.80 183.93 161.43
  Q 183.52 161.09 182.61 161.35
  Q 182.13 161.49 181.70 161.24
  L 175.56 157.59
  C 180.92 154.16 185.76 156.62 190.89 158.31
  C 195.15 159.72 199.66 158.67 204.23 159.60
  C 206.31 160.03 208.39 159.82 210.46 160.17
  C 211.30 160.32 218.76 160.48 218.76 160.67
  Q 218.77 161.13 219.22 161.27
  C 222.84 162.39 226.31 161.18 229.19 161.21
  C 248.10 161.45 268.33 162.25 287.08 159.95
  C 298.70 158.53 306.64 158.60 320.94 158.96
  Q 321.18 158.97 321.24 158.74
  Q 321.29 158.57 321.52 158.58
  Q 328.18 159.01 333.73 157.14
  C 337.05 156.01 340.68 154.97 343.98 156.00
  Q 345.49 156.48 347.04 157.00
  Z"
/>
<path fill="#72bb37" d="
  M 168.25 156.29
  L 175.56 157.59
  L 181.70 161.24
  Q 182.13 161.49 182.61 161.35
  Q 183.52 161.09 183.93 161.43
  L 183.61 161.47
  Q 183.10 161.54 183.51 161.84
  Q 187.63 164.82 192.56 166.88
  Q 193.61 168.71 197.95 169.89
  Q 196.40 170.05 198.72 172.05
  L 198.62 172.48
  Q 198.51 172.95 198.89 173.25
  Q 206.24 179.09 212.45 186.36
  Q 200.62 188.95 189.45 192.57
  Q 190.13 190.76 187.81 189.78
  A 1.71 1.64 83.0 0 1 187.05 189.16
  Q 178.72 176.82 172.58 163.30
  C 171.79 161.56 170.69 160.06 169.71 158.41
  Q 169.44 157.96 168.94 157.84
  Q 167.90 157.59 168.25 156.29
  Z"
/>
<path fill="#a0ca2c" d="
  M 343.51 158.59
  Q 344.10 159.19 343.30 159.80
  C 332.54 168.12 326.59 180.41 316.09 190.74
  L 300.83 186.69
  L 314.31 174.44
  Q 314.68 174.10 315.16 173.96
  Q 315.44 173.88 315.71 173.73
  Q 316.13 173.50 316.09 173.02
  L 316.01 172.03
  Q 318.15 171.09 319.40 169.39
  Q 330.26 161.58 343.51 158.59
  Z"
/>
<path fill="#508a84" d="
  M 201.60 171.62
  Q 206.51 173.10 210.91 173.29
  Q 219.97 177.17 227.21 182.02
  Q 227.86 182.45 226.92 183.26
  C 224.90 182.50 218.54 185.19 216.57 186.07
  L 212.45 186.36
  Q 206.24 179.09 198.89 173.25
  Q 198.51 172.95 198.62 172.48
  L 198.72 172.05
  Q 200.64 172.19 201.60 171.62
  Z"
/>
<path fill="#46c0f1" d="
  M 311.43 171.81
  L 316.01 172.03
  L 316.09 173.02
  Q 316.13 173.50 315.71 173.73
  Q 315.44 173.88 315.16 173.96
  Q 314.68 174.10 314.31 174.44
  L 300.83 186.69
  C 293.11 186.60 286.49 183.38 278.88 182.61
  A 0.29 0.29 0.0 0 1 278.81 182.05
  L 281.45 181.07
  Q 281.92 180.89 282.32 180.58
  Q 287.30 176.63 294.17 174.48
  L 311.43 171.81
  Z"
/>
<path fill="#a0ca2c" d="
  M 274.49 183.75
  Q 275.41 186.33 276.44 185.48
  Q 276.27 186.31 274.95 186.29
  Q 274.54 186.28 274.56 186.69
  Q 274.64 188.51 273.19 189.75
  A 0.45 0.44 46.2 0 0 273.18 190.41
  Q 274.36 191.52 275.95 192.02
  Q 273.07 191.85 270.19 191.56
  Q 269.75 191.07 268.75 191.95
  Q 268.19 192.38 268.67 192.08
  C 267.65 192.64 272.54 201.70 273.19 203.05
  C 275.19 207.27 276.32 212.04 277.91 216.56
  C 280.08 222.72 281.26 227.89 282.46 233.85
  Q 280.86 235.41 278.14 236.18
  A 1.11 1.09 -85.7 0 0 277.44 236.79
  C 276.19 239.61 272.10 239.32 268.57 239.56
  Q 266.03 239.73 262.00 240.44
  Q 253.28 241.97 244.50 240.61
  C 249.57 224.64 252.83 208.39 256.39 192.04
  Q 256.46 191.69 256.67 191.40
  L 257.53 190.15
  A 0.79 0.79 0.0 0 0 257.49 189.20
  Q 255.17 186.41 252.02 184.72
  A 0.91 0.91 0.0 0 0 251.06 184.78
  L 245.10 189.00
  Q 243.97 187.35 241.08 185.66
  Q 247.25 183.66 252.85 183.17
  Q 253.35 183.12 253.60 182.69
  Q 255.82 178.90 259.74 180.00
  Q 267.11 182.07 274.49 183.75
  Z"
/>
<path fill="#f0fcfd" d="
  M 226.92 183.26
  L 227.78 184.19
  Q 221.21 185.41 215.03 188.28
  Q 216.31 187.39 216.57 186.07
  C 218.54 185.19 224.90 182.50 226.92 183.26
  Z"
/>
<path fill="#f4bc2b" d="
  M 235.00 186.53
  L 213.39 198.29
  Q 213.00 198.33 212.96 198.50
  Q 212.11 198.54 211.07 199.08
  Q 190.07 209.99 165.20 221.63
  C 158.51 224.75 151.93 228.90 145.20 232.45
  Q 130.76 240.07 117.44 249.49
  C 108.61 246.03 106.48 239.85 103.84 231.56
  C 112.65 227.67 120.93 223.89 130.31 220.34
  C 147.71 213.76 171.20 203.60 187.00 198.26
  Q 207.68 191.27 215.03 188.28
  Q 221.21 185.41 227.78 184.19
  C 230.34 183.46 234.28 182.87 235.00 186.53
  Z"
/>
<path fill="#bb8026" d="
  M 274.49 183.75
  C 289.88 187.39 306.21 192.82 319.84 196.84
  Q 341.99 203.37 363.86 211.01
  Q 362.70 212.35 361.26 212.30
  Q 357.62 211.78 354.23 211.30
  C 348.85 210.55 343.84 208.44 338.50 207.11
  Q 333.71 205.92 329.74 204.37
  C 319.57 200.38 308.17 197.03 298.91 193.60
  Q 287.67 189.43 276.44 185.48
  Q 275.41 186.33 274.49 183.75
  Z"
/>
<path fill="#bb8026" d="
  M 241.08 185.66
  Q 243.97 187.35 245.10 189.00
  Q 234.22 197.27 222.87 204.73
  C 218.74 207.45 211.67 212.77 205.41 215.96
  Q 198.40 219.53 195.90 221.02
  C 181.65 229.54 166.84 237.19 152.99 246.37
  Q 135.14 258.21 116.76 269.22
  Q 116.32 269.48 116.29 268.98
  C 115.87 262.02 119.38 252.74 126.42 247.64
  C 137.67 239.51 149.74 232.80 161.75 225.89
  Q 168.94 221.74 179.45 216.61
  Q 196.29 208.38 212.70 199.33
  Q 213.02 199.15 213.01 198.79
  Q 213.00 198.65 212.96 198.50
  Q 213.00 198.33 213.39 198.29
  L 213.67 198.56
  A 0.77 0.76 -36.3 0 0 214.55 198.69
  L 237.36 186.90
  L 241.08 185.66
  Z"
/>
<path fill="#f4bc2b" d="
  M 276.44 185.48
  Q 287.67 189.43 298.91 193.60
  C 308.17 197.03 319.57 200.38 329.74 204.37
  Q 333.71 205.92 338.50 207.11
  C 343.84 208.44 348.85 210.55 354.23 211.30
  Q 357.62 211.78 361.26 212.30
  Q 354.24 213.10 347.73 211.53
  C 331.88 207.72 314.86 201.67 299.50 198.01
  Q 283.07 194.08 275.95 192.02
  Q 274.36 191.52 273.18 190.41
  A 0.45 0.44 46.2 0 1 273.19 189.75
  Q 274.64 188.51 274.56 186.69
  Q 274.54 186.28 274.95 186.29
  Q 276.27 186.31 276.44 185.48
  Z"
/>
<path fill="#e1f61d" d="
  M 235.00 186.53
  L 237.36 186.90
  L 214.55 198.69
  A 0.77 0.76 -36.3 0 1 213.67 198.56
  L 213.39 198.29
  L 235.00 186.53
  Z"
/>
<path fill="#eaa014" d="
  M 244.60 219.72
  Q 243.10 219.93 242.31 219.25
  A 1.71 1.67 -19.2 0 0 241.50 218.87
  Q 234.19 217.64 226.88 218.93
  A 0.40 0.40 0.0 0 1 226.44 218.39
  Q 226.62 217.93 227.06 217.82
  Q 227.55 217.70 226.98 217.27
  Q 226.61 216.99 226.71 216.49
  L 237.94 203.11
  A 0.57 0.57 0.0 0 0 237.64 202.19
  C 236.41 201.90 218.19 220.52 215.92 222.74
  L 213.36 222.14
  Q 212.85 222.02 212.51 222.41
  Q 207.16 228.65 204.26 231.01
  C 192.29 240.78 181.69 250.36 168.96 261.02
  Q 158.18 270.04 148.23 279.98
  Q 145.64 282.57 137.62 288.55
  C 131.94 284.03 124.08 279.22 119.98 273.94
  Q 119.64 273.50 120.09 273.19
  Q 130.47 265.88 141.47 259.71
  C 148.47 255.78 156.83 249.62 164.44 245.14
  Q 180.63 235.60 196.68 225.82
  C 202.72 222.14 210.53 218.84 215.56 215.57
  Q 226.06 208.75 241.89 195.20
  C 242.88 196.53 238.76 198.65 238.28 200.81
  A 0.50 0.49 -13.2 0 0 239.08 201.30
  C 240.38 200.26 241.42 198.40 242.42 197.39
  C 244.83 194.97 248.93 191.18 250.13 188.03
  C 250.89 185.80 252.65 189.98 252.37 191.46
  Q 249.60 206.22 244.60 219.72
  Z"
/>
<path fill="#e1f61d" d="
  M 250.13 188.03
  C 248.93 191.18 244.83 194.97 242.42 197.39
  C 241.42 198.40 240.38 200.26 239.08 201.30
  A 0.50 0.49 -13.2 0 1 238.28 200.81
  C 238.76 198.65 242.88 196.53 241.89 195.20
  L 250.13 188.03
  Z"
/>
<path fill="#72bb37" d="
  M 275.95 192.02
  Q 283.07 194.08 299.50 198.01
  C 314.86 201.67 331.88 207.72 347.73 211.53
  Q 354.24 213.10 361.26 212.30
  Q 362.70 212.35 363.86 211.01
  L 388.92 218.17
  Q 389.59 218.36 389.00 218.72
  L 357.31 238.02
  A 0.98 0.97 45.3 0 1 356.29 238.01
  C 345.20 231.00 332.84 225.70 321.03 219.99
  C 318.60 218.82 315.45 218.04 312.84 216.71
  Q 299.02 209.64 285.50 201.92
  C 285.22 200.64 283.67 200.66 282.74 200.15
  Q 277.45 197.26 272.44 194.17
  A 0.42 0.42 0.0 0 0 271.91 194.81
  Q 273.41 196.49 275.68 197.34
  Q 280.20 199.02 283.62 202.49
  C 283.98 202.86 284.31 202.84 284.68 202.52
  Q 285.81 203.61 286.18 203.82
  C 308.77 217.23 331.19 226.57 353.33 238.84
  A 0.34 0.34 0.0 0 1 353.32 239.43
  Q 341.36 245.98 328.26 249.76
  A 1.25 1.25 0.0 0 1 327.06 249.48
  Q 315.92 239.22 304.29 229.05
  C 303.34 228.21 302.66 226.95 301.80 226.19
  Q 295.37 220.48 280.01 205.99
  Q 274.15 200.45 270.41 194.93
  C 271.62 192.98 270.37 192.45 268.75 191.95
  Q 269.75 191.07 270.19 191.56
  Q 273.07 191.85 275.95 192.02
  Z"
/>
<path fill="#408339" d="
  M 268.75 191.95
  C 270.37 192.45 271.62 192.98 270.41 194.93
  Q 269.84 193.16 268.67 192.08
  Q 268.19 192.38 268.75 191.95
  Z"
/>
<path fill="#e1f61d" d="
  M 285.50 201.92
  Q 284.96 202.00 284.68 202.52
  C 284.31 202.84 283.98 202.86 283.62 202.49
  Q 280.20 199.02 275.68 197.34
  Q 273.41 196.49 271.91 194.81
  A 0.42 0.42 0.0 0 1 272.44 194.17
  Q 277.45 197.26 282.74 200.15
  C 283.67 200.66 285.22 200.64 285.50 201.92
  Z"
/>
<path fill="#eaa014" d="
  M 324.83 250.08
  A 0.65 0.65 0.0 0 1 324.64 251.18
  Q 322.28 252.12 319.51 252.79
  Q 305.47 256.19 291.57 258.84
  A 1.13 1.13 0.0 0 1 290.23 257.69
  C 290.87 240.67 284.34 222.42 277.19 207.29
  A 0.46 0.46 0.0 0 1 277.90 206.75
  C 282.70 210.84 287.31 216.23 291.21 219.90
  Q 298.32 226.57 305.41 233.26
  C 311.26 238.77 318.17 244.34 324.83 250.08
  Z"
/>
<path fill="#1585be" d="
  M 413.68 214.29
  Q 415.95 221.09 416.54 228.86
  C 412.41 229.90 409.82 224.61 406.28 228.28
  C 399.80 235.01 391.86 240.71 385.52 246.53
  C 379.77 251.83 373.85 256.56 368.17 262.19
  C 350.53 279.66 328.56 295.50 304.50 302.72
  Q 291.18 302.95 278.03 301.99
  Q 284.79 296.80 289.54 294.77
  C 314.62 284.03 337.51 274.92 361.21 257.72
  Q 368.23 252.63 373.73 245.98
  A 0.45 0.45 0.0 0 0 373.42 245.24
  C 371.86 245.07 359.89 253.52 357.55 254.86
  C 347.30 260.78 335.42 264.80 323.99 268.87
  Q 324.00 264.88 322.02 265.44
  C 331.42 262.69 340.86 260.05 349.69 256.07
  Q 359.49 251.65 363.19 249.19
  C 371.35 243.75 380.09 238.86 387.68 233.19
  C 395.26 227.53 403.68 222.06 410.28 215.26
  Q 411.38 214.47 413.68 214.29
  Z"
/>
<path fill="#bb8026" d="
  M 226.71 216.49
  Q 226.61 216.99 226.98 217.27
  Q 227.55 217.70 227.06 217.82
  Q 226.62 217.93 226.44 218.39
  A 0.40 0.40 0.0 0 0 226.88 218.93
  Q 234.19 217.64 241.50 218.87
  A 1.71 1.67 -19.2 0 1 242.31 219.25
  Q 243.10 219.93 244.60 219.72
  C 240.24 236.34 234.25 255.74 217.36 263.71
  C 215.27 264.69 213.34 267.17 213.01 269.08
  Q 208.84 292.97 190.25 308.42
  Q 189.87 308.73 189.38 308.74
  Q 173.81 309.10 159.07 302.66
  Q 157.33 301.90 156.35 300.56
  A 0.96 0.95 39.2 0 1 156.25 299.63
  Q 157.24 297.33 158.14 296.15
  C 164.17 288.25 171.99 280.09 178.75 271.39
  Q 182.15 267.00 185.91 262.70
  C 193.48 254.05 200.33 245.11 208.40 236.66
  C 214.88 229.87 220.07 222.39 226.71 216.49
  Z"
/>
<path fill="#bb8026" d="
  M 215.92 222.74
  C 204.38 233.09 195.43 243.85 185.81 254.38
  C 177.00 264.02 169.05 274.47 160.08 284.08
  C 157.14 287.24 153.22 292.29 149.20 296.16
  Q 148.57 296.76 147.88 296.24
  L 137.62 288.55
  Q 145.64 282.57 148.23 279.98
  Q 158.18 270.04 168.96 261.02
  C 181.69 250.36 192.29 240.78 204.26 231.01
  Q 207.16 228.65 212.51 222.41
  Q 212.85 222.02 213.36 222.14
  L 215.92 222.74
  Z"
/>
<path fill="#126d9d" d="
  M 416.54 228.86
  L 417.18 235.82
  C 408.82 243.05 400.19 251.27 392.35 257.78
  Q 366.20 279.55 338.16 299.55
  Q 335.41 301.49 329.81 301.81
  Q 313.03 302.78 304.50 302.72
  C 328.56 295.50 350.53 279.66 368.17 262.19
  C 373.85 256.56 379.77 251.83 385.52 246.53
  C 391.86 240.71 399.80 235.01 406.28 228.28
  C 409.82 224.61 412.41 229.90 416.54 228.86
  Z"
/>
<path fill="#bb8026" d="
  M 103.84 231.56
  C 106.48 239.85 108.61 246.03 117.44 249.49
  Q 112.47 254.69 111.52 262.04
  A 0.37 0.37 0.0 0 1 110.82 262.17
  Q 103.56 248.81 102.43 233.77
  Q 102.29 231.93 103.84 231.56
  Z"
/>
<path fill="#a96722" d="
  M 87.37 259.73
  L 89.14 260.36
  Q 89.62 260.53 89.77 261.00
  C 91.66 266.80 93.76 275.92 97.65 280.54
  Q 103.82 287.88 110.18 294.95
  A 0.51 0.51 0.0 0 0 111.01 294.36
  C 107.24 287.66 103.08 280.44 100.81 273.50
  Q 94.59 254.51 98.54 234.51
  Q 98.60 234.20 98.15 233.80
  L 98.74 233.75
  Q 99.27 233.71 99.28 234.24
  C 99.85 252.43 106.79 268.33 120.26 280.42
  Q 130.97 290.04 141.28 300.10
  C 144.29 303.04 149.66 304.44 151.30 309.04
  C 152.07 311.22 150.06 313.22 148.00 313.50
  C 129.99 315.94 117.66 317.84 105.17 322.48
  A 1.21 1.20 -22.2 0 1 103.65 321.85
  Q 98.94 311.38 95.01 300.24
  C 93.75 296.66 93.48 293.12 92.51 289.54
  Q 88.53 274.89 87.37 259.73
  Z"
/>
<path fill="#72bb37" d="
  M 282.46 233.85
  Q 285.33 246.39 284.26 259.37
  A 0.95 0.94 88.5 0 1 283.46 260.22
  Q 276.92 261.19 270.46 261.95
  C 258.14 263.41 245.29 262.86 232.87 262.42
  A 0.55 0.55 0.0 0 1 232.48 261.50
  Q 235.62 258.01 238.21 253.70
  Q 239.88 250.91 244.50 240.61
  Q 253.28 241.97 262.00 240.44
  Q 266.03 239.73 268.57 239.56
  C 272.10 239.32 276.19 239.61 277.44 236.79
  A 1.11 1.09 -85.7 0 1 278.14 236.18
  Q 280.86 235.41 282.46 233.85
  Z"
/>
<path fill="#eaa014" d="
  M 98.15 233.80
  Q 98.60 234.20 98.54 234.51
  Q 94.59 254.51 100.81 273.50
  C 103.08 280.44 107.24 287.66 111.01 294.36
  A 0.51 0.51 0.0 0 1 110.18 294.95
  Q 103.82 287.88 97.65 280.54
  C 93.76 275.92 91.66 266.80 89.77 261.00
  Q 89.62 260.53 89.14 260.36
  L 87.37 259.73
  Q 86.53 249.35 87.05 239.16
  A 1.64 1.64 0.0 0 1 87.95 237.78
  Q 92.90 235.26 98.15 233.80
  Z"
/>
<path fill="#e1f61d" d="
  M 417.18 235.82
  L 417.49 238.95
  Q 411.79 245.26 405.01 251.51
  Q 400.31 255.84 392.26 261.76
  C 387.82 265.03 383.43 269.75 379.00 273.11
  Q 363.02 285.27 346.05 297.92
  Q 342.47 300.26 338.16 299.55
  Q 366.20 279.55 392.35 257.78
  C 400.19 251.27 408.82 243.05 417.18 235.82
  Z"
/>
<path fill="#51a338" d="
  M 417.49 238.95
  Q 419.32 260.20 415.56 282.36
  A 1.67 1.65 89.0 0 1 414.27 283.71
  L 346.05 297.92
  Q 363.02 285.27 379.00 273.11
  C 383.43 269.75 387.82 265.03 392.26 261.76
  Q 400.31 255.84 405.01 251.51
  Q 411.79 245.26 417.49 238.95
  Z"
/>
<path fill="#73c3e6" d="
  M 278.03 301.99
  L 269.72 299.91
  C 269.70 295.16 279.57 287.89 283.25 285.40
  Q 288.14 282.09 296.87 278.75
  Q 310.43 273.58 323.99 268.87
  C 335.42 264.80 347.30 260.78 357.55 254.86
  C 359.89 253.52 371.86 245.07 373.42 245.24
  A 0.45 0.45 0.0 0 1 373.73 245.98
  Q 368.23 252.63 361.21 257.72
  C 337.51 274.92 314.62 284.03 289.54 294.77
  Q 284.79 296.80 278.03 301.99
  Z"
/>
<path fill="#72bb37" d="
  M 263.27 266.31
  A 0.35 0.35 0.0 0 1 263.40 266.98
  Q 262.37 267.41 261.49 268.25
  C 255.96 273.47 249.52 278.95 246.05 285.78
  C 242.99 291.80 242.52 299.12 242.48 306.04
  A 1.58 1.58 0.0 0 1 240.92 307.61
  L 200.29 308.35
  Q 198.69 308.38 199.81 307.23
  C 209.81 296.88 216.52 288.27 219.64 274.19
  C 221.05 267.84 224.57 265.39 231.06 265.53
  Q 247.12 265.89 263.27 266.31
  Z"
/>
<path fill="#35a2d4" d="
  M 322.02 265.44
  Q 324.00 264.88 323.99 268.87
  Q 310.43 273.58 296.87 278.75
  Q 288.14 282.09 283.25 285.40
  C 279.57 287.89 269.70 295.16 269.72 299.91
  Q 265.99 298.85 263.41 297.53
  C 256.32 293.91 266.44 284.39 269.75 282.26
  C 278.47 276.64 287.05 271.55 297.29 269.97
  Q 309.70 268.05 322.02 265.44
  Z"
/>
<path fill="#1585be" d="
  M 211.71 376.38
  L 211.75 375.61
  Q 211.78 375.17 212.21 375.07
  C 218.34 373.74 223.87 371.19 230.25 371.21
  Q 259.10 371.32 287.94 371.36
  C 306.46 371.38 328.30 366.80 343.99 356.49
  C 351.17 351.93 374.06 337.26 371.81 326.78
  C 369.80 317.39 352.39 315.47 344.77 315.50
  A 0.34 0.34 0.0 0 0 344.66 316.16
  Q 350.92 318.31 357.21 320.59
  C 367.25 324.21 366.98 335.36 357.75 339.57
  Q 345.17 345.31 337.31 350.33
  Q 317.77 363.28 292.52 364.49
  C 265.78 365.78 243.28 365.37 223.74 366.27
  Q 214.16 366.71 205.18 372.71
  C 202.39 366.97 215.55 365.43 218.86 365.26
  C 232.92 364.56 245.30 363.62 261.00 363.14
  C 278.13 362.61 295.28 360.73 311.83 356.17
  C 322.02 353.36 332.29 347.90 340.57 342.09
  C 348.45 336.56 350.72 327.08 342.27 320.45
  C 339.61 318.37 336.53 316.65 334.09 314.29
  A 1.24 1.24 0.0 0 1 334.72 312.18
  L 409.99 298.02
  A 0.94 0.94 0.0 0 1 411.08 299.17
  C 406.93 315.86 400.13 331.12 390.76 345.59
  C 387.94 349.93 385.26 354.61 381.95 358.45
  Q 373.12 368.70 363.27 378.01
  Q 358.30 382.71 347.27 390.27
  C 344.97 391.85 344.82 392.61 341.74 392.28
  Q 320.81 390.05 299.75 390.50
  Q 295.02 390.60 282.44 389.32
  Q 274.48 388.50 265.25 387.05
  C 247.42 384.23 227.72 381.80 211.71 376.38
  Z"
/>
<path fill="#1585be" d="
  M 154.16 356.00
  L 152.93 350.97
  A 1.36 1.32 52.8 0 1 153.04 350.06
  C 161.04 334.38 213.80 332.01 229.76 332.12
  C 253.99 332.13 278.16 333.10 302.36 331.23
  L 314.29 329.76
  A 0.94 0.93 81.1 0 0 315.09 328.65
  C 313.93 322.75 308.50 320.68 303.23 320.12
  Q 279.67 317.62 256.33 320.72
  Q 243.94 322.37 239.63 322.66
  C 227.35 323.48 213.81 323.42 202.84 324.32
  Q 186.20 325.68 169.59 327.38
  C 165.05 327.85 159.97 327.80 155.17 328.18
  C 148.07 328.75 134.24 335.95 140.37 345.30
  Q 143.01 349.33 146.60 353.26
  C 135.39 350.02 100.84 333.29 137.52 326.37
  Q 171.79 319.90 214.19 319.43
  C 241.55 319.12 275.36 309.70 304.96 316.72
  C 313.52 318.75 322.90 323.17 326.80 331.30
  C 330.81 339.67 311.89 343.42 306.89 344.62
  C 271.33 353.18 237.15 347.53 199.28 357.82
  Q 191.68 359.89 186.98 365.09
  A 2.42 2.42 0.0 0 1 184.67 365.83
  Q 170.85 362.82 157.99 358.03
  Q 155.69 357.17 154.16 356.00
  Z"
/>
<path fill="#35a2d4" d="
  M 343.99 356.49
  Q 341.31 352.27 337.31 350.33
  Q 345.17 345.31 357.75 339.57
  C 366.98 335.36 367.25 324.21 357.21 320.59
  Q 350.92 318.31 344.66 316.16
  A 0.34 0.34 0.0 0 1 344.77 315.50
  C 352.39 315.47 369.80 317.39 371.81 326.78
  C 374.06 337.26 351.17 351.93 343.99 356.49
  Z"
/>
<path fill="#73c3e6" d="
  M 302.36 331.23
  Q 301.00 327.96 297.95 327.53
  Q 288.10 326.14 278.25 327.23
  C 264.51 328.75 250.92 329.27 237.09 328.73
  C 233.83 328.61 231.71 329.77 229.76 332.12
  C 213.80 332.01 161.04 334.38 153.04 350.06
  A 1.36 1.32 52.8 0 0 152.93 350.97
  L 154.16 356.00
  L 146.60 353.26
  Q 143.01 349.33 140.37 345.30
  C 134.24 335.95 148.07 328.75 155.17 328.18
  C 159.97 327.80 165.05 327.85 169.59 327.38
  Q 186.20 325.68 202.84 324.32
  C 213.81 323.42 227.35 323.48 239.63 322.66
  Q 243.94 322.37 256.33 320.72
  Q 279.67 317.62 303.23 320.12
  C 308.50 320.68 313.93 322.75 315.09 328.65
  A 0.94 0.93 81.1 0 1 314.29 329.76
  L 302.36 331.23
  Z"
/>
<path fill="#46c0f1" d="
  M 302.36 331.23
  C 278.16 333.10 253.99 332.13 229.76 332.12
  C 231.71 329.77 233.83 328.61 237.09 328.73
  C 250.92 329.27 264.51 328.75 278.25 327.23
  Q 288.10 326.14 297.95 327.53
  Q 301.00 327.96 302.36 331.23
  Z"
/>
<path fill="#126d9d" d="
  M 122.11 346.14
  Q 120.94 348.04 120.84 350.17
  A 1.28 1.28 0.0 0 0 121.14 351.07
  C 122.70 352.98 125.09 354.28 126.60 355.76
  Q 134.72 363.71 144.10 370.13
  C 170.73 388.35 198.95 401.42 231.49 404.28
  C 246.44 405.59 261.49 406.13 275.45 413.04
  Q 276.74 413.68 278.80 413.00
  L 279.68 419.07
  Q 279.76 419.58 279.24 419.62
  C 231.68 422.90 181.60 412.07 144.90 380.92
  Q 123.23 362.53 108.37 337.75
  A 0.72 0.71 -47.8 0 1 108.34 337.07
  L 108.56 336.61
  A 0.54 0.54 0.0 0 1 109.42 336.45
  Q 115.26 341.94 122.11 346.14
  Z"
/>
<path fill="#1585be" d="
  M 122.11 346.14
  C 135.41 355.28 148.47 364.43 163.63 370.79
  Q 187.94 380.99 198.44 384.31
  Q 216.24 389.92 243.81 395.06
  C 253.21 396.81 278.69 401.62 278.80 413.00
  Q 276.74 413.68 275.45 413.04
  C 261.49 406.13 246.44 405.59 231.49 404.28
  C 198.95 401.42 170.73 388.35 144.10 370.13
  Q 134.72 363.71 126.60 355.76
  C 125.09 354.28 122.70 352.98 121.14 351.07
  A 1.28 1.28 0.0 0 1 120.84 350.17
  Q 120.94 348.04 122.11 346.14
  Z"
/>
<path fill="#73c3e6" d="
  M 337.31 350.33
  Q 341.31 352.27 343.99 356.49
  C 328.30 366.80 306.46 371.38 287.94 371.36
  Q 259.10 371.32 230.25 371.21
  C 223.87 371.19 218.34 373.74 212.21 375.07
  Q 211.78 375.17 211.75 375.61
  L 211.71 376.38
  Q 207.77 375.12 205.18 372.71
  Q 214.16 366.71 223.74 366.27
  C 243.28 365.37 265.78 365.78 292.52 364.49
  Q 317.77 363.28 337.31 350.33
  Z"
/>
</svg>
