<?xml version="1.0" encoding="UTF-8" standalone="no"?>
<svg xmlns="http://www.w3.org/2000/svg" version="1.2" baseProfile="tiny" viewBox="0.00 0.00 500.00 500.00">
<g stroke-width="2.00" fill="none" stroke-linecap="butt">
<path stroke="#9e6997" vector-effect="non-scaling-stroke" d="
  M 185.27 109.49
  Q 183.22 111.51 180.96 113.37
  C 174.60 118.60 169.34 131.93 177.32 137.65
  C 180.04 139.61 183.73 139.94 186.02 142.46
  Q 190.46 147.36 187.75 154.04"
/>
<path stroke="#cab2c9" vector-effect="non-scaling-stroke" d="
  M 187.75 154.04
  C 170.27 150.13 153.38 150.24 139.18 160.15
  Q 136.85 161.77 135.69 163.98"
/>
<path stroke="#a16289" vector-effect="non-scaling-stroke" d="
  M 124.92 198.16
  C 116.81 197.30 110.04 195.63 101.07 197.07
  Q 100.58 197.15 100.13 196.93
  Q 99.65 196.70 99.08 196.59
  Q 98.68 196.52 98.56 196.91
  Q 98.42 197.39 98.04 197.75"
/>
<path stroke="#9775a5" vector-effect="non-scaling-stroke" d="
  M 258.49 153.13
  L 256.71 155.45
  A 2.00 1.99 -56.8 0 1 254.16 155.99
  Q 241.69 149.09 228.49 147.30
  C 226.10 146.97 223.22 147.47 220.57 145.91
  C 215.81 143.12 200.32 142.28 201.32 150.91
  C 201.49 152.35 202.43 153.47 202.66 155.14
  Q 202.72 155.59 202.32 155.80
  L 199.50 157.29"
/>
<path stroke="#d3b7cd" vector-effect="non-scaling-stroke" d="
  M 199.50 157.29
  L 187.75 154.04"
/>
<path stroke="#ae5d91" vector-effect="non-scaling-stroke" d="
  M 172.58 291.83
  Q 169.30 297.08 167.22 302.89
  Q 167.05 303.38 166.62 303.69
  Q 165.99 304.15 165.70 304.76
  Q 165.46 305.26 164.94 305.48
  Q 163.72 305.98 163.27 307.25
  A 1.48 1.44 -5.7 0 1 162.62 308.02
  L 161.25 308.79"
/>
<path stroke="#bac7dd" vector-effect="non-scaling-stroke" d="
  M 219.51 170.22
  Q 226.47 178.39 228.69 182.31
  C 235.25 193.92 244.04 206.82 258.27 209.52
  C 266.88 211.16 274.63 207.87 283.31 204.27
  Q 294.65 199.56 308.25 199.71"
/>
<path stroke="#80d1dd" vector-effect="non-scaling-stroke" d="
  M 308.25 199.71
  Q 323.53 199.88 344.02 198.03
  C 370.55 195.62 395.44 215.94 388.72 244.37
  C 385.85 256.51 381.67 262.84 375.71 271.75"
/>
<path stroke="#8fc6df" vector-effect="non-scaling-stroke" d="
  M 375.71 271.75
  Q 369.65 281.62 367.46 293.00"
/>
<path stroke="#b6b4d7" vector-effect="non-scaling-stroke" d="
  M 367.46 293.00
  L 366.54 293.25"
/>
<path stroke="#b2e1dc" vector-effect="non-scaling-stroke" d="
  M 359.25 296.54
  L 358.74 296.82
  A 0.53 0.53 0.0 0 1 357.96 296.28
  Q 359.60 283.16 365.22 271.59
  C 368.16 265.54 373.06 260.76 375.43 254.55
  C 379.44 244.06 380.92 228.21 371.91 219.83
  Q 361.31 209.96 345.49 209.34
  Q 327.59 208.64 320.26 208.75"
/>
<path stroke="#bbe0e6" vector-effect="non-scaling-stroke" d="
  M 320.26 208.75
  C 312.41 207.93 302.57 207.01 294.89 209.61
  Q 281.86 214.02 271.44 216.94
  C 269.32 217.54 267.09 217.19 264.89 217.67
  C 243.56 222.29 229.81 197.93 220.29 183.22
  C 216.42 177.24 209.04 172.93 202.48 170.16"
/>
<path stroke="#dee1db" vector-effect="non-scaling-stroke" d="
  M 202.48 170.16
  L 197.75 167.79"
/>
<path stroke="#baacc8" vector-effect="non-scaling-stroke" d="
  M 182.51 164.13
  Q 181.29 163.83 179.98 164.09"
/>
<path stroke="#dee1db" vector-effect="non-scaling-stroke" d="
  M 179.98 164.09
  Q 168.92 163.89 158.00 165.79"
/>
<path stroke="#5384b7" vector-effect="non-scaling-stroke" d="
  M 264.54 156.86
  C 262.43 158.72 265.21 161.38 266.86 162.50"
/>
<path stroke="#7e85b5" vector-effect="non-scaling-stroke" d="
  M 266.86 162.50
  C 266.57 163.22 266.12 163.70 265.29 163.39
  C 253.46 158.93 241.32 153.81 229.51 161.73
  Q 226.85 163.51 219.51 170.22"
/>
<path stroke="#c3bdd8" vector-effect="non-scaling-stroke" d="
  M 219.51 170.22
  Q 210.53 161.65 199.50 157.29"
/>
<path stroke="#9b6baa" vector-effect="non-scaling-stroke" d="
  M 202.20 309.18
  Q 205.72 316.90 208.61 324.80
  C 210.52 330.03 212.94 333.15 217.13 336.26
  Q 217.19 336.30 217.20 336.38
  Q 217.23 336.54 217.18 336.69
  Q 217.09 336.98 217.32 337.20
  C 226.14 345.74 240.54 345.76 251.73 343.11
  C 262.11 340.65 266.58 333.28 271.56 324.71"
/>
<path stroke="#d8add1" vector-effect="non-scaling-stroke" d="
  M 277.77 331.21
  Q 281.94 336.03 287.03 339.87"
/>
<path stroke="#93599a" vector-effect="non-scaling-stroke" d="
  M 287.03 339.87
  C 285.31 341.67 283.48 342.77 282.36 344.96
  Q 280.52 348.55 279.37 352.41
  C 278.10 356.64 280.00 362.58 280.98 366.81
  C 281.50 369.06 281.12 369.87 279.33 371.11
  Q 275.94 373.46 273.13 373.70"
/>
<path stroke="#6ec2c2" vector-effect="non-scaling-stroke" d="
  M 320.26 208.75
  Q 318.05 213.45 319.11 218.83
  C 319.78 222.18 322.27 224.82 322.00 229.21"
/>
<path stroke="#bbe0e6" vector-effect="non-scaling-stroke" d="
  M 322.00 229.21
  Q 307.50 226.45 293.74 231.74
  C 287.36 234.19 278.74 238.77 271.76 240.19
  C 250.41 244.52 236.52 231.00 223.06 217.20
  Q 219.75 213.81 209.99 201.37"
/>
<path stroke="#998da4" vector-effect="non-scaling-stroke" d="
  M 179.98 164.09
  Q 180.59 164.83 182.00 164.46"
/>
<path stroke="#9ac2c2" vector-effect="non-scaling-stroke" d="
  M 202.48 170.16
  Q 208.73 185.04 209.99 201.37"
/>
<path stroke="#dee1db" vector-effect="non-scaling-stroke" d="
  M 209.99 201.37
  C 201.56 195.19 197.61 191.90 187.75 191.59
  C 158.14 190.63 155.27 225.61 167.93 244.09
  C 171.04 248.62 178.89 259.34 185.00 258.10"
/>
<path stroke="#dee1db" vector-effect="non-scaling-stroke" d="
  M 206.46 271.75
  L 207.00 273.71"
/>
<path stroke="#9ac2c2" vector-effect="non-scaling-stroke" d="
  M 207.00 273.71
  Q 202.81 284.82 195.96 294.50"
/>
<path stroke="#dee1db" vector-effect="non-scaling-stroke" d="
  M 195.96 294.50
  L 180.61 285.54"
/>
<path stroke="#c6beb3" vector-effect="non-scaling-stroke" d="
  M 152.75 273.71
  Q 152.79 272.97 153.36 272.79
  Q 153.76 272.67 153.91 272.29
  C 154.44 270.95 154.58 270.06 154.47 268.58
  Q 153.43 254.94 152.88 241.21
  A 0.16 0.16 0.0 0 0 152.56 241.19
  Q 152.44 241.86 152.37 242.20
  Q 152.30 242.60 152.25 242.20
  C 151.76 237.58 151.01 233.99 151.53 229.32
  C 152.13 223.92 151.55 217.86 151.11 212.45
  Q 150.89 209.72 151.41 206.43
  Q 152.03 202.55 152.89 190.81
  Q 152.94 190.18 152.18 189.26
  Q 151.86 188.87 151.92 188.37
  Q 152.47 183.34 150.37 178.96
  Q 148.92 175.93 148.64 174.42
  Q 148.18 171.96 148.05 169.52"
/>
<path stroke="#467bb6" vector-effect="non-scaling-stroke" d="
  M 389.96 305.75
  Q 389.42 306.08 389.01 305.68
  Q 388.68 305.36 388.40 305.71
  L 387.90 306.32
  Q 387.68 306.58 387.37 306.45
  Q 379.11 302.94 373.34 296.18
  Q 372.08 294.71 367.46 293.00"
/>
<path stroke="#71609f" vector-effect="non-scaling-stroke" d="
  M 389.71 325.50
  Q 381.57 324.21 374.00 325.00
  Q 368.18 325.61 363.72 323.19"
/>
<path stroke="#1098bd" vector-effect="non-scaling-stroke" d="
  M 393.21 287.00
  Q 391.82 286.57 391.18 285.20
  Q 390.98 284.78 390.51 284.83
  C 388.91 284.98 390.19 283.40 390.63 283.10
  Q 390.79 283.00 390.64 282.88
  Q 390.49 282.75 390.33 282.78
  Q 390.06 282.82 389.88 282.60
  Q 388.45 280.79 386.77 279.24
  C 383.15 275.91 380.90 273.03 375.71 271.75"
/>
<path stroke="#3b98bb" vector-effect="non-scaling-stroke" d="
  M 309.15 179.43
  C 304.87 186.25 307.15 192.76 308.25 199.71"
/>
<path stroke="#b2e1dc" vector-effect="non-scaling-stroke" d="
  M 351.75 319.71
  Q 345.21 327.80 341.35 330.12
  C 324.95 339.98 305.44 340.32 289.50 329.71"
/>
<path stroke="#6ec2c2" vector-effect="non-scaling-stroke" d="
  M 289.50 329.71
  Q 290.14 328.94 291.30 328.37
  A 0.59 0.58 -31.1 0 0 291.52 327.50
  C 290.09 325.52 291.36 324.06 291.51 322.34
  Q 291.97 317.33 293.94 312.69
  A 0.32 0.31 11.2 0 1 294.23 312.50
  Q 294.36 312.50 294.50 312.50
  Q 295.04 312.52 294.78 312.05
  L 294.54 311.58
  Q 294.29 311.12 294.58 310.68
  L 295.90 308.69
  A 1.13 1.12 -38.9 0 0 296.01 307.70
  L 294.53 303.72
  Q 294.30 303.10 294.75 302.63
  Q 295.62 301.72 294.94 300.63
  Q 294.74 300.30 295.12 300.24
  Q 295.58 300.18 295.75 299.71"
/>
<path stroke="#c3bdd8" vector-effect="non-scaling-stroke" d="
  M 223.86 309.12
  Q 213.82 312.55 202.20 309.18"
/>
<path stroke="#d8add1" vector-effect="non-scaling-stroke" d="
  M 202.20 309.18
  L 175.71 292.25"
/>
<path stroke="#4a8ebc" vector-effect="non-scaling-stroke" d="
  M 287.73 169.83
  Q 275.88 170.48 266.86 162.50"
/>
<path stroke="#baacc8" vector-effect="non-scaling-stroke" d="
  M 361.50 325.54
  Q 361.61 326.20 361.22 326.73
  Q 348.51 343.87 327.54 348.68"
/>
<path stroke="#baacc8" vector-effect="non-scaling-stroke" d="
  M 317.49 349.80
  C 306.98 350.96 295.46 346.05 287.03 339.87"
/>
<path stroke="#b2e1dc" vector-effect="non-scaling-stroke" d="
  M 322.00 229.21
  C 334.07 233.13 342.86 241.93 343.44 254.73
  Q 344.69 282.27 324.35 296.21
  C 315.24 302.46 305.80 304.17 295.75 299.71"
/>
<path stroke="#bbe0e6" vector-effect="non-scaling-stroke" d="
  M 295.75 299.71
  Q 287.50 295.20 280.34 289.17
  C 273.53 283.42 267.80 279.48 261.20 275.75
  C 242.80 265.35 225.78 280.29 207.00 273.71"
/>
<path stroke="#daf2f2" vector-effect="non-scaling-stroke" d="
  M 199.21 261.75
  Q 202.02 262.16 204.49 263.48
  C 211.33 267.14 218.26 268.80 225.85 266.11
  C 239.92 261.13 252.25 260.02 265.45 267.90
  C 274.33 273.20 282.00 279.29 290.25 285.47
  Q 297.67 291.01 302.06 292.21
  C 322.58 297.82 334.65 274.69 335.36 257.70
  C 335.98 242.93 320.39 235.53 307.68 237.14
  Q 294.21 238.85 286.17 243.15
  C 272.24 250.59 257.59 252.92 243.17 244.84
  C 233.18 239.24 225.25 233.05 217.60 223.85
  C 210.79 215.66 199.88 199.94 188.02 199.97
  C 177.63 199.99 170.61 206.02 169.81 216.19
  C 168.70 230.30 176.21 243.79 186.84 252.19
  Q 191.17 255.62 193.37 258.09"
/>
<path stroke="#bbe0e6" vector-effect="non-scaling-stroke" d="
  M 289.50 329.71
  L 280.88 323.16"
/>
<path stroke="#bbe0e6" vector-effect="non-scaling-stroke" d="
  M 222.23 300.44
  C 213.03 303.07 203.23 300.30 195.96 294.50"
/>
</g>
<path fill="#956493" d="
  M 185.27 109.49
  Q 183.22 111.51 180.96 113.37
  C 174.60 118.60 169.34 131.93 177.32 137.65
  C 180.04 139.61 183.73 139.94 186.02 142.46
  Q 190.46 147.36 187.75 154.04
  C 170.27 150.13 153.38 150.24 139.18 160.15
  Q 136.85 161.77 135.69 163.98
  C 125.44 173.88 125.58 184.92 124.92 198.16
  C 116.81 197.30 110.04 195.63 101.07 197.07
  Q 100.58 197.15 100.13 196.93
  Q 99.65 196.70 99.08 196.59
  Q 98.68 196.52 98.56 196.91
  Q 98.42 197.39 98.04 197.75
  C 98.69 184.29 93.48 170.80 94.66 158.09
  C 96.25 141.07 107.19 125.61 120.78 115.79
  C 141.12 101.09 162.34 104.03 185.27 109.49
  Z"
/>
<path fill="#a76e9a" d="
  M 185.27 109.49
  C 203.71 111.69 221.32 109.92 234.56 125.47
  C 238.32 129.87 241.84 137.28 245.55 141.95
  Q 250.25 147.86 258.49 153.13
  L 256.71 155.45
  A 2.00 1.99 -56.8 0 1 254.16 155.99
  Q 241.69 149.09 228.49 147.30
  C 226.10 146.97 223.22 147.47 220.57 145.91
  C 215.81 143.12 200.32 142.28 201.32 150.91
  C 201.49 152.35 202.43 153.47 202.66 155.14
  Q 202.72 155.59 202.32 155.80
  L 199.50 157.29
  L 187.75 154.04
  Q 190.46 147.36 186.02 142.46
  C 183.73 139.94 180.04 139.61 177.32 137.65
  C 169.34 131.93 174.60 118.60 180.96 113.37
  Q 183.22 111.51 185.27 109.49
  Z"
/>
<path fill="#867bb0" d="
  M 258.49 153.13
  Q 261.37 155.52 264.54 156.86
  C 262.43 158.72 265.21 161.38 266.86 162.50
  C 266.57 163.22 266.12 163.70 265.29 163.39
  C 253.46 158.93 241.32 153.81 229.51 161.73
  Q 226.85 163.51 219.51 170.22
  Q 210.53 161.65 199.50 157.29
  L 202.32 155.80
  Q 202.72 155.59 202.66 155.14
  C 202.43 153.47 201.49 152.35 201.32 150.91
  C 200.32 142.28 215.81 143.12 220.57 145.91
  C 223.22 147.47 226.10 146.97 228.49 147.30
  Q 241.69 149.09 254.16 155.99
  A 2.00 1.99 -56.8 0 0 256.71 155.45
  L 258.49 153.13
  Z"
/>
<path fill="#ffffff" d="
  M 187.75 154.04
  L 199.50 157.29
  Q 210.53 161.65 219.51 170.22
  Q 226.47 178.39 228.69 182.31
  C 235.25 193.92 244.04 206.82 258.27 209.52
  C 266.88 211.16 274.63 207.87 283.31 204.27
  Q 294.65 199.56 308.25 199.71
  Q 323.53 199.88 344.02 198.03
  C 370.55 195.62 395.44 215.94 388.72 244.37
  C 385.85 256.51 381.67 262.84 375.71 271.75
  Q 369.65 281.62 367.46 293.00
  L 366.54 293.25
  Q 364.62 292.39 364.13 290.42
  A 0.94 0.93 49.0 0 0 362.36 290.29
  L 360.61 294.64
  Q 360.40 295.15 360.05 295.57
  L 359.25 296.54
  L 358.74 296.82
  A 0.53 0.53 0.0 0 1 357.96 296.28
  Q 359.60 283.16 365.22 271.59
  C 368.16 265.54 373.06 260.76 375.43 254.55
  C 379.44 244.06 380.92 228.21 371.91 219.83
  Q 361.31 209.96 345.49 209.34
  Q 327.59 208.64 320.26 208.75
  C 312.41 207.93 302.57 207.01 294.89 209.61
  Q 281.86 214.02 271.44 216.94
  C 269.32 217.54 267.09 217.19 264.89 217.67
  C 243.56 222.29 229.81 197.93 220.29 183.22
  C 216.42 177.24 209.04 172.93 202.48 170.16
  L 197.75 167.79
  C 192.71 165.07 189.41 164.85 182.51 164.13
  Q 181.29 163.83 179.98 164.09
  Q 168.92 163.89 158.00 165.79
  Q 146.90 165.74 135.69 163.98
  Q 136.85 161.77 139.18 160.15
  C 153.38 150.24 170.27 150.13 187.75 154.04
  Z"
/>
<path fill="#1f8dbe" d="
  M 264.54 156.86
  C 272.02 160.80 281.60 163.98 287.73 169.83
  Q 275.88 170.48 266.86 162.50
  C 265.21 161.38 262.43 158.72 264.54 156.86
  Z"
/>
<path fill="#758eba" d="
  M 266.86 162.50
  Q 275.88 170.48 287.73 169.83
  Q 290.37 171.08 293.25 173.06
  C 298.54 176.71 302.92 178.65 309.15 179.43
  C 304.87 186.25 307.15 192.76 308.25 199.71
  Q 294.65 199.56 283.31 204.27
  C 274.63 207.87 266.88 211.16 258.27 209.52
  C 244.04 206.82 235.25 193.92 228.69 182.31
  Q 226.47 178.39 219.51 170.22
  Q 226.85 163.51 229.51 161.73
  C 241.32 153.81 253.46 158.93 265.29 163.39
  C 266.12 163.70 266.57 163.22 266.86 162.50
  Z"
/>
<path fill="#bdc2b7" d="
  M 179.98 164.09
  Q 180.59 164.83 182.00 164.46
  L 197.75 167.79
  L 202.48 170.16
  Q 208.73 185.04 209.99 201.37
  C 201.56 195.19 197.61 191.90 187.75 191.59
  C 158.14 190.63 155.27 225.61 167.93 244.09
  C 171.04 248.62 178.89 259.34 185.00 258.10
  Q 189.57 263.60 191.55 265.20
  Q 194.96 267.98 203.19 272.59
  Q 205.46 273.86 206.46 271.75
  L 207.00 273.71
  Q 202.81 284.82 195.96 294.50
  L 180.61 285.54
  C 172.49 280.54 161.69 277.26 152.75 273.71
  Q 152.79 272.97 153.36 272.79
  Q 153.76 272.67 153.91 272.29
  C 154.44 270.95 154.58 270.06 154.47 268.58
  Q 153.43 254.94 152.88 241.21
  A 0.16 0.16 0.0 0 0 152.56 241.19
  Q 152.44 241.86 152.37 242.20
  Q 152.30 242.60 152.25 242.20
  C 151.76 237.58 151.01 233.99 151.53 229.32
  C 152.13 223.92 151.55 217.86 151.11 212.45
  Q 150.89 209.72 151.41 206.43
  Q 152.03 202.55 152.89 190.81
  Q 152.94 190.18 152.18 189.26
  Q 151.86 188.87 151.92 188.37
  Q 152.47 183.34 150.37 178.96
  Q 148.92 175.93 148.64 174.42
  Q 148.18 171.96 148.05 169.52
  L 158.00 165.79
  Q 168.92 163.89 179.98 164.09
  Z"
/>
<path fill="#755890" d="
  M 179.98 164.09
  Q 181.29 163.83 182.51 164.13
  Q 182.14 164.22 182.00 164.46
  Q 180.59 164.83 179.98 164.09
  Z"
/>
<path fill="#01a2bb" d="
  M 393.21 287.00
  Q 391.82 286.57 391.18 285.20
  Q 390.98 284.78 390.51 284.83
  C 388.91 284.98 390.19 283.40 390.63 283.10
  Q 390.79 283.00 390.64 282.88
  Q 390.49 282.75 390.33 282.78
  Q 390.06 282.82 389.88 282.60
  Q 388.45 280.79 386.77 279.24
  C 383.15 275.91 380.90 273.03 375.71 271.75
  C 381.67 262.84 385.85 256.51 388.72 244.37
  C 395.44 215.94 370.55 195.62 344.02 198.03
  Q 323.53 199.88 308.25 199.71
  C 307.15 192.76 304.87 186.25 309.15 179.43
  Q 338.16 181.44 365.76 170.78
  C 372.24 168.28 380.47 166.35 387.31 166.80
  C 400.65 167.66 413.39 175.18 421.33 185.74
  C 433.48 201.89 432.81 226.14 423.92 243.41
  C 415.90 258.99 400.39 270.23 393.21 287.00
  Z"
/>
<path fill="#cebaaf" d="
  M 148.05 169.52
  Q 148.18 171.96 148.64 174.42
  Q 148.92 175.93 150.37 178.96
  Q 152.47 183.34 151.92 188.37
  Q 151.86 188.87 152.18 189.26
  Q 152.94 190.18 152.89 190.81
  Q 152.03 202.55 151.41 206.43
  Q 150.89 209.72 151.11 212.45
  C 151.55 217.86 152.13 223.92 151.53 229.32
  C 151.01 233.99 151.76 237.58 152.25 242.20
  Q 152.30 242.60 152.37 242.20
  Q 152.44 241.86 152.56 241.19
  A 0.16 0.16 0.0 0 1 152.88 241.21
  Q 153.43 254.94 154.47 268.58
  C 154.58 270.06 154.44 270.95 153.91 272.29
  Q 153.76 272.67 153.36 272.79
  Q 152.79 272.97 152.75 273.71
  Q 141.60 269.76 133.60 261.45
  C 125.14 252.67 124.42 242.80 126.65 231.36
  C 128.55 221.64 134.37 213.72 134.70 203.52
  C 135.14 189.92 133.20 175.60 148.05 169.52
  Z"
/>
<path fill="#76c1cc" d="
  M 202.48 170.16
  C 209.04 172.93 216.42 177.24 220.29 183.22
  C 229.81 197.93 243.56 222.29 264.89 217.67
  C 267.09 217.19 269.32 217.54 271.44 216.94
  Q 281.86 214.02 294.89 209.61
  C 302.57 207.01 312.41 207.93 320.26 208.75
  Q 318.05 213.45 319.11 218.83
  C 319.78 222.18 322.27 224.82 322.00 229.21
  Q 307.50 226.45 293.74 231.74
  C 287.36 234.19 278.74 238.77 271.76 240.19
  C 250.41 244.52 236.52 231.00 223.06 217.20
  Q 219.75 213.81 209.99 201.37
  Q 208.73 185.04 202.48 170.16
  Z"
/>
<path fill="#ffffff" d="
  M 209.99 201.37
  Q 219.75 213.81 223.06 217.20
  C 236.52 231.00 250.41 244.52 271.76 240.19
  C 278.74 238.77 287.36 234.19 293.74 231.74
  Q 307.50 226.45 322.00 229.21
  C 334.07 233.13 342.86 241.93 343.44 254.73
  Q 344.69 282.27 324.35 296.21
  C 315.24 302.46 305.80 304.17 295.75 299.71
  Q 287.50 295.20 280.34 289.17
  C 273.53 283.42 267.80 279.48 261.20 275.75
  C 242.80 265.35 225.78 280.29 207.00 273.71
  L 206.46 271.75
  L 206.52 268.99
  A 1.15 1.13 22.4 0 0 206.14 268.10
  L 199.21 261.75
  Q 202.02 262.16 204.49 263.48
  C 211.33 267.14 218.26 268.80 225.85 266.11
  C 239.92 261.13 252.25 260.02 265.45 267.90
  C 274.33 273.20 282.00 279.29 290.25 285.47
  Q 297.67 291.01 302.06 292.21
  C 322.58 297.82 334.65 274.69 335.36 257.70
  C 335.98 242.93 320.39 235.53 307.68 237.14
  Q 294.21 238.85 286.17 243.15
  C 272.24 250.59 257.59 252.92 243.17 244.84
  C 233.18 239.24 225.25 233.05 217.60 223.85
  C 210.79 215.66 199.88 199.94 188.02 199.97
  C 177.63 199.99 170.61 206.02 169.81 216.19
  C 168.70 230.30 176.21 243.79 186.84 252.19
  Q 191.17 255.62 193.37 258.09
  Q 190.49 257.65 188.82 258.57
  A 0.39 0.38 75.5 0 1 188.25 258.23
  L 188.25 257.82
  A 0.50 0.49 4.0 0 0 187.82 257.33
  Q 185.92 257.08 185.00 258.10
  C 178.89 259.34 171.04 248.62 167.93 244.09
  C 155.27 225.61 158.14 190.63 187.75 191.59
  C 197.61 191.90 201.56 195.19 209.99 201.37
  Z"
/>
<path fill="#ac5f7f" d="
  M 124.92 198.16
  Q 124.67 207.65 122.75 214.00
  C 120.74 220.63 115.73 229.97 114.38 237.45
  C 112.89 245.65 113.34 253.83 117.55 261.18
  C 129.31 281.75 151.79 284.33 172.58 291.83
  Q 169.30 297.08 167.22 302.89
  Q 167.05 303.38 166.62 303.69
  Q 165.99 304.15 165.70 304.76
  Q 165.46 305.26 164.94 305.48
  Q 163.72 305.98 163.27 307.25
  A 1.48 1.44 -5.7 0 1 162.62 308.02
  L 161.25 308.79
  C 147.39 304.17 134.57 304.52 118.75 304.49
  C 110.69 304.48 102.40 302.82 95.35 298.70
  C 84.35 292.27 74.89 280.72 72.97 267.96
  C 70.77 253.28 72.73 239.58 80.77 227.05
  C 87.42 216.69 95.67 211.40 98.04 197.75
  Q 98.42 197.39 98.56 196.91
  Q 98.68 196.52 99.08 196.59
  Q 99.65 196.70 100.13 196.93
  Q 100.58 197.15 101.07 197.07
  C 110.04 195.63 116.81 197.30 124.92 198.16
  Z"
/>
<path fill="#b4e5e5" d="
  M 199.21 261.75
  L 193.37 258.09
  Q 191.17 255.62 186.84 252.19
  C 176.21 243.79 168.70 230.30 169.81 216.19
  C 170.61 206.02 177.63 199.99 188.02 199.97
  C 199.88 199.94 210.79 215.66 217.60 223.85
  C 225.25 233.05 233.18 239.24 243.17 244.84
  C 257.59 252.92 272.24 250.59 286.17 243.15
  Q 294.21 238.85 307.68 237.14
  C 320.39 235.53 335.98 242.93 335.36 257.70
  C 334.65 274.69 322.58 297.82 302.06 292.21
  Q 297.67 291.01 290.25 285.47
  C 282.00 279.29 274.33 273.20 265.45 267.90
  C 252.25 260.02 239.92 261.13 225.85 266.11
  C 218.26 268.80 211.33 267.14 204.49 263.48
  Q 202.02 262.16 199.21 261.75
  Z"
/>
<path fill="#65c2b8" d="
  M 320.26 208.75
  Q 327.59 208.64 345.49 209.34
  Q 361.31 209.96 371.91 219.83
  C 380.92 228.21 379.44 244.06 375.43 254.55
  C 373.06 260.76 368.16 265.54 365.22 271.59
  Q 359.60 283.16 357.96 296.28
  A 0.53 0.53 0.0 0 0 358.74 296.82
  L 359.25 296.54
  C 358.94 297.29 358.54 297.70 358.44 298.54
  Q 357.07 309.76 351.75 319.71
  Q 345.21 327.80 341.35 330.12
  C 324.95 339.98 305.44 340.32 289.50 329.71
  Q 290.14 328.94 291.30 328.37
  A 0.59 0.58 -31.1 0 0 291.52 327.50
  C 290.09 325.52 291.36 324.06 291.51 322.34
  Q 291.97 317.33 293.94 312.69
  A 0.32 0.31 11.2 0 1 294.23 312.50
  Q 294.36 312.50 294.50 312.50
  Q 295.04 312.52 294.78 312.05
  L 294.54 311.58
  Q 294.29 311.12 294.58 310.68
  L 295.90 308.69
  A 1.13 1.12 -38.9 0 0 296.01 307.70
  L 294.53 303.72
  Q 294.30 303.10 294.75 302.63
  Q 295.62 301.72 294.94 300.63
  Q 294.74 300.30 295.12 300.24
  Q 295.58 300.18 295.75 299.71
  C 305.80 304.17 315.24 302.46 324.35 296.21
  Q 344.69 282.27 343.44 254.73
  C 342.86 241.93 334.07 233.13 322.00 229.21
  C 322.27 224.82 319.78 222.18 319.11 218.83
  Q 318.05 213.45 320.26 208.75
  Z"
/>
<path fill="#76c1cc" d="
  M 295.75 299.71
  Q 295.58 300.18 295.12 300.24
  Q 294.74 300.30 294.94 300.63
  Q 295.62 301.72 294.75 302.63
  Q 294.30 303.10 294.53 303.72
  L 296.01 307.70
  A 1.13 1.12 -38.9 0 1 295.90 308.69
  L 294.58 310.68
  Q 294.29 311.12 294.54 311.58
  L 294.78 312.05
  Q 295.04 312.52 294.50 312.50
  Q 294.36 312.50 294.23 312.50
  A 0.32 0.31 11.2 0 0 293.94 312.69
  Q 291.97 317.33 291.51 322.34
  C 291.36 324.06 290.09 325.52 291.52 327.50
  A 0.59 0.58 -31.1 0 1 291.30 328.37
  Q 290.14 328.94 289.50 329.71
  L 280.88 323.16
  C 274.71 315.89 267.98 305.61 261.47 300.78
  C 248.73 291.32 236.02 295.17 222.23 300.44
  C 213.03 303.07 203.23 300.30 195.96 294.50
  Q 202.81 284.82 207.00 273.71
  C 225.78 280.29 242.80 265.35 261.20 275.75
  C 267.80 279.48 273.53 283.42 280.34 289.17
  Q 287.50 295.20 295.75 299.71
  Z"
/>
<path fill="#1f8dbe" d="
  M 375.71 271.75
  C 380.90 273.03 383.15 275.91 386.77 279.24
  Q 388.45 280.79 389.88 282.60
  Q 390.06 282.82 390.33 282.78
  Q 390.49 282.75 390.64 282.88
  Q 390.79 283.00 390.63 283.10
  C 390.19 283.40 388.91 284.98 390.51 284.83
  Q 390.98 284.78 391.18 285.20
  Q 391.82 286.57 393.21 287.00
  Q 390.22 296.14 389.96 305.75
  Q 389.42 306.08 389.01 305.68
  Q 388.68 305.36 388.40 305.71
  L 387.90 306.32
  Q 387.68 306.58 387.37 306.45
  Q 379.11 302.94 373.34 296.18
  Q 372.08 294.71 367.46 293.00
  Q 369.65 281.62 375.71 271.75
  Z"
/>
<path fill="#ffffff" d="
  M 180.61 285.54
  L 195.96 294.50
  C 203.23 300.30 213.03 303.07 222.23 300.44
  L 223.86 309.12
  Q 213.82 312.55 202.20 309.18
  L 175.71 292.25
  L 180.61 285.54
  Z"
/>
<path fill="#b05aa3" d="
  M 172.58 291.83
  Q 174.33 292.46 175.71 292.25
  L 202.20 309.18
  Q 205.72 316.90 208.61 324.80
  C 210.52 330.03 212.94 333.15 217.13 336.26
  Q 217.19 336.30 217.20 336.38
  Q 217.23 336.54 217.18 336.69
  Q 217.09 336.98 217.32 337.20
  C 226.14 345.74 240.54 345.76 251.73 343.11
  C 262.11 340.65 266.58 333.28 271.56 324.71
  Q 274.32 328.37 277.77 331.21
  Q 281.94 336.03 287.03 339.87
  C 285.31 341.67 283.48 342.77 282.36 344.96
  Q 280.52 348.55 279.37 352.41
  C 278.10 356.64 280.00 362.58 280.98 366.81
  C 281.50 369.06 281.12 369.87 279.33 371.11
  Q 275.94 373.46 273.13 373.70
  Q 256.97 375.41 240.57 374.94
  C 237.95 374.87 232.97 373.67 230.03 372.50
  Q 209.69 364.44 201.11 343.91
  C 198.98 338.79 197.12 333.56 193.34 329.47
  Q 180.07 315.12 161.25 308.79
  L 162.62 308.02
  A 1.48 1.44 -5.7 0 0 163.27 307.25
  Q 163.72 305.98 164.94 305.48
  Q 165.46 305.26 165.70 304.76
  Q 165.99 304.15 166.62 303.69
  Q 167.05 303.38 167.22 302.89
  Q 169.30 297.08 172.58 291.83
  Z"
/>
<path fill="#6d68ae" d="
  M 367.46 293.00
  Q 372.08 294.71 373.34 296.18
  Q 379.11 302.94 387.37 306.45
  Q 387.68 306.58 387.90 306.32
  L 388.40 305.71
  Q 388.68 305.36 389.01 305.68
  Q 389.42 306.08 389.96 305.75
  L 389.71 325.50
  Q 381.57 324.21 374.00 325.00
  Q 368.18 325.61 363.72 323.19
  C 367.79 313.47 367.11 306.48 366.98 294.21
  Q 366.97 293.88 366.74 293.64
  Q 366.57 293.48 366.54 293.25
  L 367.46 293.00
  Z"
/>
<path fill="#867bb0" d="
  M 271.56 324.71
  C 266.58 333.28 262.11 340.65 251.73 343.11
  C 240.54 345.76 226.14 345.74 217.32 337.20
  Q 217.09 336.98 217.18 336.69
  Q 217.23 336.54 217.20 336.38
  Q 217.19 336.30 217.13 336.26
  C 212.94 333.15 210.52 330.03 208.61 324.80
  Q 205.72 316.90 202.20 309.18
  Q 213.82 312.55 223.86 309.12
  Q 228.06 307.96 232.28 306.85
  C 253.11 301.41 259.80 309.88 271.56 324.71
  Z"
/>
<path fill="#ffffff" d="
  M 351.75 319.71
  L 361.50 325.54
  Q 361.61 326.20 361.22 326.73
  Q 348.51 343.87 327.54 348.68
  L 321.23 346.97
  Q 320.82 346.86 320.50 347.14
  L 317.49 349.80
  C 306.98 350.96 295.46 346.05 287.03 339.87
  Q 281.94 336.03 277.77 331.21
  Q 278.89 326.89 280.88 323.16
  L 289.50 329.71
  C 305.44 340.32 324.95 339.98 341.35 330.12
  Q 345.21 327.80 351.75 319.71
  Z"
/>
<path fill="#755890" d="
  M 363.72 323.19
  Q 368.18 325.61 374.00 325.00
  Q 381.57 324.21 389.71 325.50
  C 389.93 330.38 390.47 335.64 390.01 340.18
  C 386.53 374.75 347.67 401.70 314.15 397.83
  C 301.64 396.39 290.55 389.52 281.53 380.87
  Q 280.04 379.45 277.29 377.36
  Q 275.27 375.83 273.13 373.70
  Q 275.94 373.46 279.33 371.11
  C 281.12 369.87 281.50 369.06 280.98 366.81
  C 280.00 362.58 278.10 356.64 279.37 352.41
  Q 280.52 348.55 282.36 344.96
  C 283.48 342.77 285.31 341.67 287.03 339.87
  C 295.46 346.05 306.98 350.96 317.49 349.80
  Q 322.76 350.65 327.54 348.68
  Q 348.51 343.87 361.22 326.73
  Q 361.61 326.20 361.50 325.54
  Q 363.23 324.26 363.72 323.19
  Z"
/>
</svg>
