<?xml version="1.0"?>
<svg xmlns:rdf="http://www.w3.org/1999/02/22-rdf-syntax-ns#" xmlns="http://www.w3.org/2000/svg" xmlns:cc="http://web.resource.org/cc/" xmlns:xlink="http://www.w3.org/1999/xlink" xmlns:dc="http://purl.org/dc/elements/1.1/" xmlns:svg="http://www.w3.org/2000/svg" id="Layer_1" style="enable-background:new 0 0 404.794 298.007" xml:space="preserve" viewBox="0 0 404.794 298.007" version="1.1" y="0px" x="0px">
<g clip-rule="evenodd" fill-rule="evenodd">
	<path d="m384.28 10.816c-1.593 1.264-3.918 0.074-5.967 0-8.608-0.312-18.037 0.479-26.854 0-0.198-1.78-1.363-4.2-0.746-5.595-0.638-0.854-2.102-0.882-3.356-1.119 0.606 2.541 2.4 7.019 3.356 10.443-15.587-0.265-32.48 0.295-46.995 0.373-2.555-7.331 5.237-8.961 11.562-9.698-0.436 1.756 1.096 2.902 1.865 4.476-0.686 0.931-2.035 1.197-2.238 2.611 2.23 1.39 2.843-0.559 3.357-1.492 1.18 0.686 2.26 3.039 4.476 1.492-0.679-1.311-1.941-2.038-2.984-2.984-0.108-1.601 1.758-1.227 1.865-2.611-1.781-0.963-3.89 0.489-5.595-0.746 1.349-1.733 3.989-0.818 5.968-1.119 4.794-0.728 12.933-1.08 19.768-0.746 1.136 0.017 1.45-0.788 2.237-1.119 0.209-0.724 1.686 0.713 2.238 0.373 0.057-0.035-0.052-0.74 0-0.746 6.843-0.725 17.641 0.446 23.87 1.492 6.15 1.034 10.18 4.473 14.17 6.715zm-23.5-5.221c0.619 0.625 2.189 0.297 3.356 0.373-0.628 1.734-3.047 1.677-3.729 3.357 2.098 0.462 5.938 0.923 7.46 0.746-0.028-0.65 0.083-1.16 0.373-1.492-1.031-1.278-3.449 0.889-3.73-0.746 1.215-1.148 3.935-0.791 3.73-3.356-2.898 0.287-4.737-0.485-7.46-0.373v1.491zm-33.56 1.119c0.212 1.901 2.981 1.246 2.983 3.357 0.105 1.135-1.194 1.45-0.373 2.238 0.971 0.372 2.244 0.08 3.357-0.373-1.635-3.353 1.938-3.447 2.983-5.222-2.1-0.943-5.91-0.192-8.95 0zm-3.73 2.611c0.517 1.042 3.896 2.062 3.729-0.373-0.63-1.211-3.43-0.879-3.73 0.373z" fill="#FFFFF7"/>
	<path d="m360.78 4.103c2.723-0.112 4.562 0.66 7.46 0.373 0.204 2.566-2.516 2.208-3.73 3.356 0.281 1.635 2.699-0.532 3.73 0.746-0.29 0.332-0.401 0.842-0.373 1.492-1.521 0.177-5.362-0.284-7.46-0.746 0.683-1.68 3.102-1.623 3.729-3.357-1.167-0.076-2.737 0.251-3.356-0.373v-1.491z"/>
	<path d="m336.17 6.714c-1.045 1.774-4.618 1.869-2.983 5.222-1.113 0.453-2.387 0.745-3.357 0.373-0.821-0.788 0.479-1.103 0.373-2.238-0.002-2.111-2.771-1.456-2.983-3.357 3.04-0.192 6.85-0.943 8.95 0z"/>
	<path d="m303.35 19.395c-14.97-0.802-35.169-0.186-49.979-0.373-0.673-7.498 5.453-10.531 12.309-11.189 9.779-0.939 24.324 0.989 32.449 0.746 3.79 1.555 3.42 7.265 5.22 10.816zm-29.84-6.341c0.49 1.5 0.385 3.594 2.238 3.73 1.05-0.442 0.198-2.786 1.865-2.611-0.146 1.514 0.136 2.599 1.491 2.611 1.796-1.188 1.296-4.672 3.357-5.595-0.619-0.625-2.19-0.297-3.357-0.373 0.226 0.821 0.938 2.78-0.373 2.984-0.425-0.818-0.962-1.524-0.745-2.984h-1.865c-0.979 0.702 1.446 1.727-0.373 2.238-1.23-0.215-0.535-1.408-0.373-2.238-1.201-0.166-2.021-0.714-3.356-0.746-0.93 1.572 1.04 1.718 1.47 2.984z" fill="#FFFFF7"/>
	<path d="m241.43 8.206h0.746v0.746h-0.746v-0.746z"/>
	<path d="m327.22 8.952c0.166 2.435-3.213 1.415-3.729 0.373 0.3-1.252 3.1-1.584 3.73-0.373z"/>
	<path d="m388.01 9.325c0.459 0.163 0.766 0.477 0.746 1.119-0.46-0.163-0.77-0.478-0.75-1.119z"/>
	<path d="m272.02 10.071c1.336 0.031 2.155 0.58 3.356 0.746-0.162 0.83-0.857 2.022 0.373 2.238 1.819-0.511-0.605-1.536 0.373-2.238h1.865c-0.217 1.46 0.32 2.166 0.745 2.984 1.311-0.204 0.599-2.163 0.373-2.984 1.167 0.076 2.738-0.251 3.357 0.373-2.062 0.922-1.562 4.407-3.357 5.595-1.355-0.012-1.638-1.097-1.491-2.611-1.667-0.175-0.815 2.168-1.865 2.611-1.854-0.136-1.748-2.23-2.238-3.73-0.42-1.267-2.39-1.413-1.48-2.984z"/>
	<path d="m249.26 13.054c1.942 2.412 3.06 7.629 4.103 9.697h-52.216c0.286-3.194 1.554-5.408 2.61-7.832 15.32-0.332 31.96-4.357 45.51-1.865zm-27.22 1.492c0.543 2.44 2.645 3.322 2.983 5.967 3.101-0.256 1.996-4.717 4.476-5.594-1.176-0.75-2.072-0.798-2.983-0.373 0.06 1.178 0.013 2.251-0.746 2.611-0.867-0.5-0.576-2.159-1.119-2.984-0.99 0.004-2.13-0.141-2.61 0.373z" fill="#FFFFF7"/>
	<path d="m224.65 14.173c0.543 0.825 0.252 2.484 1.119 2.984 0.759-0.36 0.806-1.433 0.746-2.611 0.911-0.425 1.808-0.377 2.983 0.373-2.479 0.877-1.375 5.338-4.476 5.594-0.339-2.645-2.44-3.527-2.983-5.967 0.48-0.514 1.62-0.369 2.61-0.373z"/>
	<path d="m354.07 14.546c0.161-0.834 1.839-0.151 2.611-0.373-0.52 0.571-1.93 1.059-2.61 0.373z" fill="#FFFFF7"/>
	<path d="m388.38 14.173c-0.82 1.139-2.38-0.43 0 0z" fill="#FFFFF7"/>
	<path d="m200.03 15.665c1.39-1.302 1.89 1.017 0 0z" fill="#FFFFF7"/>
	<path d="m396.96 16.411c1.725 32.47 0.903 63.405 1.492 102.2 0.151 10.016 0.545 21.856 0.373 33.94-1.076-0.705-1.032-2.501-1.119-3.729-0.157-2.207 0.017-7.275 0-11.562-0.058-14.388-0.762-32.226-0.746-49.605 0.021-22.396 0.574-47.82-0.746-70.12-31.1-1.078-58.073 0.6-86.903 0-1.41-0.029-4.233 0.929-5.222-1.119 29.68-0.09 62.96-0.993 92.88-0.005z" fill="#FFFFF7"/>
	<path d="m196.68 16.411c3.12 2.49 2.104 6.832 4.476 10.07-13.113-0.141-34.829-0.219-51.471 0.373 2.214-3.132 5.086-5.606 7.833-8.206 3.698-1.408 7.298-2.145 11.935-1.865 3.25 0.196 6.723-0.56 9.697-0.373 5.95 0.377 12.41-1.207 17.52 0.001zm-26.86 2.611c0.979 2.502 0.374 6.589 4.849 5.595 1.884-1.433 0.922-3.475 1.865-5.595h-2.611c0.248 1.029 1.229 4.587-0.746 4.476-1.6-0.952 0.413-3.199-0.746-4.476-0.29 0.827-1.8-1.23-2.61 0z" fill="#FFFFF7"/>
	<path d="m200.03 17.157c0.749-0.127 1.167 0.076 1.119 0.746h-1.119v-0.746z" fill="#FFFFF7"/>
	<path d="m399.2 17.903c0.458 0.163 0.766 0.478 0.745 1.119-1.29 0.325-1.27-0.574-0.74-1.119z" fill="#FFFFF7"/>
	<path d="m330.95 18.276c-0.45 1.104-1.83 1.029-2.61 1.119-2.942 0.341-6.474-0.035-10.07 0-3.647 0.035-7.529-0.026-11.562 0-0.635 0.137-0.704-0.291-0.746-0.746 7.85-0.56 15.66-0.091 24.99-0.373z" fill="#FFFFF7"/>
	<path d="m374.96 18.649c4.726-0.869 11.064-0.125 16.411-0.373-3.63 1.464-11.83 0.562-16.41 0.373z" fill="#FFFFF7"/>
	<path d="m392.11 18.649c0.649-0.506 1.62-0.57 2.237-0.373 2.11 0.675 1.637 11.205 1.865 16.038 0.37 7.822 0.031 12.911 0 18.648-0.188 34.396 0.828 70.219 0.746 102.2-1.277-2.223-0.661-5.188-0.746-7.832-1.119-34.882-0.031-75.599-1.119-113.76-0.063-2.233-0.34-5.561-0.373-7.459-0.09-4.893 1.02-7.793-2.62-7.462z" fill="#FFFFF7"/>
	<path d="m172.43 19.022c1.159 1.276-0.854 3.523 0.746 4.476 1.974 0.111 0.994-3.447 0.746-4.476h2.611c-0.943 2.12 0.019 4.162-1.865 5.595-4.475 0.994-3.87-3.093-4.849-5.595 0.8-1.23 2.31 0.827 2.6 0z"/>
	<path d="m377.57 30.211c-2.469-0.018-5.179 0.205-6.714-0.746-10.593 1.122-28.168 0.625-40.654 0.746-1.211-4.39-0.938-9.332 2.611-10.816 12.668-0.392 26.904 0.727 39.162 0 1.226 0.639 2.064 1.665 3.356 2.238 0.45 3.905 1.48 4.954 2.23 8.578zm-29.47-7.086c0.29 0.083 0.434 0.312 0.373 0.746 1.229 1.102 1.863-0.934 2.61 0 0.247 1.739-0.588 2.396-0.746 3.729 1.073 0.366 2.963 1.241 4.103 0.373-0.463-1.043-1.998-2.956-0.745-4.476 0.66 0.334 0.475 1.514 1.864 1.119 0.803-0.316 1.319-0.919 1.119-2.238-2.17-0.877-7.98-2.01-8.56 0.747z" fill="#FFFFF7"/>
	<path d="m393.61 20.514c0.488 17.326 0.444 34.607 0.745 51.098 0.549 29.957 0.691 54.407 0.373 86.157-1.406-0.546-0.749-2.416-0.745-3.356 0.114-34.602-1.349-71.339-1.119-108.16 0.052-8.4 0.558-16.832-0.746-24.989-5.226-1.752-10.468 1.104-14.919-0.373 1.058 0.351 4.602-0.353 5.595-0.373 3.52-0.074 6.66-0.199 10.83-0.001z" fill="#FFFFF7"/>
	<path d="m254.49 20.887c17.404-1.271 36.312 0.69 52.59-0.373-1.485 1.898-4.413 1.17-6.341 1.119-10.58-0.28-30.86-0.144-46.25-0.746z" fill="#FFFFF7"/>
	<path d="m329.08 20.514c-0.533 2.362-1.954 2.408-3.73 1.119-4.672-0.633-11.944-0.363-16.783 0-0.434 0.061-0.664-0.083-0.746-0.373-0.061-0.434 0.082-0.664 0.373-0.746h20.89z" fill="#FFFFF7"/>
	<path d="m356.68 22.379c0.2 1.319-0.316 1.921-1.119 2.238-1.39 0.395-1.204-0.785-1.864-1.119-1.253 1.52 0.282 3.433 0.745 4.476-1.14 0.868-3.029-0.007-4.103-0.373 0.158-1.333 0.993-1.99 0.746-3.729-0.747-0.934-1.382 1.102-2.61 0 0.061-0.434-0.083-0.664-0.373-0.746 0.57-2.758 6.38-1.625 8.57-0.747z"/>
	<path d="m391.37 22.379c1.487 28.354 0.727 67.62 1.119 92.871 0.188 12.111 1.14 22.747 0.746 34.687-1.805-1.256-0.671-3.722-0.746-5.595-1.584-39.498-0.494-79.063-1.492-121.59-3.639-0.567-5.148 0.152-10.816 0-0.061-0.434 0.083-0.664 0.373-0.746 2.46-0.544 7.32-0.12 10.82 0.375z" fill="#FFFFF7"/>
	<path d="m256.35 22.751c1.994-0.865 5.591-0.127 8.205-0.373-2 0.866-5.6 0.128-8.21 0.373z" fill="#FFFFF7"/>
	<path d="m265.3 22.751c0.639-0.854 2.847-0.137 4.103-0.373-0.63 0.854-2.84 0.138-4.1 0.373z" fill="#FFFFF7"/>
	<path d="m272.02 22.751c1.252-0.861 4.097-0.13 5.968-0.373-1.26 0.863-4.1 0.131-5.97 0.373z" fill="#FFFFF7"/>
	<path d="m326.1 23.498c2.228 2.497 1.572 7.877 4.103 10.07-4.032 1.268-9.89-0.225-14.173 0-1.668 0.088-3.151 0.935-4.849 1.119-11.325 1.229-23.336-1.236-31.703 0-0.859-3.928-4.513-8.702-0.373-11.189 0.728-0.437 1.967-0.22 3.357-0.373 4.505-0.495 14.417-0.296 19.395-0.373 6.744-0.103 12.638 0.336 17.902 0.373 2.25 0.016 4.41-0.642 6.34 0.373zm-27.6 3.73c1.233 1.813 0.576 1.533 0.373 4.103 2.014 1.119 5.858 0.967 5.967-1.865-0.11-0.76-0.747-0.994-1.119-1.492 0.654-0.341 1.296-0.693 1.119-1.865-1.3-0.999-5.55-1.216-6.34 1.119z" fill="#FFFFF7"/>
	<path d="m276.49 24.244c-0.988 2.875-4.29 0.906-6.341 0.746-15.425-1.207-34.938 0-51.471 0-4.295 0-8.509 0.162-13.054 0-0.918-0.033-2.81 0.676-3.356-0.746 26.32 0.464 51.14-0.677 74.22 0z" fill="#FFFFF7"/>
	<path d="m304.84 26.108c0.177 1.171-0.465 1.524-1.119 1.865 0.372 0.499 1.009 0.732 1.119 1.492-0.108 2.832-3.953 2.983-5.967 1.865 0.203-2.569 0.86-2.29-0.373-4.103 0.79-2.334 5.04-2.117 6.34-1.119zm-2.24 1.12c-0.227-0.215-1.77-0.873-1.865 0 0.22 0.214 1.76 0.872 1.86 0zm0 2.61c-0.377-0.618-1.584-0.405-2.238-0.746-0.64 1.424 2.32 2.259 2.24 0.746z"/>
	<path d="m382.42 25.735c-1.241 1.126-5.978-0.253-1.492 0 1.01 0.034 0.75-0.621 1.49 0z" fill="#FFFFF7"/>
	<path d="m387.64 25.362c1.67 15.792 0.54 31.229 0.746 45.13 0.49 33.125 1.271 58.202 1.119 91.752-1.375-1.769-0.725-4.272-0.746-6.341-0.286-26.913-1.17-57.995-1.119-85.784 0.027-14.919-0.158-29.628-0.373-44.011-0.457 0.119-2.304-0.06-1.119-0.373 0.33-0.286 0.84-0.398 1.49-0.37z" fill="#FFFFF7"/>
	<path d="m229.12 26.108c-6.157 0.765-19.076 0.249-26.108 0.373 8.2-0.817 18.32-0.208 26.11-0.373z" fill="#FFFFF7"/>
	<path d="m274.25 27.228c2.404 2.942 3.099 7.593 5.222 10.816-15.455-0.712-31.092 0.213-49.605 0-0.745-2.114-0.798-4.92-1.864-6.713 0.934-1.801 1.576-3.893 3.356-4.849 13.51 1.521 28.56-1.47 42.89 0.746zm-26.1 2.237c-0.002 1.244 1.213 1.273 1.118 2.611 0.729 2.069-1.65 2.266-0.746 3.356 1.977-0.274 6.449 1.183 7.087-1.119-0.503-0.74-2.604 0.117-2.61-1.119 0.277-1.09 2.013-0.722 1.864-2.238-0.15-2.413-4.7-2.161-6.71-1.491z" fill="#FFFFF7"/>
	<path d="m300.74 27.228c0.096-0.873 1.639-0.215 1.865 0-0.1 0.872-1.64 0.214-1.86 0z" fill="#FFFFF7"/>
	<path d="m226.89 27.228c0.5 0.245 0.694 0.797 0.746 1.492-1.722 1.469-4.304-1.309-7.833-0.373-0.884 0.309-1.718-0.525-0.373-0.373 2.43-0.288 5.33-0.125 7.45-0.746z" fill="#FFFFF7"/>
	<path d="m386.15 27.228c0.217 24.873 0.746 49.699 0.746 73.476 0 21.772 0.815 48.76 0.373 69-1.706-0.882-1.082-4.456-1.119-7.087-0.3-21.326 0.127-43.53-0.373-63.405-0.558-22.181-0.846-46.749-0.746-70.492-1.188-1.049-4.757 0.281-5.967-0.746 1.04-1.562 4.85-0.365 7.09-0.739z" fill="#FFFFF7"/>
	<path d="m180.26 28.346c-2.847 2.16-6.485 0.729-9.697 0.746-7.456 0.038-15.85 0.406-24.989 0 1.377-1.571 5.504-0.688 7.833-0.746 8.26-0.206 17.06-1.047 26.86 0z" fill="#FFFFF7"/>
	<path d="m203.02 27.6c-1.98 1.143-3.59-0.464 0 0z" fill="#FFFFF7"/>
	<path d="m204.51 28.346c-0.062-0.809 1.323-0.169 1.865-0.373 0.06 0.809-1.33 0.169-1.87 0.373z" fill="#FFFFF7"/>
	<path d="m216.44 27.973c-0.592-0.218-8.233 1.464-9.324 0.373 0.74 0.745 7.58-1.323 9.32-0.373z" fill="#FFFFF7"/>
	<path d="m254.86 30.957c0.148 1.516-1.587 1.148-1.864 2.238 0.007 1.236 2.107 0.379 2.61 1.119-0.638 2.302-5.11 0.844-7.087 1.119-0.904-1.091 1.475-1.288 0.746-3.356 0.095-1.338-1.12-1.367-1.118-2.611 2.01-0.671 6.56-0.923 6.71 1.491zm-2.24-0.373c-0.706 0.084-0.823-0.42-1.492-0.373-0.52 1.66 1.71 2.02 1.49 0.373z"/>
	<path d="m300.36 29.092c0.654 0.341 1.861 0.128 2.238 0.746 0.08 1.513-2.88 0.678-2.24-0.746z" fill="#FFFFF7"/>
	<path d="m229.12 41.027c-3.17 0.295-6.251-0.367-9.324-0.373-5.162-0.01-10.19 0.735-16.038 0.746-9.205 0.017-18.83-1.068-29.092 0 1.724-3.272 2.07-11.124 7.087-11.935 3.082-0.499 7.217 0.024 11.188 0 3.736-0.023 7.6 0 11.562 0 7.539 0 19.128-1.194 21.633 1.865 1.109 1.355 0.872 3.938 1.492 5.968 0.5 1.646 1.63 2.479 1.49 3.729zm-30.21-5.594c0.221 2.496 3.437 2.082 4.476 4.476 1.178-0.066 2.225-0.262 2.238-1.492-0.103-1.309-1.39 0.936-1.492-0.373 0.722-0.895 2.094-1.139 2.238-2.611-0.1-5.689-7.83-4.146-7.47 0z" fill="#FFFFF7"/>
	<path d="m380.18 29.838c0.518-0.851 2.597-0.139 3.73-0.373 0.393 9.585 0.614 22.955 0.372 34.687-0.029 1.434 0.667 3.575-0.745 4.476 1.499 4.404 0.535 9.018 0.745 13.427 1.307 27.321 0.516 59.78 1.119 91.005-1.132-0.672-1.031-2.63-1.119-3.729-0.705-8.828-0.373-20.489-0.372-30.211 0-12.5 0.416-24.643 0-35.06-1.054-26.362-0.042-51.491-1.492-73.849-1.14 0.269-1.36-0.381-2.24-0.373z" fill="#FFFFF7"/>
	<path d="m176.91 30.211c-1.088 2.86-4.904 1.191-7.087 1.119-8.702-0.289-19.163 0.906-28.346 0 0.468-1.432 2.471-0.68 3.357-0.746 9.94-0.738 19.11-0.315 32.08-0.373z" fill="#FFFFF7"/>
	<path d="m251.13 30.211c0.669-0.048 0.786 0.457 1.492 0.373 0.22 1.647-2.01 1.287-1.49-0.373z" fill="#FFFFF7"/>
	<path d="m381.3 31.33c0.903 8.876 0.641 18.777 0.746 29.092 0.306 30.033 0.914 62.573 0.746 91.752-0.007 1.229 0.052 2.479 0 3.729-0.045 1.083 0.687 3.049-0.746 3.729-0.273-25.87-0.285-51.344-0.746-82.427-0.027-1.861-0.508-3.915 0.373-5.595-0.502-0.854-0.595-1.174-0.746-2.238-0.937-6.609-0.32-13.818-0.373-19.768-0.055-6.225 0.271-11.772 0.373-16.784-14.319-0.896-32.688 1.096-45.876 0.373-1.305-0.071-4.529 0.709-3.729-1.492 14.001 0.436 31.11-1.135 42.892 0.373 2.03-0.588 4.33-0.899 7.1-0.742z" fill="#FFFFF7"/>
	<path d="m206.37 35.433c-0.145 1.472-1.517 1.716-2.238 2.611 0.103 1.309 1.39-0.936 1.492 0.373-0.014 1.23-1.061 1.426-2.238 1.492-1.039-2.395-4.255-1.98-4.476-4.476-0.35-4.146 7.38-5.689 7.47 0zm-4.85 1.119c0.99-0.004 2.13 0.141 2.61-0.373 1.04-4.62-4.71-2.889-2.61 0.373z"/>
	<path d="m176.16 32.822c-1.166 1.239-4.463 1.089-5.595 0.373 0.54-1.329 4.49-0.819 5.6-0.373z" fill="#FFFFF7"/>
	<path d="m169.45 33.941c1.385 1.337 0.954 3.681 1.492 5.595 0.667 2.372 2.43 3.972 2.238 5.595-18.41-0.732-34.024 0.167-52.589 0.373 4.199-4.379 8.567-8.589 13.8-11.935 8.78 0.364 21.849-1.397 31.33-0.746 1.33 0.091 2.64 0.56 3.73 1.118zm-27.23 8.951h2.984c-0.288-3.232 3.21-1.597 3.357-4.103 0.146-2.491-2.702-2.88-6.714-2.611 0.7 2.21 1.49 4.666 0.37 6.714z" fill="#FFFFF7"/>
	<path d="m204.13 36.179c-0.48 0.514-1.62 0.369-2.61 0.373-2.1-3.262 3.65-4.993 2.61-0.373z" fill="#FFFFF7"/>
	<path d="m376.08 33.941c-5.111 1.343-13.979 0.74-20.514 0.373 2.934-1.742 6.908-0.373 10.443-0.373 3.48 0 6.94-0.851 10.07 0z" fill="#FFFFF7"/>
	<path d="m379.06 33.568c1.34 4 0.745 8.962 0.745 13.8 0 6.34 0.22 12.673 0 17.157-0.085 0.579 1.165 3.366-0.745 3.357-0.141-11.196 0.324-22.726-0.373-32.449 0.34-1.121-2.996-0.438-1.492-1.492 0.43-0.313 1-0.492 1.86-0.373z" fill="#FFFFF7"/>
	<path d="m171.69 34.314c1.012 0.231 2.96-0.474 3.357 0.373 0.12 1.316-3.92 1.143-3.36-0.373z" fill="#FFFFF7"/>
	<path d="m399.2 34.314c1.591 19.575 0.318 38.395 0.745 58.93 0.363 17.416 0.94 37.787 0.746 56.692-1.374-2.122-0.746-4.779-0.746-7.086 0.01-35.53-1.35-71.033-0.74-108.54z" fill="#FFFFF7"/>
	<path d="m355.19 35.433c0.496 0.297 0.963 0.97 1.492 1.492 1.772 1.747 1.588 3.352 2.611 6.34 0.68 1.988 1.883 3.126 1.864 4.849-17.45-1.354-31.78 0.29-49.232 0-1.413-4.279-3.283-8.825 0-11.562 0.402-0.335 1.973-1.044 3.356-1.119 10.26-0.555 31.05 0.816 39.91 0zm-21.26 4.476c-4.239 4.607 5.564 8.506 5.968 2.611 0.163-2.377-1.349-4.137-3.729-3.73-0.63 0.106-1.89 0.741-2.24 1.119zm9.7 1.864h0.745v-0.746h-0.745c-0.01 0.249-0.01 0.498-0.01 0.746z" fill="#FFFFF7"/>
	<path d="m280.22 35.806c9.698 0.249 20.389-0.497 29.465 0.373-1.02 1.355-4.178 0.746-6.713 0.746-5.599 0-16.575 1.126-21.633 0-0.72-0.16-1 0.275-1.12-1.119z" fill="#FFFFF7"/>
	<path d="m141.85 36.179c4.012-0.269 6.859 0.12 6.714 2.611-0.147 2.506-3.645 0.871-3.357 4.103h-2.984c1.12-2.049 0.33-4.505-0.37-6.714zm2.98 3.357c0.949-0.046 1.446-0.543 1.492-1.492-0.504-0.117-0.712-0.531-1.492-0.373v1.865z"/>
	<path d="m172.43 36.552c0.919-0.049 1.797-0.057 2.238 0.373-1.972 0.463 0.402 3.072-1.865 3.357 0.13-1.492-0.66-2.071-0.37-3.73z" fill="#FFFFF7"/>
	<path d="m360.04 38.043c2.899-0.979 8.113-0.375 10.816-0.373 0.542 0.204 1.928-0.436 1.865 0.373-3.425 0.182-7.615-0.404-10.443 0.373-0.05-0.823-1.59-0.158-2.24-0.373z" fill="#FFFFF7"/>
	<path d="m144.83 37.67c0.78-0.158 0.988 0.256 1.492 0.373-0.046 0.949-0.543 1.446-1.492 1.492v-1.865z" fill="#FFFFF7"/>
	<path d="m308.94 38.043c-0.58 1.372-3.494-0.167-5.595 0.373-0.08-0.45 4.31-1.266 5.6-0.373z" fill="#FFFFF7"/>
	<path d="m373.46 38.043c0.06-0.437 0.68-0.314 1.118-0.373 2.49-0.332 1.442 2.927 1.492 3.73 1.314 21.065 0.464 50.024 0.746 69 0.388 26.038 0.606 50.855 1.119 74.595-1.074-0.836-1.057-2.863-1.119-4.103-0.174-3.416 0.024-8.445 0-13.055-0.104-19.406-0.873-36.713-0.746-55.573 0.111-16.473-0.589-35.001-0.746-52.962-0.011-1.218-0.298-2.405-0.373-3.73-0.209-3.717 1.291-16.298-0.373-17.53-0.24-0.183-0.85 0.139-1.12-0.005z" fill="#FFFFF7"/>
	<path d="m336.17 38.79c2.381-0.407 3.893 1.353 3.729 3.73-0.403 5.896-10.207 1.997-5.968-2.611 0.35-0.378 1.61-1.013 2.24-1.119zm-0.75 5.221c2.505 0.858 2.084-2.676 1.492-3.729h-1.119c-0.38 0.981-0.44 2.288-0.37 3.729z"/>
	<path d="m306.7 40.282c2.892 2.827 2.975 8.463 5.222 11.935-17.151-0.816-36.518-0.158-55.2-0.373-1.526-4.533-0.6-8.091 1.492-11.562 16.37-1.422 32.39-0.908 48.49 0zm-28.34 2.238c-0.281 1.399 1.424 0.813 1.491 1.865 0.116 1.981 0.157 3.887-1.119 4.476 0.543 0.577 1.91 0.329 2.984 0.373 0.994-0.706-1.441-2.146 0.373-2.611 0.575 0.792 1.073 1.662 1.491 2.611 1.752-0.385 3.079 1.112 3.357-0.746-0.102-0.769-1.651-0.089-1.492-1.119 0.709-1.156 0.017-3.714 1.119-4.476-0.619-0.625-2.189-0.296-3.356-0.373 0.163 0.856 1.539 2.406 0.372 3.356-0.8-0.94-0.997-2.483-1.864-3.356-1.56 0.05-2.08-0.679-3.35 0z" fill="#FFFFF7"/>
	<path d="m374.21 39.536c-0.859 13.95 1.144 27.77 0.373 40.654-0.027 0.471 0.104 1.033 0 1.492-0.357 1.595-0.436 0.215 0 1.865 0.794 3.002 0.323 7.149 0.373 10.443 0.488 31.917 0.047 62.88 1.119 94.362-1.97-0.5-1.067-3.001-1.119-4.103-0.903-19.25-1.119-47.274-1.118-70.119 0-26.194-0.958-50.274-1.119-73.103-3.383-0.844-8.311-0.144-12.309-0.373v-1.119c3.8-0.64 10.01-0.582 13.81 0.001z" fill="#FFFFF7"/>
	<path d="m230.99 39.536c9.092 1.12 18.053-0.553 25.362 0.373-0.735 1.358-3.055 1.075-4.849 1.119-5.398 0.133-14.044-0.032-20.141 0-0.29-0.333-0.4-0.843-0.37-1.492z" fill="#FFFFF7"/>
	<path d="m335.79 40.282h1.119c0.592 1.054 1.013 4.588-1.492 3.729-0.07-1.441-0.01-2.748 0.37-3.729z" fill="#FFFFF7"/>
	<path d="m343.63 41.027h0.745v0.746h-0.745c-0.01-0.248-0.01-0.497-0.01-0.746z"/>
	<path d="m371.6 42.146c0.83 49.385 1.438 101.38 1.865 148.82-0.83-11.922-1.281-24.29-1.492-36.552-0.615-35.779-0.452-73.939-1.119-111.15-1.186-0.677-3.166-0.304-5.222-0.373-1.549-0.052-4.035 0.64-4.476-0.746 2.79-0.255 6.84-0.265 10.45-0.005z" fill="#FFFFF7"/>
	<path d="m255.23 42.892c-1.18 1.763-3.448 0.422-4.849 0.373-11.531-0.4-22.723 0-36.552 0-12.286 0-23.525 0.794-35.433 0.373-1.283-0.045-3.692 0.757-4.476-1.119 26.01 0.183 48.762-0.373 75.341-0.373 1.077 0 2.234-0.054 3.357 0 0.58 0.028 2.42-0.644 2.61 0.746z" fill="#FFFFF7"/>
	<path d="m281.71 42.52c0.867 0.874 1.064 2.417 1.864 3.356 1.167-0.951-0.209-2.5-0.372-3.356 1.167 0.076 2.737-0.252 3.356 0.373-1.103 0.762-0.41 3.32-1.119 4.476-0.159 1.03 1.391 0.35 1.492 1.119-0.278 1.858-1.605 0.361-3.357 0.746-0.418-0.949-0.916-1.819-1.491-2.611-1.814 0.464 0.621 1.905-0.373 2.611-1.074-0.044-2.441 0.204-2.984-0.373 1.276-0.589 1.235-2.495 1.119-4.476-0.067-1.052-1.772-0.465-1.491-1.865 1.27-0.679 1.79 0.05 3.35 0z"/>
	<path d="m369.36 43.638c1.936 29.714 0.746 69.058 1.864 103.31-1.424-0.914-0.679-3.432-0.746-5.595-0.29-9.371-0.632-27.252-0.746-39.535-0.17-18.357-0.475-37.292-0.745-56.692-1.791-1.436-7.313 1.025-7.46-1.119 2.16-0.334 4.65-0.284 7.84-0.371z" fill="#FFFFF7"/>
	<path d="m202.64 44.011c-0.904 2.031-3.344 0.805-5.222 0.746-5.337-0.168-11.577 0.535-18.276 0.373-0.712-0.018-2.623 0.659-2.983-0.746 9.38-0.254 17.54 0.44 26.48-0.373z" fill="#FFFFF7"/>
	<path d="m257.1 57.065c-18.318 0.02-38.061-0.029-55.2 0-1.944-4.104-1.202-7.938 1.118-11.189 8.771-2.775 26.643-0.063 38.417-1.119 3.444-0.309 10.542-0.386 12.308 2.238 0.963 1.429 0.6 3.426 1.119 5.222 0.58 2.054 1.65 3.097 2.23 4.848zm-35.06-9.697c0.539 1.45 1.444 2.533 1.118 4.849-0.352 0.642-1.378 0.61-1.118 1.865 0.875 0.881 1.832-0.061 2.983 0 0.18-1.226-1.749-1.968 0-2.611 0.377 0.99 0.613 2.122 1.865 2.238 1.461 0.218 0.952-1.534 1.864-1.865 0.622 0.498 0.125 2.113 0.746 2.611 1.14 0.27 1.359-0.381 2.238-0.373-1.437-1.443-1.461-4.875 0-6.34-0.542-0.577-1.909-0.329-2.984-0.373-1.117 0.747-0.128 3.601-1.864 3.729-1.11-1.675-1.65-5.317-4.85-3.73z" fill="#FFFFF7"/>
	<path d="m367.87 45.876c0.261 1.148 0.261 0.717 0 1.865-1.561 0.783-3.932-0.432-5.222-1.119 0.52-1.465 3.54-0.441 5.22-0.746z" fill="#FFFFF7"/>
	<path d="m226.89 51.098c1.736-0.128 0.747-2.982 1.864-3.729 1.075 0.044 2.442-0.204 2.984 0.373-1.461 1.465-1.437 4.897 0 6.34-0.879-0.008-1.099 0.643-2.238 0.373-0.621-0.498-0.124-2.113-0.746-2.611-0.912 0.331-0.403 2.083-1.864 1.865-1.252-0.116-1.488-1.248-1.865-2.238-1.749 0.643 0.18 1.385 0 2.611-1.151-0.061-2.108 0.881-2.983 0-0.26-1.254 0.767-1.223 1.118-1.865 0.326-2.315-0.579-3.398-1.118-4.849 3.2-1.587 3.74 2.055 4.85 3.73z"/>
	<path d="m197.05 48.487c0.277-0.841 2.092-0.146 2.983-0.373v1.865c-1.57 0.076-1.57-1.417-2.98-1.492z" fill="#FFFFF7"/>
	<path d="m367.12 48.487c0.603-0.105 0.642 0.353 1.119 0.373 0.966 47.449 0.273 90.395 2.237 139.86 0.046 1.15 0.077 2.923 0 4.103-0.08 1.237 0.319 3.067-1.118 3.73-1.537-49.713-1.763-93.497-2.611-146.95-0.1-0.597 0.35-0.636 0.37-1.113z" fill="#FFFFF7"/>
	<path d="m201.15 61.541c-18.89 0.051-37.083-0.041-54.827 0-1.637-3.887 0.097-8.833 1.865-11.562 5.605-0.881 11.754-1.119 17.157-1.119 10.674 0 20.719 0.173 30.957 0.746 4.02 1.582 3.31 7.877 4.85 11.935zm-30.21-8.951c0.804 1.414 1.438 5.157-0.373 5.967 1.102 1.249 5.051 0.832 6.714 0.373 0.494-1.11 0.382-1.893-0.373-2.611-1.643-0.026-1.484 1.749-2.984 1.865-0.937-1.956-0.083-4.278 0.746-5.594-1.27-0.657-1.92 0.25-3.74 0z" fill="#FFFFF7"/>
	<path d="m364.89 48.86c0.966 27.466 1.712 56.259 1.119 83.546-1.269-25.319-1.045-53.934-1.492-82.054-15.479-1.505-32.963 1.178-51.843-0.373 0.761-1.369 3.574-0.735 5.595-0.746 14.92-0.084 31.22 0.337 46.61-0.377z" fill="#FFFFF7"/>
	<path d="m145.95 51.098c-2.25 1.973-6.154 1.119-9.325 1.119-5.515 0-11.895 0.948-17.157 0.373-0.7-0.077-1.574-0.714-2.238-0.746-2.336-0.114-5.998 1.489-7.833-0.373 1.165-1.994 4.872-1.119 7.833-1.119 7.567 0 18.479-0.498 25.735-0.373 0.89 0.015 2.61-0.472 2.99 1.119z" fill="#FFFFF7"/>
	<path d="m366 203.27c-1.984-0.513-1.053-2.895-1.119-4.103-0.578-10.609-0.457-21.507-0.746-31.702-1.067-37.74-0.896-78.795-1.864-115.25-3.33-0.825-7.156-0.42-11.189-0.373-12.751 0.148-25.687 0.426-36.552 0 3.608-1.046 7.49-0.313 11.189-0.373 10.605-0.171 23.132 0.696 35.06-0.373 1.874-0.168 2.131-1.137 2.611 1.492 0.557 3.049 0.188 12.742 0.373 17.53 0.596 15.469 0.026 41.347 0.745 57.065 1.36 29.36 0.48 57.52 1.5 76.08z" fill="#FFFFF7"/>
	<path d="m174.67 52.59c-0.829 1.316-1.683 3.638-0.746 5.594 1.5-0.116 1.342-1.891 2.984-1.865 0.755 0.718 0.867 1.501 0.373 2.611-1.663 0.459-5.612 0.875-6.714-0.373 1.811-0.81 1.177-4.553 0.373-5.967 1.83 0.25 2.48-0.657 3.74 0z"/>
	<path d="m360.78 52.962c1.007 37.987 1.299 77.914 2.238 116 0.264 10.712 0.48 24.963 0.373 34.687-0.013 1.093 1.062 2.549-0.373 3.357-1.634-6.187-0.381-13.549-0.746-20.141-0.931-16.798-0.466-37.157-1.119-54.828-0.858-23.224-0.841-51.405-1.492-76.833-4.386-1.416-9.744-0.453-15.292-0.373-11.331 0.163-23.907 0-35.805 0-6.171 0-12.431 0.833-17.53 0.373-1.364-0.124-2.924-0.708-4.103-1.492-5.375 1.664-16.453 1.369-24.616 1.119-1.752-0.054-4.839 0.833-5.222-1.492 18.99-1.208 37.933 1.615 55.946 0 14.37-1.295 33.04 1.052 47.74-0.38z" fill="#FFFFF7"/>
	<path d="m142.97 53.335h1.865c0.047 0.669-0.457 0.787-0.373 1.492-0.96-0.045-1.46-0.542-1.5-1.492z" fill="#FFFFF7"/>
	<path d="m145.95 66.017c-3.655-0.829-7.151-0.018-10.816 0-5.329 0.025-11.137-1.275-15.292 1.119-10.497-0.684-23.627-0.803-35.06-0.373 0.052-1.315 1.673-1.062 2.611-1.492 3.378-4.952 8.567-8.093 13.427-11.562 5.012 0.368 10.416-0.351 16.038 0 1.104 0.069 2.251 0.664 3.357 0.746 5.137 0.384 10.12-0.392 15.665-0.373 3.187 0.011 6.745-0.302 7.832 2.984 0.382 1.153 0.054 2.458 0.373 3.729 0.52 2.062 2.47 3.564 1.87 5.222zm-34.69-8.952c1.866 1.682 1.634 4.7 0.373 6.713h3.73c-0.434-1.001-1.366-2.593 0-3.356 1.758 0.211 0.662 2.701 1.119 3.356h3.73c-0.469-2.017-2.566-2.407-2.238-5.222 0.568-0.675 2.557 0.071 2.238-1.492-0.93-0.314-1.999-0.488-3.357-0.373-0.55 1.19-0.735 2.746-2.611 2.611-0.202-1.321 1.321-0.917 1.119-2.238-1.79-0.08-2.44-0.709-4.1 0.001z" fill="#FFFFF7"/>
	<path d="m401.06 53.708c1.62 0.156-0.39 2.166 0 0z" fill="#FFFFF7"/>
	<path d="m287.68 55.573c-0.948 2.999-4.033 1.499-5.968 1.492-6.797-0.022-14.458 0.688-22.006 0-0.165-0.332-0.327-0.667-0.746-0.746 1.182-1.688 3.47-0.388 4.849-0.373 7.94 0.088 14.61-0.22 23.88-0.373z" fill="#FFFFF7"/>
	<path d="m358.55 55.573c1.154 53.765 2.215 111.77 2.61 154.04-1.074-0.723-1.061-2.654-1.119-3.729-0.425-7.797 0.019-20.165-0.373-29.838-1.627-40.205-0.68-77.315-1.864-118.61-8.014-1.537-17.298 1.433-23.498-1.119 0.166-0.332 0.328-0.667 0.746-0.746 8.5 0.551 13.68-0.155 23.49 0.008z" fill="#FFFFF7"/>
	<path d="m115.37 57.065c0.202 1.321-1.321 0.917-1.119 2.238 1.876 0.135 2.061-1.421 2.611-2.611 1.358-0.115 2.427 0.059 3.357 0.373 0.319 1.562-1.67 0.817-2.238 1.492-0.328 2.814 1.769 3.205 2.238 5.222h-3.73c-0.457-0.656 0.639-3.146-1.119-3.356-1.366 0.764-0.434 2.355 0 3.356h-3.73c1.261-2.013 1.493-5.031-0.373-6.713 1.65-0.711 2.3-0.082 4.1-0.001z"/>
	<path d="m400.69 57.065c0.273-0.664 0.679-0.054 1.119 0-0.82 4.606-0.28 2.887-1.12 0z" fill="#FFFFF7"/>
	<path d="m339.9 69.747c-19.046-0.087-31.871 0.3-51.097 0.373-0.934-3.17-1.047-7.159-2.984-9.325 0.619-5.142 7.415-3.729 13.8-3.729 9.527 0 23.082 0.028 33.195 0 5.28 1.299 4.42 8.751 7.08 12.681zm-27.23-3.73c-0.989-0.503-1.019-1.966-2.611-1.865-0.079 0.418-0.414 0.581-0.746 0.746-0.103 2.465 2.438 2.287 4.849 2.238 2.278-1.581 0.424-5.217 2.611-7.086-1.046-0.446-2.574-0.41-4.103-0.373 0.69 1.342 1.44 5.163 0 6.34z" fill="#FFFFF7"/>
	<path d="m237.33 58.557c-9.746 2.313-23.536 0.583-35.06 1.119v-1.119c12.65 0.017 24.85-0.357 35.06 0z" fill="#FFFFF7"/>
	<path d="m254.49 58.557c-0.277 0.841-2.092 0.146-2.983 0.373 0.85-0.947 1.66-0.535 2.98-0.373z" fill="#FFFFF7"/>
	<path d="m258.96 58.557c-1.5 1.089-1.61 0.362-3.729 0.373-0.1-0.652 2.79-0.72 3.73-0.373z" fill="#FFFFF7"/>
	<path d="m268.66 58.557c-1.175 0.66-6.765 0.566-6.713 0 2.17-0.833 4.98 0.036 6.71 0z" fill="#FFFFF7"/>
	<path d="m284.7 58.93c-1.548 1.82-4.849-0.795-7.832 0 0.493-1.153 2.083-0.319 3.356-0.373 1.56-0.065 3.83-1.311 4.47 0.373z" fill="#FFFFF7"/>
	<path d="m270.52 58.557c-0.82 1.139-2.38-0.43 0 0z" fill="#FFFFF7"/>
	<path d="m312.67 59.676c1.528-0.037 3.057-0.073 4.103 0.373-2.188 1.87-0.333 5.506-2.611 7.086-2.411 0.049-4.951 0.227-4.849-2.238 0.332-0.166 0.667-0.328 0.746-0.746 1.593-0.101 1.622 1.362 2.611 1.865 1.44-1.176 0.69-4.997 0-6.34z"/>
	<path d="m288.05 72.73c-18.668-0.604-35.768-0.117-53.709-0.373-0.576-4.377-4.644-8.954-0.373-11.935 17.647-0.016 30.732-0.054 48.114 0 4.36 1.487 4.29 9.394 5.97 12.308zm-31.33-10.07c1.35 1.337 1.83 5.577-0.373 6.34 0.546 0.854 4.923 1.587 4.849-0.373-1.77-0.747-1.476-4.852-0.746-5.967-1.33-0.734-1.99 0.173-3.73 0z" fill="#FFFFF7"/>
	<path d="m231.36 60.795c-0.496 2.996-3.711 0.969-5.968 0.746-6.094-0.602-14.946 0.455-21.26 0-0.434 0.061-0.663-0.083-0.746-0.373-0.061-0.434 0.083-0.664 0.373-0.746 11.58 0.89 17.88-0.367 27.61 0.373z" fill="#FFFFF7"/>
	<path d="m401.06 61.914c0.143-0.71 0.475 0.238 0.373 0.746-0.13 0.71-0.47-0.238-0.37-0.746z" fill="#FFFFF7"/>
	<path d="m260.45 62.66c-0.729 1.116-1.023 5.221 0.746 5.967 0.074 1.96-4.303 1.228-4.849 0.373 2.203-0.763 1.723-5.003 0.373-6.34 1.74 0.173 2.4-0.734 3.73 0z"/>
	<path d="m177.65 63.033c-0.759 2.617-3.84 1.147-5.595 1.119-7.459-0.121-16.437 0.561-24.616 0.373-0.071-0.302-0.374-0.372-0.373-0.746-0.061-0.434 0.083-0.664 0.373-0.746 11.2-0.062 20.27 0.737 30.21 0z" fill="#FFFFF7"/>
	<path d="m234.34 76.46c-18.233-0.831-36.217 0.262-58.184 0-1.639-3.94 0.256-7.985 1.492-11.189 4.935-3.699 13.574-1.271 22.005-1.865 8.976-0.632 20.331-0.675 28.347 0.373 3.342 0.994 3.01 5.156 4.103 8.206 0.67 1.867 1.92 2.781 2.23 4.475zm-26.48-11.189c-1.088 2.021-6.746-0.529-7.833 1.492 2.737 0.844 1.638 4.303 0.373 5.968 2.209 0.046 5.304 0.369 7.832 0-1.414-2.374-0.388-4.876 0.373-7.087-0.07-0.291-0.3-0.434-0.74-0.373z" fill="#FFFFF7"/>
	<path d="m401.06 63.779c1.092 0.951-0.355 2.501 0.373 3.357-1.72-0.131-0.19-2.407-0.37-3.357z" fill="#FFFFF7"/>
	<path d="m159 65.271c4.543 0.934 12.347-0.202 16.784 0.373-0.272 2.52-4.553 1.411-5.595 0.373-1.412 0.92-3.559 0.167-5.222 0-2.13-0.215-4.96 0.774-5.96-0.746z" fill="#FFFFF7"/>
	<path d="m208.61 65.644c-0.761 2.21-1.787 4.713-0.373 7.087-2.528 0.369-5.623 0.046-7.832 0 1.265-1.665 2.364-5.124-0.373-5.968 1.087-2.021 6.745 0.529 7.833-1.492 0.43-0.061 0.66 0.082 0.74 0.373zm-5.22 1.865c-0.281 1.684 2.492 1.397 1.865-0.373-0.87-0.119-1.44 0.06-1.87 0.373zm0 4.102c1.163 0.54 2.535 0.061 2.238-1.865-0.433-0.313-1-0.492-1.865-0.373-0.43 0.441-0.42 1.319-0.37 2.238z"/>
	<path d="m171.31 68.254c2.326 1.757 1.963 5.271 2.983 8.206 0.627 1.802 1.828 2.812 2.238 4.476-21.549-0.947-38.675 0.062-61.541 0 0.367-1.691 1.574-3.067 2.611-5.594 1.41-3.438 1.954-6.301 4.849-7.833 18.26 1.023 32.26-1.777 48.86 0.745zm-28.34 8.206c1.438 1.36 3.065 1.634 5.595 1.119 1.167-2.42 0.954-4.424-0.373-6.714-3.62-0.01-5.66 1.554-5.22 5.595z" fill="#FFFFF7"/>
	<path d="m205.25 67.136c0.627 1.77-2.146 2.057-1.865 0.373 0.44-0.313 1.01-0.492 1.87-0.373z" fill="#FFFFF7"/>
	<path d="m118.72 68.254c-2.958 1.332-6.846 0.75-10.07 0.746-7.759-0.009-17.989-0.515-27.973-0.373 9.825-1 26.673-0.07 38.043-0.373z" fill="#FFFFF7"/>
	<path d="m379.06 68.627c0.434-0.061 0.663 0.083 0.745 0.373 0.448 3.023 0.697 8.182 0 11.935-1.01-4.522-0.01-8.721-0.74-12.308z" fill="#FFFFF7"/>
	<path d="m203.76 69.374c0.865-0.119 1.433 0.06 1.865 0.373 0.297 1.925-1.075 2.404-2.238 1.865-0.04-0.92-0.05-1.798 0.38-2.238z" fill="#FFFFF7"/>
	<path d="m117.23 69.747c-1.382 2.425-3.614 0.771-5.222 0.746-11.304-0.181-22.179 0.763-35.433 0 11.188-1.437 28.873 0.361 40.653-0.746z" fill="#FFFFF7"/>
	<path d="m148.19 70.865c1.327 2.29 1.541 4.293 0.373 6.714-2.53 0.515-4.157 0.241-5.595-1.119-0.43-4.041 1.61-5.605 5.23-5.595zm-1.12 5.595c-0.412-1.997-0.04-1.727 0.373-3.357-2.82-1.988-3.68 3.929-0.37 3.357z"/>
	<path d="m401.06 71.611c0.243-1.052 0.433 0.859 0.373 1.119-0.17 0.749-0.69 0.301-0.37-1.119z" fill="#FFFFF7"/>
	<path d="m116.86 71.611c0.201 2.502-5.423 1.665-6.34 0.746 0.82-1.535 4.33-0.394 6.34-0.746z" fill="#FFFFF7"/>
	<path d="m108.65 72.73c2.354 1.861 2.596 5.79 3.73 8.951 0.673 1.877 2.11 3.277 1.865 4.849-15.358-1.53-41.479-0.37-58.922-0.746-1.355-0.503 0.516-1.988 1.119-2.983 0.705-1.164 1.941-2.328 1.865-3.73 1.29-0.7 2.004-1.974 2.611-3.357 2.998-1.98 6.25-3.327 11.189-3.356 10.919-0.066 25.632-0.179 36.548 0.372zm-29.462 2.984c1.577 2.139 1.346 4.884-0.373 6.714 1.046 0.446 2.574 0.41 4.103 0.373 0.822-0.788-0.479-1.103-0.373-2.238 1.171-0.184 0.985 1.285 1.865 0.373 0.002-2.244 1.804-3.8 1.119-5.594-2.052 0.185-4.887-0.412-6.341 0.372z" fill="#FFFFF7"/>
	<path d="m147.44 73.103c-0.413 1.63-0.785 1.36-0.373 3.357-3.31 0.572-2.45-5.345 0.37-3.357z" fill="#FFFFF7"/>
	<path d="m317.89 73.476c8.407-0.744 14.523-0.092 23.87-0.373 0.691 0.801 0.252 2.732 0.373 4.103-1.238-0.254-0.418-2.566-1.492-2.984-5.672 0.692-13.99 0.237-21.26 0.373-0.36-0.504-0.99-0.745-1.49-1.119z" fill="#FFFFF7"/>
	<path d="m116.48 74.222c-0.926 1.279-3.292 1.174-4.476 0.373 0.28-1.271 3.66-0.839 4.48-0.373z" fill="#FFFFF7"/>
	<path d="m265.68 74.222c-0.928 1.965-4.686 1.119-7.459 1.119h-15.665c-2.35 0-5.785 0.901-7.087-1.119 10.39 0.108 18.54 0.251 30.21 0z" fill="#FFFFF7"/>
	<path d="m323.49 88.768c-20.829 0.277-40.18-0.448-58.558 0-1.276-5.394-1.946-13.714 6.341-14.546 4.596-0.461 13.026 0.373 22.378 0.373 8.94 0 19.098-0.872 24.244 0.746 2.6 0.817 2.33 5.048 3.356 8.205 0.78 2.391 2.61 3.096 2.24 5.222zm-33.95-10.443c1.08 1.034 1.866 2.361 1.865 4.476-0.184 1.059-1.949 0.537-1.492 2.238 2.118 0.426 4.961 0.642 7.46 0 0.146-1.514-0.137-2.599-1.492-2.611-0.093 1.397-1.877 2.456-2.61 1.119 2.591-0.459 1.11-3.217 0-4.103 2.173-0.682 1.55 1.434 3.356 1.119 0.514-0.481 0.369-1.62 0.373-2.611-2.62 0.488-4.87-0.477-7.46 0.373z" fill="#FFFFF7"/>
	<path d="m85.529 75.341c0.685 1.794-1.117 3.35-1.119 5.594-0.879 0.913-0.694-0.557-1.865-0.373-0.106 1.135 1.195 1.45 0.373 2.238-1.529 0.037-3.057 0.073-4.103-0.373 1.719-1.83 1.95-4.575 0.373-6.714 1.454-0.783 4.289-0.186 6.341-0.372zm-2.611 3.357c0.288-0.255 0.971-2.222-0.373-1.865-0.113 0.87-0.796 1.607 0.373 1.865z"/>
	<path d="m340.64 75.714c0.908 24.236 0.442 46.093 1.119 69.747 0.48 16.775 0.3 36.002 0.746 58.557 0.025 1.313 0.411 3.136 0.373 4.476-0.028 0.99 0.088 2.802-1.119 3.357-0.61-44.696-1.539-91.271-1.865-135.02-2.712-0.649-6.438-0.393-10.07-0.373-3.354 0.018-7.382 1.123-8.951-0.746 6.79 0.369 13.96-0.609 19.76-0.007z" fill="#FFFFF7"/>
	<path d="m237.33 75.714c1.78 0.762 4.442 0.248 6.34 0 2.007 0.356 4.262 0.463 6.714 0.373 0.884-0.308 1.718 0.526 0.373 0.373-3.424 0.181-7.615-0.404-10.443 0.373-0.18-1.186-3.36 0.627-2.98-1.119z" fill="#FFFFF7"/>
	<path d="m112.76 76.087h2.611c0.73 2.091-3.34 2.091-2.61 0z" fill="#FFFFF7"/>
	<path d="m253.37 76.087c-0.82 1.139-2.39-0.43 0 0z" fill="#FFFFF7"/>
	<path d="m254.86 76.46c0.161-0.834 1.838-0.151 2.611-0.373-0.16 0.834-1.84 0.151-2.61 0.373z" fill="#FFFFF7"/>
	<path d="m262.32 76.087c-3.57 1.1-4.98-0.432 0 0z" fill="#FFFFF7"/>
	<path d="m82.545 76.833c1.344-0.357 0.661 1.61 0.373 1.865-1.169-0.258-0.486-0.995-0.373-1.865z" fill="#FFFFF7"/>
	<path d="m210.48 77.579c-3.235 1.943-7.792 1.119-11.936 1.119-5.925 0-11.205 0.601-16.783 0.373-1.746-0.071-3.924 0.321-4.849-1.119 13.2 0.298 24.17-0.667 33.57-0.373z" fill="#FFFFF7"/>
	<path d="m239.57 77.952c0.807-0.9 4.14-0.322 6.714-0.373 0.666-0.105 0.766 0.353 0.373 0.373h-7.08z" fill="#FFFFF7"/>
	<path d="m263.44 77.952c-0.295 2.73-4.039 0.764-5.221 0h-5.595c-1.222-0.163-5.08 0.377-4.476-0.373 5.42 0.318 11.38-0.625 15.3 0.373z" fill="#FFFFF7"/>
	<path d="m216.44 77.579c-0.238 1.346-1.789-0.102-3.357 0.373-0.9-0.691 2.46-0.252 3.36-0.373z" fill="#FFFFF7"/>
	<path d="m234.34 77.952c0.639-0.854 2.848-0.137 4.103-0.373-0.63 0.854-2.84 0.137-4.1 0.373z" fill="#FFFFF7"/>
	<path d="m338.41 77.952c0.787 40.909 1.184 80.753 1.491 118.98 0.082 10.109 0.373 20.111 0.373 31.329 0 3.036 0.476 6.301-0.373 9.325-1.566-25.642-0.774-52.838-1.118-80.562-0.312-25.139-1.391-51.883-1.492-77.579-2.547-1.405-7.832-0.612-11.936-0.746-1.1-0.036-3.098 0.628-3.356-0.746 6.48-0.081 11.2-0.386 16.42 0.003z" fill="#FFFFF7"/>
	<path d="m297 77.952c-0.004 0.991 0.141 2.13-0.373 2.611-1.807 0.314-1.184-1.801-3.356-1.119 1.11 0.886 2.591 3.643 0 4.103 0.733 1.337 2.518 0.278 2.61-1.119 1.355 0.012 1.639 1.097 1.492 2.611-2.499 0.642-5.342 0.426-7.46 0-0.457-1.701 1.309-1.179 1.492-2.238 0.001-2.115-0.785-3.442-1.865-4.476 2.59-0.85 4.84 0.115 7.46-0.373z"/>
	<path d="m259.33 80.19c3.235 3.479 3.395 10.033 5.968 14.173-20.056-1.173-40.648-0.034-62.287-0.373-0.268-2.506 1.066-3.41 1.865-4.849 0.329-3.465 1.291-8.026 4.476-9.324 1.142-0.465 3.768-0.376 5.222-0.373 11.86 0.028 32.92-0.504 44.75 0.746zm-29.46 10.07c4.382 1.668 8.409-1.039 7.46-4.476-0.617-2.23-3.942-2.325-7.087-2.611-0.22 1.248 1.24 5.418-0.37 7.087z" fill="#FFFFF7"/>
	<path d="m206.75 79.817c-1.571 2.373-6.304 0.754-8.951 0.746-2.953-0.01-7.567 0.373-11.562 0.373-2.705 0-5.903 0.743-7.46-1.119 10.39 0.121 19.06-0.293 27.97 0z" fill="#FFFFF7"/>
	<path d="m336.17 79.444c0.598 9.648 0.655 20.146 0.373 26.108-1.979-0.755-1.1-3.749-1.119-5.595-0.061-5.798 0.286-13.556-0.373-19.022-2.461-0.538-5.507-0.373-8.205-0.373-1.483 0-3.989 1.458-4.476-0.746 5.1-0.428 9.49 0.174 13.81-0.37z" fill="#FFFFF7"/>
	<path d="m205.25 82.055c-2.206 2.006-5.512 1.119-8.205 1.119-27.062 0-56.632 0.448-82.801-0.373 2.951-1.592 6.575-0.481 9.697-0.373 3.65 0.126 7.195 0 10.816 0 23.49 0 49.15-1.105 70.49-0.373z" fill="#FFFFF7"/>
	<path d="m379.06 82.055c0.06-0.437 0.68-0.314 1.118-0.373 0.492 29.104 0.948 59.143 0.746 86.53-1.372-12.577-0.509-29.813-0.746-42.146-0.269-14.016-1.092-27.475-0.745-43.265 0.05-0.428-0.09-0.658-0.38-0.74z" fill="#FFFFF7"/>
	<path d="m230.24 83.173c3.145 0.286 6.47 0.381 7.087 2.611 0.949 3.437-3.078 6.144-7.46 4.476 1.61-1.669 0.15-5.839 0.37-7.087zm3.36 5.968c0.818-0.798 1.422-1.811 1.119-3.729-1.147 0.277-0.717-1.024-1.864-0.746 0.25 1.48-0.66 4.131 0.74 4.475z"/>
	<path d="m147.07 83.919c-0.229 1.263-1.655 1.329-2.238 2.238-4.347-0.819-9.714 0.543-14.919 0.373-5.465-0.179-10.895 0.523-14.173-1.865 10.55-0.912 20.8 0.172 31.33-0.746z" fill="#FFFFF7"/>
	<path d="m196.68 84.292c1.746-0.865 5.093-0.128 7.459-0.373-0.14 4.466-5.88 1.198-7.46 0.373z" fill="#FFFFF7"/>
	<path d="m232.85 84.666c1.147-0.278 0.717 1.023 1.864 0.746 0.303 1.918-0.301 2.931-1.119 3.729-1.39-0.344-0.48-2.995-0.74-4.475z" fill="#FFFFF7"/>
	<path d="m203.76 99.958c-21.748 0.059-44.476-0.091-64.151 0 0.37-1.935 2.171-3.016 2.984-4.849 0.92-2.077 0.967-4.696 2.238-6.714-11.588-0.489-26.901-0.342-42.519-0.373 0.983-1.126 2.309-0.333 3.357-0.373 10.476-0.409 21.557-0.151 33.567-0.373 1.583-0.029 3.492 0.594 5.222 0.373 1.855-0.238 3.975-1.986 5.595-2.238 5.541-0.863 14.394 0 22.751 0 8.662 0 16.734-1.242 22.751 0 5.4 1.114 5.4 9.765 8.2 14.547zm-35.43-9.698c-4.418 4.376 4.828 9.062 4.849 3.356-1.14-1.03-1.169 1.312-2.611 1.119-0.787-0.581-1.353-1.383-1.119-2.984 0.741-0.005 0.475-1.018 1.492-0.746 1.198-0.328 0.511 1.229 1.492 1.119 2.26-3.995-2.76-3.196-4.1-1.864z" fill="#FFFFF7"/>
	<path d="m54.199 87.276h6.714c-0.719 0.079-7.982 1.119-9.697 0.373-0.214-0.092 2.802-0.889 2.983-0.373z" fill="#FFFFF7"/>
	<path d="m325.72 86.903h2.984c1.623 57.469 1.351 106.81 1.864 163.74-2.017-0.766-1.074-3.519-1.119-4.849-0.413-12.341 0.561-26.426 0-39.162-0.636-14.464-1.048-25.684-0.745-39.162 0.318-14.206-0.261-27.313-0.373-40.282-0.114-13.081-0.069-25.159-0.746-38.043-0.15-1.189-2.99-0.925-1.86-2.244z" fill="#FFFFF7"/>
	<path d="m63.15 87.649c0.397-0.847 2.345-0.142 3.357-0.373-0.397 0.847-2.344 0.142-3.357 0.373z" fill="#FFFFF7"/>
	<path d="m68.372 87.649c1.388-1.302 1.892 1.018 0 0z" fill="#FFFFF7"/>
	<path d="m92.615 87.649c-0.517 0.85-2.596 0.139-3.73 0.373 0.37-0.971 2.919-0.997 3.73-0.373z" fill="#FFFFF7"/>
	<path d="m97.091 88.022h-3.73c1.019-0.707 3.549-0.994 3.73 0z" fill="#FFFFF7"/>
	<path d="m203.39 87.276c0.098 1.216-0.442 1.795-1.491 1.865-0.321-0.301-0.222-1.021-0.746-1.119 0.04-0.953 1.25-0.74 2.24-0.746z" fill="#FFFFF7"/>
	<path d="m99.702 87.649c-0.82 1.14-2.389-0.43 0 0z" fill="#FFFFF7"/>
	<path d="m48.231 89.141c1.375-0.863 4.346-0.13 6.341-0.373-1.375 0.863-4.346 0.13-6.341 0.373z" fill="#FFFFF7"/>
	<path d="m61.285 89.141c0.397-0.847 2.345-0.142 3.357-0.373-0.397 0.847-2.345 0.142-3.357 0.373z" fill="#FFFFF7"/>
	<path d="m65.015 89.141c2.118-0.866 5.84-0.127 8.578-0.373-1.901 0.955-5.72 0.642-8.578 0.373z" fill="#FFFFF7"/>
	<path d="m141.85 88.768c-1.52 1.766-4.327 1.088-6.34 1.119-16.48 0.251-32.887-0.357-49.606-0.373 1.015-1.417 3.155-0.722 4.476-0.746 17.05-0.316 35.14 0.717 51.47 0z" fill="#FFFFF7"/>
	<path d="m172.43 92.125c-0.981 0.11-0.293-1.447-1.492-1.119-1.018-0.271-0.751 0.741-1.492 0.746-0.233 1.601 0.333 2.403 1.119 2.984 1.442 0.192 1.471-2.149 2.611-1.119-0.021 5.706-9.267 1.02-4.849-3.356 1.34-1.333 6.36-2.132 4.1 1.864z"/>
	<path d="m141.48 91.006c-1.093 2.065-3.881 1.065-5.594 1.119-12.804 0.404-27.779 0.066-42.146-0.373-14.768-0.451-32.623 1.084-50.352 0.373v-1.119c0.302-0.071 0.372-0.374 0.746-0.373 39.307 0.121 65.712-0.211 97.342 0.373z" fill="#FFFFF7"/>
	<path d="m323.11 92.498c2.024 0.762 1.072 3.572 1.118 4.849 0.473 12.976 0.373 27.105 0.373 39.535 0 38.277 0.725 68.547 1.119 113.38 0.014 1.576-0.282 3.285-0.373 4.849-0.083 1.428 0.618 3.143-0.746 4.103-0.87-23.574-1.119-47.493-1.118-70.492 0-23.556-0.652-46.771-0.746-69.746-0.04-9.749 0.732-15.673-0.373-24.616-14.294-0.045-30.886-0.009-42.893 0-4.255 0.003-8.773 0.484-12.308-1.119 1.458-1.643 4.419-0.43 6.713-0.373 6.322 0.156 13.54-0.09 20.514-0.373 9.76-0.386 20.09 0.505 28.73 0.009z" fill="#FFFFF7"/>
	<path d="m79.188 93.244c-2.232 2.012-6.117 1.154-9.697 1.119-8.652-0.083-19.723 0.456-27.6 0-1.137-0.066-3.519 0.876-3.73-1.119 13.356-0.061 28.152 0.014 41.027 0z" fill="#FFFFF7"/>
	<path d="m137.74 107.79c-20.54-0.79-41.404-0.479-64.152 0-0.022-1.607 1.734-2.619 2.611-4.476 1.295-2.74 1.721-6.529 3.73-8.578 9.705-2.627 27.459-0.595 40.654-1.119 4.695-0.186 9.653-1.039 11.935 0.746 2.174 1.701 2.025 4.597 2.984 7.833 0.71 2.38 2.48 3.77 2.24 5.6zm-35.8-10.816c1.386 2.032 1.563 5.557-0.373 7.086 2.754 0.938 7.083 0.425 8.206-1.492-0.582-1.74-1.428-2.237-0.746-4.476-0.96-1.452-4.95-1.324-7.09-1.12z" fill="#FFFFF7"/>
	<path d="m134.02 93.244c2.228 0.508 6.623-1.152 7.087 1.119-1.81-0.347-6.6 1.401-7.09-1.119z" fill="#FFFFF7"/>
	<path d="m76.95 96.228c-0.83 1.433-2.953 0.719-4.103 0.746-13.375 0.317-26.881-0.128-39.536 0 1.462-2.036 4.768-1.119 7.087-1.119 11.217 0 18.547-0.126 28.719 0 2.661 0.033 5.383-0.797 7.833 0.373z" fill="#FFFFF7"/>
	<path d="m139.61 95.854c0.451 2.067-2.483 0.75-3.729 1.119v-1.119c0.56-0.454 3.21-0.731 3.73 0z" fill="#FFFFF7"/>
	<path d="m109.03 98.093c-0.682 2.239 0.165 2.736 0.746 4.476-1.122 1.917-5.452 2.43-8.206 1.492 1.936-1.53 1.759-5.055 0.373-7.086 2.14-0.204 6.13-0.332 7.09 1.119zm-3.73 1.865c0.713-0.157 1.605-0.135 1.492-1.119-0.245-0.5-0.797-0.694-1.492-0.746-0.48 0.49-0.48 1.374 0 1.865zm1.49 3.352c0.079-0.418 0.414-0.581 0.746-0.746-0.049-1.194-0.846-1.641-2.238-1.492-0.34 1.59 0.6 1.88 1.49 2.24z"/>
	<path d="m75.831 98.465c-0.087 2.489-2.666 1.726-4.103 1.865-1.626 0.157-4.013 0.267-5.595 0-1.808-0.305-3.19-1.605-4.849-1.865-4.374-0.685-9.697 0-14.546 0-3.848 0-10.923 1.16-14.173 0 0.464 0.166 4.21-0.741 4.849-0.746 11.83-0.091 26.056 0.127 38.417 0.746z" fill="#FFFFF7"/>
	<path d="m136.63 97.72h1.865c0.395 1.389-0.786 1.204-1.119 1.865-0.82-0.055-0.81-0.94-0.75-1.865z" fill="#FFFFF7"/>
	<path d="m105.3 98.093c0.694 0.051 1.247 0.245 1.492 0.746 0.114 0.984-0.779 0.962-1.492 1.119-0.48-0.491-0.48-1.375 0-1.865z" fill="#FFFFF7"/>
	<path d="m314.16 99.958h0.746c3.608 0.532 2.189 6.043 2.238 9.697 0.103 7.73 0.166 19.849 0.373 32.076 0.602 35.577 0.205 71.142 0.746 109.28 0.065 4.671 0.486 8.257 0.373 14.919-0.023 1.324 0.865 3.264-0.746 4.103-0.965-0.465-1.078-3.409-1.119-4.849-0.271-9.492 0-23.805 0-36.925 0-39.978-0.544-88.595-1.119-126.06-0.22-1.03-2.85-0.77-1.49-2.242z"/>
	<path d="m105.3 101.08c1.392-0.149 2.188 0.298 2.238 1.492-0.332 0.165-0.667 0.328-0.746 0.746-0.89-0.37-1.83-0.66-1.49-2.24z" fill="#FFFFF7"/>
	<path d="m74.339 102.57c-1.298 0.083-2.846 0.164-4.849 0-0.788-0.064-2.743 0.573-2.611-0.746 1.872 0.14 6.289-1.09 7.46 0.75z" fill="#FFFFF7"/>
	<path d="m73.593 103.69c-0.03 1.968-4.813 1.142-5.967 0.746 0.39-1.71 4.566-1.27 5.967-0.75z" fill="#FFFFF7"/>
	<path d="m377.94 104.43c0.434-0.061 0.664 0.083 0.746 0.373-0.219 25.884 0.799 43.394 0.746 65.644-1.045-0.596-1.057-2.572-1.119-3.356-0.378-4.718 0-9.938 0-14.919 0-16.045-0.46-31.024-0.373-46.622-0.01-0.36-0.01-0.73-0.01-1.11z" fill="#FFFFF7"/>
	<path d="m34.058 104.81h1.119c1.517 1.964 1.067 5.895 3.729 6.713-0.597 1.97-2.509 0.492-4.476 0.746-0.271-1.141 0.644-1.097 0.373-2.238h-1.119c-1.164 0.562 1.097 1.609 0 2.238-1.167-0.076-2.738 0.251-3.356-0.373 1.745-1.87 2.339-4.88 3.73-7.09zm1.119 4.47c-0.085-0.661 0.375-1.868-0.746-1.492-0.104 0.85 0.09 1.4 0.746 1.49z"/>
	<path d="m68.372 105.92c1.167 0.077 2.738-0.251 3.357 0.373-0.177 1.315-1.758 1.226-2.984 1.492-0.313-0.42-0.492-0.99-0.373-1.86z" fill="#FFFFF7"/>
	<path d="m336.17 106.3c0.317-0.068 0.352 0.146 0.373 0.373 0.317-0.068 0.352 0.146 0.373 0.373 0.129 33.625 1.119 68.148 1.119 102.94 0 8.521-0.111 17.082 0 24.616 0.031 2.171 1.163 4.597-0.373 6.341-1.129-20.515-1.119-43.109-1.119-66.39 0-23.136-0.894-46.263-1.119-67.508 0.09-0.4 0.74-0.25 0.75-0.74z" fill="#FFFFF7"/>
	<path d="m34.431 107.79c1.122-0.376 0.661 0.831 0.746 1.492-0.656-0.09-0.85-0.64-0.746-1.49z" fill="#FFFFF7"/>
	<path d="m71.729 114.13c34.917 0.366 74.087 0.373 108.54 0.373 41.425 0 81.809-0.001 122.34 0.373 1.413 15.8 0.504 37.074 1.118 54.081 0.107 2.96-0.341 5.852-0.372 8.579-0.03 2.588 1.391 5.644-0.746 7.459 0.181-24.273-0.077-48.938-0.746-68.254-28.23-0.821-62.757-0.188-96.974-0.373-4.479-0.024-8.724 0.369-13.054 0.373-4.539 0.004-9.042-0.746-13.801-0.746-34.775 0-71.425 0.333-105.55-0.373-0.02-0.74-1.033-0.47-0.761-1.49z" fill="#FFFFF7"/>
	<path d="m404.05 123.83c1.634-0.271-0.301 0.741 0.745 0.746-0.221 2.924-0.096 3.844-0.373 6.713-0.87-1.75-0.14-5.1-0.38-7.46z"/>
	<path d="m366 132.78c1.07 19.258 1.402 43.974 1.492 66.762-1.4-22.83-1.78-43.26-1.49-66.76z" fill="#FFFFF7"/>
	<path d="m370.48 148.07c1.024 2.015 0.972 7.11 1.119 11.189 0.415 11.438-0.045 24.028 0.373 34.687-1.151-6.935-0.956-14.656-1.119-22.005-0.16-7.46-0.57-15.35-0.37-23.87z" fill="#FFFFF7"/>
	<path d="m400.32 151.43h1.119c0.105 0.976-0.136 1.604-1.119 1.491v-1.49z" fill="#FFFFF7"/>
	<path d="m392.49 151.8c0.434-0.062 0.664 0.082 0.746 0.373-0.461 2.647 0.943 7.16-0.746 8.578-0.02-3.79-0.13-5.37 0-8.95z" fill="#FFFFF7"/>
	<path d="m399.95 154.04c-0.045 0.949-0.542 1.446-1.491 1.492-0.58-1.19-0.14-1.64 1.49-1.49z" fill="#FFFFF7"/>
	<path d="m382.04 160.38h1.119c0.01 4.364-0.092 10.872 0 15.665-1.376-0.072-0.688-1.997-0.746-2.611-0.41-4.29 0.28-8.73-0.37-13.05z" fill="#FFFFF7"/>
	<path d="m380.92 169.7c0.143-0.71 0.475 0.238 0.373 0.746-0.13 0.71-0.47-0.24-0.37-0.75z" fill="#FFFFF7"/>
	<path d="m379.06 171.2c0.63 2.088 1.188 6.978 0.373 10.816-1.19-2.33-0.93-7.97-0.37-10.82z" fill="#FFFFF7"/>
	<path d="m380.55 177.54c0.172-1.031 1.314 0.55 0.746 1.118-0.06 0.05-0.72-1.26-0.75-1.12z" fill="#FFFFF7"/>
	<path d="m67.626 196.93c0.056-0.928 1.263-0.109 1.492 0-0.245 1.12-0.798-0.36-1.492 0z"/>
	<path d="m342.51 212.22c0.666 6.865-0.28 15.454 0.373 21.632-1.938-1.212-1.119-5.688-1.119-9.324v-11.189c-0.2-0.82 0.71-0.53 0.75-1.12z" fill="#FFFFF7"/>
	<path d="m150.05 262.58c0.979 2.004 2.268 3.699 3.729 5.222 0.938 0.429 2.559 0.177 2.611 1.491-4.28 0.15-6.82-3.33-6.34-6.71z" fill="#FFFFF7"/>
	<path d="m148.19 263.32c1.096 2.51 2.58 4.631 4.476 6.341 1.477 0.264 3.455 0.026 3.73 1.492-5.7 0.57-8.97-3.19-8.21-7.83z" fill="#FFFFF7"/>
	<path d="m145.95 264.07c0.434-0.061 0.664 0.083 0.746 0.373 0.489 5.106 3.796 7.394 8.579 8.206-5.22 2.37-11.11-2.73-9.33-8.58z" fill="#FFFFF7"/>
	<path d="m322 264.07c0.635-0.137 0.703 0.291 0.746 0.746-0.317-0.068-0.353 0.146-0.373 0.373-0.45-0.07-0.33-0.69-0.38-1.12z"/>
	<path d="m126.93 296.52c0.155-0.396 2.045-0.866 1.865-0.373h6.714c0.923-0.048 0.634 0.457 0 0.373h-8.59z"/>
	<path d="m174.3 296.52c0.396-0.847 2.345-0.142 3.357-0.373-0.4 0.84-2.35 0.13-3.36 0.37z"/>
	<path d="m395.84 161.5c-0.722-1.06 3.485-4.108 1.865-4.849-2.352-0.486 0.172 3.901-2.984 2.61-0.256 1.5 0.357 2.129 0.373 3.356-2.433-0.732-2.613 1.198-1.864 2.611-0.849 0.271-1.905 0.332-2.611 0.746 1.87 1.721-1.516 1.984-1.491 2.61-0.022-0.573 0.926 1.942 0 1.865-0.229 1.528-1.025 0.747-2.238 0.746v3.729c-1.385 0.122-2.453 0.166-1.492 2.238-0.98 1.061-1.413 0.73-2.61 1.118 1.242 3.106-0.922 1.572-1.492 3.73-0.183 0.689 0.002 1.056-0.373 1.491-2.689-0.114-0.688 2.992-3.356 3.357 0.234 1.096-0.301 1.397-0.746 2.237-0.367 0.694-1.028 1.597-1.492 2.238-1.134 1.57-2.285 2.607-2.61 4.103-4.814 5.132-8.021 11.87-12.682 17.157-1.636-3.092-1.341-6.998-1.491-10.443-0.403-9.19 0.295-21.559 0-32.822-0.965-36.742-1.164-74.031-2.238-111.15-7.142 0.117-13.973-0.061-18.648 0.746 1.324 1.548 4.959 0.746 8.205 0.746 3.364 0 6.825-0.382 8.951 0 1.096 6.202 0.928 12.707 1.119 19.021 1.04 34.323 0.342 72.665 1.865 110.77 0.265 6.626-0.757 13.317 0 19.768 0.207 1.767 0.56 2.591 0.746 3.357 0.144 0.591 1.44 1.549-0.373 2.237-2.433 0.059-1.408-3.061-1.492-4.103-0.798-9.943-0.373-21.575-0.373-33.194 0-13.262-0.53-26.863-0.746-39.163-0.446-25.43-0.396-52.475-1.492-77.952-6.149-0.233-8.982 0.563-14.918 0.373 2.084 3.014 9.104-0.661 13.054 1.119 1.969 24.85 1.022 50.423 1.864 76.46 0.696 21.509 0.604 43.406 1.492 66.762 0.124 3.252-0.587 6.807 0 9.324 0.396 1.696 0.073 1.902 1.492 1.865-0.533 0.835-1.197 1.537-1.865 2.237-2.123-0.104-1.094-2.828-1.119-3.729-0.324-11.607-0.26-21.431-0.372-32.821-0.196-19.839-1.206-41.006-1.119-60.795 0.077-17.638-0.62-38.552-1.492-58.184-1.804-0.463-3.979-0.463-5.968-0.373-1.932 0.087-4.407 0.095-5.967 1.119 1.941 2.025 7.146-0.925 10.442 0.373 1.053 3.041 0.97 6.527 1.119 9.697 0.483 10.234 0.319 20.161 0.373 30.211 0.072 13.438 0.489 26.893 0.746 39.163 0.502 24.013 0.86 48.408 1.119 70.492 0.018 1.528-0.072 3.014 0 4.476 0.052 1.062 1.282 2.056-0.373 3.357-1.993-2.411-1.119-6.709-1.119-10.816v-11.936c0-44.971-1.919-89.664-2.237-133.9-3.103 0.379-7.209-0.247-9.325 1.119 1.555 1.883 4.864-0.148 7.46 0.373 1.87 13.969 0.95 28.115 1.492 42.146 0.352 9.125 0.127 18.369 0.373 27.601 0.483 18.19 0.299 37.327 0.745 57.438 0.22 9.885 0.299 20.096 0.746 29.465 0.546 0.007 1.183-1.572 1.119 0-0.937 0.805-0.98 2.501-2.238 2.984-0.45-36.323-1.188-68.712-1.864-104.06-0.045-2.318 0.043-8.37 0-13.427-0.11-13.048-0.351-26.408-1.119-40.281-1.01-0.619-4.585-0.619-5.595 0-0.226 2.464 3.909 0.567 4.476 2.238 0.83 24.094 1.124 50.554 1.865 76.46 0.547 19.131 0.22 39.578 0.746 58.184 0.166 5.88-0.244 11.485 0 16.784 0.126 2.74 1.168 4.535 0.373 6.34-3.204-1.812-1.865-6.39-1.865-9.324 0-21.782-0.694-48.195-0.746-68.254-0.037-14.504-0.701-28.185-0.746-41.773-0.041-12.449-0.199-26.162-1.119-37.67-19.052-0.274-35.765 0.763-53.708 0 0.631 1.992 3.189 1.066 4.476 1.119 16.673 0.686 30.401-1.215 48.114 0 1.273 27.107 1.157 55.139 2.237 83.173 0.837 21.702 0.132 43.721 0.373 66.763 0.017 1.546-0.13 3.264 0 4.849 0.078 0.947 1.73 2.56 0 3.356-1.495-0.242-1.094-2.47-1.119-3.356-0.284-9.943 0.084-21.46-0.373-32.449-0.521-12.577 0-26.363 0-40.281 0.001-25.879-1.349-52.898-1.864-76.459-0.352 43.25 1.384 89.208 1.492 131.29 0.015 5.722-0.328 11.687 0 17.157 0.081 1.353 0.423 4.973 1.118 5.222-0.767 2.714-2.852 4.11-4.103 6.341-0.927 2.43-2.646 4.068-4.849 5.221-0.186-23.232-0.746-52.462-0.746-82.427 0-26.106-1.137-53.526-1.119-79.071-3.539 0.439-8.871-0.915-11.188 0.746 1.449 1.859 6.178 0.198 9.697 0.746 1.004 6.206 0.354 12.55 0.373 19.022 0.061 20.364 0.798 39.879 0.746 60.421-0.032 12.716 0.054 25.511 0.372 38.044 0.324 12.758-0.117 25.713 0.373 38.416 0.111 2.867 1.849 5.148-0.745 7.087-0.798-32.571-0.839-73.996-0.746-110.4 0.011-4.231-0.739-8.513-0.746-13.054-0.018-11.963-0.258-26.114-0.373-38.417-2.441-0.499-5.392-0.563-8.205 0-0.056 2.791 4.811 0.66 6.34 1.865 1.591 43.342 0.208 81.276 1.865 118.98 0.611 13.913-0.851 28.691 0.373 42.52 0.713 0.174 1.605-1.15 1.492 0.373-2.488 1.614-2.822 5.383-5.595 6.713-1.293-35.951 1.149-69.929-0.373-106.3-0.709-16.926-0.688-37.704-1.119-58.557-21.786 0.707-36.727-0.562-61.168 0.373 0.219 2.756 3.628 1.137 5.222 1.119 14.488-0.169 38.338 0.776 54.454 0.373 0.547 42.603 1.492 94.621 1.492 139.12 0 7.082-0.883 14.483 0 20.887 0.261 1.889 0.459 2.631 1.492 4.103-1.619 1.904-2.707 6.187-4.849 6.341-1.143-25.479-0.852-57.998-1.119-83.547-0.348-33.185 0.003-55.928-0.746-83.173-10.997-0.013-23.204 0-35.06 0-11.801 0-23.681-0.978-33.94 0-0.894 0.085-2.874-0.852-2.611 1.119-1.128-0.86-1.796-0.915-3.356-1.119-12.513-1.638-29.967 0.936-42.52 0.373 1.337 2.289 4.562 1.167 6.714 1.119 9.378-0.21 19.288-0.156 27.973 0 26.064 0.468 52.906 0.252 80.936 0.746 0.53 27.918 1.119 53.946 1.119 83.546 0 25.137 0.238 50.227 0.373 75.341 0.017 3.121 0.873 6.68-0.373 9.697-1.122-3.356-0.746-6.973-0.746-10.443 0-53.717-0.924-100.94-1.118-157.4-36.627 0.324-76.52-1.118-113.38 0 0.984 2.301 3.812 1.438 5.595 1.492 29.341 0.899 62.106-0.463 91.379 0.373 3.976 0.113 7.729-0.609 11.189 0.373-15.022 1.318-29.855 0.217-44.758 0.373-14.44 0.151-29.157 0-44.384 0h-76.086c-1.924 0-3.871-0.041-5.968 0-1.351 0.026-3.611-0.676-4.849 0.746 1.363 1.809 3.63 0.364 5.222 0.373 2.001 0.011 3.991 0.317 5.968 0.373 48.511 1.365 116.34-1.174 165.23 0.373 1.345 28.175 1.492 59.291 1.492 83.546 0 31.73-0.244 60.59 0.746 85.038 0.236 1.893 1.97 2.655-0.373 3.356-1.972-0.139-1.075-2.923-1.119-3.729-0.646-12.056-0.424-24.485-0.373-35.433 0.204-43.961-0.078-90.847-0.745-131.66-13.743-0.009-26.916-0.548-43.639-0.373-20.698 0.217-43.006-0.182-62.286-0.373-19.43-0.192-37.757 0.355-58.185 0-2.076-0.036-4.124-0.046-6.34 0-1.568 0.033-3.76-0.635-5.222 0.746 2.366 1.576 4.922 0.359 7.459 0.373 20.584 0.111 45.528 1.357 64.897 0.746 33.941-1.071 71.083-0.042 101.45 0 1.452 50.307 1.492 101.88 1.492 154.04 0 5.304 0.401 10.083 0.373 15.665-0.006 1.091 1.354 3.528-1.119 3.729-0.306-27.846-0.494-59.956-0.746-85.411-0.306-30.885 0.18-59.09-0.746-86.53-13.979-1.022-27.306-0.437-40.654-0.746-34.841-0.806-85.456 0.654-130.91-0.373 2.118 2.965 6.523 1.851 9.697 1.865 23.682 0.104 54.774 0.357 76.833 0 22.146-0.358 52.515 0.522 83.174 0.746 1.857 54.439 0.534 112.55 1.864 167.46 0.049 1.997 1.296 5.656-1.492 6.714-1.108-43.603-0.082-83.974-0.745-133.15-0.183-13.529-0.286-26.985-1.119-39.908-42.635-0.654-82.262-0.373-124.2-0.373h-100.7c-4.55 0-9.228-0.477-13.427 0.373 0.963 2.02 3.863 1.118 5.222 1.119 35.415 0.037 68.461 0.2 105.55 0 42.905-0.232 88.067-0.08 126.06 0.746 0.311 22.286 1.229 44.902 1.119 67.881-0.143 29.659 0.373 59.712 0.373 89.142 0 5.193 0.445 10.188 0.373 14.546-0.016 0.954 1.066 3.301-1.119 3.356-0.175-29.64-0.754-62.139-1.119-88.395-0.348-25.018 0.706-56.193-0.746-85.412-12.813-1.112-25.645 0.069-38.416-0.373-14.336-0.496-28.75-0.569-43.266-0.373-14.307 0.193-29.051 0.809-43.265 0.373-3.672-0.112-7.602-0.663-11.562-0.746-29.74-0.622-61.689 0-92.125 0-2.147 0-4.492-0.622-6.34 0.746 1.202 2.433 4.419 1.481 6.34 1.492 17.375 0.094 36.11 0 54.082 0h87.276c30.605 0 55.597 0.066 86.156 0.746 2.601 37.487-0.433 70.133 1.119 109.65 0.637 16.202-0.274 36 0.746 57.438 0.126 2.639 0.442 5.319-0.373 7.832-1.368-1.86-0.746-4.229-0.746-6.34 0-25.601-0.429-54.161-0.373-79.444 0.005-2.016-0.724-4.01-0.745-5.967-0.047-4.144 1.243-8.758-0.373-11.936-0.394 36.521 0.036 77.664 0.745 111.15-13.274 1.718-26.955 0.354-37.297 0.746-3.957 0.149-8.039-0.224-11.936 0.746-2.803-1.9-6.293-0.739-9.324-0.746-3.132-0.008-6.205-0.244-9.324-0.373-48.619-2.017-108.04-1.391-157.77-1.119-9.02 0.049-17.708-0.961-26.108 0-0.674 1.124-1.143-1.061-2.611-0.373-2.016-0.369 0.151 1.115-1.865 0.746-6.37-1.597-17.084-1.269-26.854-1.119-6.69 0.103-13.43-1.012-19.021 0 0.111-28.314 0.182-62.627-1.492-96.228-0.466-9.354 0.595-18.458 0.746-27.227 0.021-1.233 0.186-3.068 0-4.103-0.017-0.095-0.746-0.741-0.746-0.746 0.002-0.364 0.721-0.938 0.746-1.119 0.291-2.093-0.162-6.363 0-9.324 0.212-3.881 0.555-6.817 0.373-11.562-0.32-8.33-0.239-16.342 0-24.616 0.205-7.069 2.621-8.925 6.341-13.054 3.463-3.844 4.739-4.879 10.07-6.713 0.864-0.297 1.691-0.436 2.611-0.746 1.836-0.621 3.483-1.242 6.34-1.492 1.922-0.192 2.019-2.208 4.849-1.492 0.886-0.233-0.058-2.295 0.746-2.611h3.729c1.412 0.044 0.555-2.181 1.865-2.238h3.73c1.538-0.925-1.498-2.32 0.373-2.611 0.234-0.35 0.691-0.189 1.119-0.373 0.544-0.233 0.476-0.614 0.746-0.746 1.656-0.811 3.552 0.028 4.103-1.865 1.734-0.379 3.676-0.55 4.849-1.492 3.986-7.716 9.639-15.28 21.259-14.173 1.877-0.036 0.155-1.508 1.492-2.238 1.201-0.082 1.578 0.66 2.983 0.373 1.265-2.989 4.146-2.428 6.341-4.103 1.548-1.181 2.68-3.642 4.476-5.222 1.382-1.216 3.738-2.229 5.595-3.73 1.892-1.528 3.319-3.756 4.849-4.103 2.744-0.622 8.729 2.827 8.951-1.865-1.854-1.596 0.657 0.152 1.119-0.373 1.549-1.762 2.222-0.46 5.222 0 4.437 0.681 10.767 0 16.784 0 6.111 0 12.443 0.516 16.411-0.746-9.855-0.887-23.204-0.102-32.449-0.373 1.285-1.411 3.648-0.721 5.222-0.746 24.75-0.395 58.009-0.248 79.816-0.373-0.817-2.011-3.486-1.098-4.849-1.119-22.62-0.345-45.518 0.746-68.627 0.746-1.75 0-3.673 0.09-5.595 0-1.283-0.06-3.73 0.807-4.476-1.119-1.608 0.484-2.857 2.969-4.849 1.865 7.059-5.374 15.166-9.7 21.259-16.038 1.933 0.863 3.771-0.496 5.595 0.373 1.4-0.465 0.662-3.068 2.238-3.357-0.085 1.728 0.537 0.619 1.865 1.119 1.547 0.304 0.187-2.299 1.119-2.611 1.555 0.187 1.645-1.09 3.357-0.746 1.967-2.382 4.198-5.757 7.086-7.833 9.057-6.507 31.278-3.148 45.13-3.729 3.925-2.36 11.006-1.737 19.021-2.611 5.018-0.547 9.954-1.547 14.173-1.865 4.455-0.336 10.146-0.81 13.055-0.373 0.11 0.017 0.268-0.038 0.373 0 1.694 0.601 2.95 2.347 4.476 2.238 1.988-0.142 3.05-1.515 4.103-2.984 1.909-0.329 3.183-1.293 3.729-2.984 0.751 1.126 2.299 0.061 3.357 0 4.306-0.248 9.215-0.479 14.546-0.373 6.699 0.132 14.442-0.514 20.141 0.373 2.044 0.318 3.683 1.189 4.849 2.611 0.504-1.13 1.53-2.061 2.61-2.984 3.157-2.699 9.263-2.976 14.174-3.356 6.648-0.516 12.904 0.51 19.768 0 4.909-0.365 9.643-2.28 14.546-2.238 2.085 0.018 5.428 0.377 8.578 0.746 2.019 0.236 4.732 0.941 7.087 1.492 3.413 0.798 6.72 1.092 9.324 2.238 4.437 1.951 7.003 5.953 11.189 7.086 0.727 0.902 1.132 2.347 1.118 2.984 5.634-0.76 10.154-1.101 11.189 4.103 0.773 2.141-1.399 1.336-1.119 2.984 1.728 4.781 0.695 9.459 1.119 14.546 0.138 1.649 0.112 2.812 1.119 4.103-0.554 1.039-1.667-0.789-1.492 0.746-0.159 1.771 1.167-1.271 1.492 0.746-0.697 7.024 0.42 14.333 0 21.259-0.121 1.989-0.683 4.04-0.746 5.968-0.11 3.369 0.457 6.684 0 9.697-0.098 0.643-0.2 1.788-0.746 0.746 2.418 4.616 0.52 12.404 0.746 17.53 0.175 3.95 0.843 7.812 1.119 11.935 0.309 4.611-0.252 9.499-0.373 14.546-0.184 7.653 1.475 14.836-0.373 21.633 0.762 1.007 0.593 1.369 0.746 2.238 0.513 2.921 0.668 2.927-1.119 5.594-1.74 2.63-4.21 5.98-5.91 8.52zm-25.73-157.4c-6.229-1.046-17.027-2.217-23.87-1.492-0.052 0.006 0.057 0.711 0 0.746-0.553 0.34-2.029-1.097-2.238-0.373-0.787 0.332-1.102 1.136-2.237 1.119-6.835-0.333-14.974 0.018-19.768 0.746-1.979 0.3-4.619-0.614-5.968 1.119 1.705 1.235 3.813-0.217 5.595 0.746-0.107 1.384-1.974 1.01-1.865 2.611 1.043 0.946 2.306 1.673 2.984 2.984-2.216 1.546-3.296-0.807-4.476-1.492-0.515 0.933-1.127 2.882-3.357 1.492 0.203-1.414 1.553-1.68 2.238-2.611-0.77-1.574-2.301-2.72-1.865-4.476-6.325 0.737-14.117 2.367-11.562 9.698 14.515-0.078 31.408-0.638 46.995-0.373-0.956-3.425-2.75-7.902-3.356-10.443 1.255 0.237 2.719 0.265 3.356 1.119-0.617 1.395 0.548 3.815 0.746 5.595 8.817 0.479 18.246-0.312 26.854 0 2.049 0.074 4.374 1.264 5.967 0-4-2.244-8.03-5.683-14.18-6.715zm-71.99 4.476c-8.125 0.243-22.67-1.685-32.449-0.746-6.855 0.659-12.981 3.691-12.309 11.189 14.811 0.188 35.01-0.429 49.979 0.373-1.79-3.551-1.42-9.261-5.22-10.816zm-94.36 6.34c-1.057 2.424-2.324 4.638-2.61 7.832h52.216c-1.043-2.068-2.16-7.286-4.103-9.697-13.56-2.492-30.2 1.533-45.51 1.865zm168.59-1.865c0.634 0.084 0.923-0.42 0-0.373h-6.714c-2.59-0.974-5.097 0.006-7.459 0-1.85-0.004-4.288-1.278-5.595 0.373 7.26-0.089 12.12-0.058 19.77 0zm-15.67 1.119c-0.772 0.222-2.45-0.461-2.611 0.373 0.68 0.686 2.09 0.198 2.61-0.373zm31.7 0c-2.38-0.43-0.82 1.139 0 0zm-188.35 1.492c1.89 1.017 1.39-1.302 0 0zm104.06 0.746c0.988 2.048 3.812 1.089 5.222 1.119 28.83 0.6 55.804-1.078 86.903 0 1.32 22.299 0.767 47.723 0.746 70.12-0.016 17.38 0.688 35.217 0.746 49.605 0.017 4.287-0.157 9.355 0 11.562 0.087 1.229 0.043 3.024 1.119 3.729 0.172-12.084-0.222-23.925-0.373-33.94-0.589-38.79 0.232-69.725-1.492-102.2-29.93-0.987-63.21-0.084-92.88 0.001zm-124.95 0c-2.975-0.187-6.447 0.569-9.697 0.373-4.637-0.28-8.237 0.457-11.935 1.865-2.746 2.6-5.619 5.073-7.833 8.206 16.642-0.592 38.357-0.514 51.471-0.373-2.372-3.239-1.355-7.58-4.476-10.07-5.09-1.209-11.55 0.375-17.52-0.001zm20.89 1.492h1.119c0.048-0.669-0.37-0.873-1.119-0.746v0.746zm199.92 1.119c0.021-0.642-0.287-0.956-0.745-1.119-0.53 0.545-0.55 1.444 0.75 1.119zm-93.99-0.373c0.042 0.455 0.111 0.883 0.746 0.746 4.033-0.026 7.915 0.035 11.562 0 3.597-0.035 7.128 0.341 10.07 0 0.78-0.09 2.16-0.015 2.61-1.119-9.33 0.282-17.14-0.187-24.99 0.373zm85.41-0.373c-5.347 0.248-11.686-0.496-16.411 0.373 4.58 0.189 12.78 1.091 16.41-0.373zm3.35 7.832c0.033 1.899 0.31 5.227 0.373 7.459 1.088 38.159 0 78.875 1.119 113.76 0.085 2.644-0.531 5.609 0.746 7.832 0.082-31.977-0.934-67.799-0.746-102.2 0.031-5.737 0.37-10.826 0-18.648-0.229-4.833 0.245-15.363-1.865-16.038-0.617-0.197-1.588-0.133-2.237 0.373 3.65-0.329 2.54 2.571 2.62 7.461zm-19.39-4.475c-1.292-0.573-2.131-1.599-3.356-2.238-12.258 0.727-26.494-0.392-39.162 0-3.55 1.485-3.822 6.427-2.611 10.816 12.486-0.121 30.062 0.376 40.654-0.746 1.535 0.951 4.245 0.728 6.714 0.746-0.74-3.624-1.77-4.673-2.23-8.578zm7.46-1.119c-0.993 0.021-4.537 0.724-5.595 0.373 4.451 1.477 9.693-1.379 14.919 0.373 1.304 8.158 0.798 16.589 0.746 24.989-0.229 36.823 1.233 73.561 1.119 108.16-0.004 0.94-0.661 2.811 0.745 3.356 0.318-31.75 0.176-56.2-0.373-86.157-0.301-16.491-0.257-33.772-0.745-51.098-4.18-0.199-7.32-0.074-10.83-0.001zm-82.05 1.119c1.928 0.051 4.855 0.779 6.341-1.119-16.278 1.063-35.186-0.897-52.59 0.373 15.39 0.602 35.67 0.466 46.25 0.746zm7.46-1.119c-0.291 0.083-0.434 0.312-0.373 0.746 0.082 0.291 0.312 0.434 0.746 0.373 4.839-0.363 12.111-0.633 16.783 0 1.776 1.289 3.197 1.243 3.73-1.119h-20.89zm72.35 1.492c-0.29 0.082-0.434 0.312-0.373 0.746 5.668 0.152 7.178-0.567 10.816 0 0.998 42.527-0.092 82.092 1.492 121.59 0.075 1.873-1.059 4.339 0.746 5.595 0.394-11.94-0.558-22.575-0.746-34.687-0.393-25.251 0.368-64.516-1.119-92.871-3.5-0.495-8.36-0.919-10.82-0.373zm-115.99 0.373c-2.614 0.245-6.211-0.493-8.205 0.373 2.6-0.246 6.2 0.492 8.2-0.373zm4.84 0c-1.256 0.236-3.464-0.481-4.103 0.373 1.26-0.236 3.47 0.48 4.1-0.373zm8.58 0c-1.871 0.242-4.716-0.489-5.968 0.373 1.88-0.243 4.72 0.489 5.97-0.373zm41.78 0.746c-5.265-0.037-11.158-0.476-17.902-0.373-4.978 0.077-14.89-0.122-19.395 0.373-1.391 0.153-2.63-0.063-3.357 0.373-4.14 2.488-0.486 7.261 0.373 11.189 8.367-1.236 20.378 1.229 31.703 0 1.697-0.185 3.181-1.031 4.849-1.119 4.283-0.225 10.141 1.268 14.173 0-2.53-2.193-1.875-7.573-4.103-10.07-1.92-1.015-4.08-0.357-6.33-0.373zm70.12 77.955c-0.164 11.312 0.373 18.087 0.373 29.465 0 9.394-0.553 22.174 0 29.838 0.078 1.083-0.21 2.899 1.119 3.356-0.521-18.125-0.376-38.322-0.746-57.811-0.559-29.432-0.539-50.406-0.746-81.681-3.582-0.637-9.09-0.808-11.935 0 3.461 1.249 7.453-1.216 10.816 0.746 1.22 21.968 0.09 50.244 1.12 76.085zm-187.61-76.836c0.547 1.422 2.438 0.713 3.356 0.746 4.545 0.162 8.759 0 13.054 0 16.532 0 36.046-1.207 51.471 0 2.051 0.16 5.353 2.129 6.341-0.746-23.08-0.677-47.9 0.464-74.22 0zm178.65 1.491c-4.485-0.253 0.251 1.126 1.492 0-0.73-0.621-0.47 0.034-1.49 0zm5.23 0c-1.185 0.313 0.662 0.492 1.119 0.373 0.215 14.383 0.4 29.092 0.373 44.011-0.051 27.789 0.833 58.872 1.119 85.784 0.021 2.068-0.629 4.572 0.746 6.341 0.152-33.55-0.629-58.627-1.119-91.752-0.206-13.902 0.924-29.339-0.746-45.13-0.65-0.024-1.16 0.088-1.49 0.377zm-183.13 0.746c7.032-0.124 19.951 0.392 26.108-0.373-7.8 0.165-17.92-0.444-26.11 0.373zm28.34 0c-1.78 0.956-2.423 3.048-3.356 4.849 1.066 1.793 1.119 4.6 1.864 6.713 18.514 0.213 34.15-0.712 49.605 0-2.123-3.223-2.817-7.874-5.222-10.816-14.32-2.215-29.37 0.776-42.88-0.746zm-11.93 1.492c-1.345-0.152-0.511 0.682 0.373 0.373 3.529-0.936 6.111 1.842 7.833 0.373-0.052-0.695-0.246-1.247-0.746-1.492-2.11 0.622-5.01 0.459-7.45 0.746zm159.63 0c1.21 1.027 4.778-0.303 5.967 0.746-0.1 23.743 0.188 48.312 0.746 70.492 0.5 19.875 0.073 42.079 0.373 63.405 0.037 2.631-0.587 6.205 1.119 7.087 0.442-20.24-0.373-47.228-0.373-69 0-23.777-0.529-48.604-0.746-73.476-2.24 0.368-6.05-0.829-7.09 0.739zm-225.65 0.373c-2.329 0.059-6.456-0.825-7.833 0.746 9.14 0.406 17.534 0.038 24.989 0 3.212-0.017 6.851 1.414 9.697-0.746-9.81-1.047-18.61-0.206-26.86 0zm49.61-0.746c-3.59-0.464-1.98 1.143 0 0zm3.35 0.373c-0.542 0.204-1.928-0.436-1.865 0.373 0.55-0.204 1.94 0.436 1.87-0.373zm0.75 0.373c1.091 1.091 8.732-0.591 9.324-0.373-1.74-0.95-8.58 1.118-9.32 0.373zm20.51 8.952c-0.62-2.03-0.383-4.612-1.492-5.968-2.505-3.059-14.094-1.865-21.633-1.865-3.963 0-7.826-0.023-11.562 0-3.972 0.024-8.106-0.499-11.188 0-5.017 0.812-5.363 8.663-7.087 11.935 10.262-1.068 19.887 0.017 29.092 0 5.848-0.011 10.876-0.756 16.038-0.746 3.073 0.006 6.154 0.668 9.324 0.373 0.14-1.25-0.99-2.083-1.49-3.729zm154.79-7.087c1.45 22.357 0.438 47.487 1.492 73.849 0.416 10.417 0 22.559 0 35.06-0.001 9.722-0.333 21.383 0.372 30.211 0.088 1.1-0.013 3.058 1.119 3.729-0.604-31.226 0.188-63.684-1.119-91.005-0.21-4.409 0.754-9.023-0.745-13.427 1.412-0.9 0.716-3.042 0.745-4.476 0.242-11.731 0.021-25.102-0.372-34.687-1.134 0.234-3.213-0.478-3.73 0.373 0.88-0.008 1.1 0.642 2.24 0.373zm-237.59 0.373c-0.886 0.066-2.889-0.686-3.357 0.746 9.184 0.906 19.644-0.289 28.346 0 2.183 0.072 5.999 1.742 7.087-1.119-12.97 0.058-22.14-0.365-32.08 0.373zm229.38 1.492c-11.781-1.508-28.891 0.063-42.892-0.373-0.8 2.201 2.425 1.42 3.729 1.492 13.188 0.723 31.557-1.27 45.876-0.373-0.103 5.012-0.428 10.559-0.373 16.784 0.053 5.95-0.563 13.158 0.373 19.768 0.151 1.063 0.244 1.383 0.746 2.238-0.881 1.68-0.4 3.734-0.373 5.595 0.461 31.083 0.473 56.558 0.746 82.427 1.433-0.681 0.701-2.646 0.746-3.729 0.052-1.251-0.007-2.501 0-3.729 0.168-29.179-0.44-61.719-0.746-91.752-0.105-10.315 0.157-20.216-0.746-29.092-2.78-0.153-5.08 0.158-7.1 0.75zm-203.64 1.119c1.132 0.716 4.429 0.866 5.595-0.373-1.11-0.446-5.06-0.956-5.59 0.373zm-4.85-0.373c-9.481-0.651-22.55 1.11-31.33 0.746-5.232 3.346-9.601 7.556-13.8 11.935 18.565-0.206 34.18-1.105 52.589-0.373 0.192-1.623-1.571-3.223-2.238-5.595-0.539-1.914-0.107-4.258-1.492-5.595-1.09-0.557-2.4-1.026-3.73-1.118zm200.28 1.119c-3.535 0-7.51-1.369-10.443 0.373 6.534 0.367 15.402 0.97 20.514-0.373-3.12-0.851-6.58 0-10.07 0zm11.2 0c-1.504 1.054 1.832 0.371 1.492 1.492 0.697 9.723 0.232 21.253 0.373 32.449 1.91 0.009 0.66-2.778 0.745-3.357 0.22-4.483 0-10.816 0-17.157 0-4.838 0.595-9.8-0.745-13.8-0.86-0.119-1.43 0.06-1.86 0.373zm-202.16 0.746c-0.396-0.847-2.345-0.142-3.357-0.373-0.55 1.516 3.49 1.689 3.36 0.373zm224.91 108.16c0 2.307-0.628 4.964 0.746 7.086 0.194-18.905-0.383-39.277-0.746-56.692-0.427-20.535 0.846-39.354-0.745-58.93-0.61 37.499 0.75 73.002 0.75 108.53zm-84.67-107.42c-1.384 0.075-2.954 0.784-3.356 1.119-3.283 2.737-1.413 7.283 0 11.562 17.452 0.29 31.782-1.354 49.232 0 0.019-1.723-1.185-2.86-1.864-4.849-1.023-2.988-0.839-4.593-2.611-6.34-0.529-0.522-0.996-1.195-1.492-1.492-8.86 0.816-29.65-0.555-39.91 0zm61.92 1.492c-0.284 20.685 0.308 37.499 0.746 53.335 0.071 2.594-0.089 5.187 0 7.833 0.057 1.698-0.676 3.872 0.746 5.221-0.533-21.232-0.328-49.279-0.746-67.135-5.184-0.602-9.649-0.338-14.919-0.373-1.206-0.008-3.242-0.661-4.103 0.746 5.61 0.869 13.02-1.268 18.27 0.377zm-95.86 0c5.058 1.126 16.034 0 21.633 0 2.535 0 5.693 0.609 6.713-0.746-9.076-0.87-19.767-0.125-29.465-0.373 0.12 1.394 0.4 0.959 1.12 1.119zm-108.54 3.357c2.267-0.285-0.107-2.894 1.865-3.357-0.44-0.43-1.318-0.422-2.238-0.373-0.28 1.659 0.51 2.238 0.38 3.73zm189.48-1.865c2.828-0.777 7.019-0.191 10.443-0.373 0.062-0.809-1.323-0.169-1.865-0.373-2.703-0.001-7.917-0.606-10.816 0.373 0.65 0.214 2.19-0.451 2.24 0.373zm-58.93 0c2.101-0.54 5.015 0.999 5.595-0.373-1.29-0.894-5.68-0.078-5.59 0.373zm71.23-0.374c1.664 1.231 0.164 13.813 0.373 17.53 0.075 1.325 0.362 2.512 0.373 3.73 0.157 17.961 0.857 36.49 0.746 52.962-0.127 18.86 0.642 36.167 0.746 55.573 0.024 4.609-0.174 9.639 0 13.055 0.062 1.239 0.045 3.267 1.119 4.103-0.513-23.739-0.731-48.557-1.119-74.595-0.282-18.976 0.568-47.936-0.746-69-0.05-0.803 0.998-4.062-1.492-3.73-0.438 0.059-1.059-0.064-1.118 0.373 0.27 0.164 0.88-0.158 1.12 0.02zm-116.36 2.239c-2.092 3.471-3.019 7.029-1.492 11.562 18.683 0.215 38.049-0.443 55.2 0.373-2.247-3.472-2.33-9.108-5.222-11.935-16.11-0.908-32.13-1.422-48.49 0zm102.19-0.746v1.119c3.998 0.229 8.926-0.471 12.309 0.373 0.161 22.829 1.119 46.909 1.119 73.103-0.001 22.845 0.215 50.869 1.118 70.119 0.052 1.102-0.851 3.603 1.119 4.103-1.072-31.482-0.631-62.445-1.119-94.362-0.05-3.294 0.421-7.441-0.373-10.443-0.436-1.65-0.357-0.27 0-1.865 0.104-0.458-0.027-1.021 0-1.492 0.771-12.884-1.232-26.705-0.373-40.654-3.81-0.581-10.02-0.639-13.81 0.002zm-129.05 1.491c6.097-0.032 14.742 0.133 20.141 0 1.794-0.044 4.113 0.24 4.849-1.119-7.31-0.926-16.271 0.747-25.362-0.373-0.03 0.65 0.08 1.16 0.37 1.492zm129.8 1.119c0.44 1.386 2.927 0.694 4.476 0.746 2.056 0.069 4.036-0.304 5.222 0.373 0.667 37.208 0.504 75.367 1.119 111.15 0.211 12.262 0.662 24.63 1.492 36.552-0.428-47.439-1.035-99.432-1.865-148.82-3.61-0.264-7.66-0.254-10.44-0.004zm-108.54 0c-1.123-0.054-2.28 0-3.357 0-26.579 0-49.331 0.556-75.341 0.373 0.783 1.876 3.192 1.073 4.476 1.119 11.907 0.421 23.146-0.373 35.433-0.373 13.829 0 25.021-0.4 36.552 0 1.4 0.049 3.669 1.39 4.849-0.373-0.19-1.39-2.03-0.718-2.61-0.746zm108.91 1.865c0.146 2.144 5.669-0.317 7.46 1.119 0.271 19.4 0.575 38.335 0.745 56.692 0.114 12.283 0.456 30.165 0.746 39.535 0.067 2.164-0.678 4.681 0.746 5.595-1.118-34.257 0.071-73.601-1.864-103.31-3.21 0.075-5.7 0.025-7.85 0.361zm-185.37 0.373c0.36 1.405 2.271 0.729 2.983 0.746 6.699 0.162 12.939-0.541 18.276-0.373 1.878 0.059 4.317 1.285 5.222-0.746-8.94 0.813-17.1 0.119-26.48 0.373zm78.7 7.833c-0.52-1.796-0.156-3.792-1.119-5.222-1.766-2.624-8.863-2.547-12.308-2.238-11.774 1.056-29.646-1.657-38.417 1.119-2.32 3.251-3.062 7.086-1.118 11.189 17.14-0.029 36.882 0.02 55.2 0-0.57-1.751-1.64-2.794-2.23-4.848zm107.79-5.595c1.29 0.688 3.661 1.902 5.222 1.119 0.261-1.148 0.261-0.717 0-1.865-1.68 0.305-4.7-0.719-5.22 0.746zm-162.62 3.357v-1.865c-0.892 0.228-2.706-0.468-2.983 0.373 1.41 0.075 1.41 1.568 2.98 1.492zm166.72-0.373c0.849 53.456 1.074 97.239 2.611 146.95 1.438-0.663 1.038-2.493 1.118-3.73 0.077-1.18 0.046-2.952 0-4.103-1.964-49.471-1.271-92.416-2.237-139.86-0.478-0.021-0.517-0.478-1.119-0.373-0.02 0.467-0.47 0.506-0.37 1.109zm-170.45 0c-10.238-0.573-20.283-0.746-30.957-0.746-5.403 0-11.552 0.238-17.157 1.119-1.768 2.729-3.502 7.675-1.865 11.562 17.745-0.041 35.938 0.051 54.827 0-1.54-4.058-0.83-10.353-4.85-11.935zm121.96-0.373c-2.021 0.011-4.834-0.623-5.595 0.746 18.88 1.551 36.363-1.132 51.843 0.373 0.447 28.121 0.224 56.735 1.492 82.054 0.593-27.288-0.153-56.081-1.119-83.546-15.37 0.71-31.67 0.289-46.61 0.369zm-175.29 0.746c-7.256-0.125-18.168 0.373-25.735 0.373-2.961 0-6.667-0.875-7.833 1.119 1.835 1.862 5.497 0.259 7.833 0.373 0.664 0.032 1.538 0.669 2.238 0.746 5.262 0.575 11.642-0.373 17.157-0.373 3.171 0 7.075 0.854 9.325-1.119-0.39-1.591-2.11-1.104-2.99-1.119zm221.54 77.201c-0.719-15.718-0.149-41.596-0.745-57.065-0.185-4.788 0.184-14.48-0.373-17.53-0.48-2.629-0.737-1.66-2.611-1.492-11.928 1.069-24.454 0.202-35.06 0.373-3.699 0.06-7.581-0.673-11.189 0.373 10.865 0.426 23.801 0.148 36.552 0 4.033-0.047 7.859-0.452 11.189 0.373 0.968 36.454 0.797 77.51 1.864 115.25 0.289 10.195 0.168 21.093 0.746 31.702 0.066 1.208-0.865 3.59 1.119 4.103-1.02-18.55-0.14-46.71-1.49-76.08zm-51.47-73.845c-18.014 1.615-36.956-1.208-55.946 0 0.383 2.325 3.47 1.438 5.222 1.492 8.163 0.25 19.241 0.545 24.616-1.119 1.179 0.784 2.738 1.369 4.103 1.492 5.1 0.46 11.359-0.373 17.53-0.373 11.897 0 24.474 0.163 35.805 0 5.548-0.08 10.906-1.042 15.292 0.373 0.651 25.427 0.634 53.608 1.492 76.833 0.653 17.67 0.188 38.03 1.119 54.828 0.365 6.592-0.888 13.954 0.746 20.141 1.435-0.809 0.36-2.265 0.373-3.357 0.107-9.724-0.109-23.975-0.373-34.687-0.939-38.082-1.231-78.008-2.238-116-14.69 1.444-33.36-0.903-47.73 0.385zm-168.58 1.493c-0.083-0.706 0.42-0.823 0.373-1.492h-1.865c0.05 0.949 0.55 1.446 1.5 1.492zm-0.38 5.967c-0.319-1.272 0.009-2.577-0.373-3.729-1.087-3.286-4.645-2.973-7.832-2.984-5.545-0.019-10.528 0.757-15.665 0.373-1.105-0.083-2.252-0.677-3.357-0.746-5.622-0.351-11.026 0.368-16.038 0-4.86 3.47-10.049 6.611-13.427 11.562-0.938 0.429-2.559 0.177-2.611 1.492 11.432-0.43 24.562-0.311 35.06 0.373 4.155-2.394 9.963-1.094 15.292-1.119 3.666-0.018 7.161-0.829 10.816 0 0.6-1.658-1.35-3.16-1.87-5.222zm256.98-7.087c-0.39 2.166 1.62 0.156 0 0zm-137.25 2.238c-1.379-0.015-3.667-1.315-4.849 0.373 0.419 0.079 0.581 0.414 0.746 0.746 7.548 0.688 15.209-0.022 22.006 0 1.935 0.006 5.02 1.506 5.968-1.492-9.28 0.153-15.95 0.461-23.88 0.373zm71.24-0.373c-0.418 0.079-0.58 0.414-0.746 0.746 6.2 2.552 15.484-0.418 23.498 1.119 1.185 41.291 0.237 78.401 1.864 118.61 0.392 9.673-0.052 22.041 0.373 29.838 0.059 1.075 0.045 3.007 1.119 3.729-0.396-42.265-1.456-100.27-2.61-154.04-9.8-0.17-14.98 0.536-23.49-0.007zm66.76 1.492c-0.44-0.054-0.846-0.664-1.119 0 0.84 2.887 0.3 4.606 1.12 0zm-69 0c-10.113 0.028-23.668 0-33.195 0-6.385 0-13.181-1.412-13.8 3.729 1.938 2.166 2.051 6.155 2.984 9.325 19.226-0.073 32.051-0.46 51.097-0.373-2.66-3.929-1.8-11.381-7.09-12.681zm-130.54 1.492v1.119c11.523-0.536 25.313 1.194 35.06-1.119-10.21-0.357-22.41 0.017-35.06 0zm49.23 0.373c0.892-0.227 2.706 0.468 2.983-0.373-1.31-0.162-2.12-0.574-2.98 0.373zm3.73 0c2.119-0.011 2.229 0.716 3.729-0.373-0.94-0.347-3.83-0.279-3.73 0.373zm6.72-0.373c-0.052 0.566 5.538 0.66 6.713 0-1.73 0.036-4.54-0.833-6.71 0zm9.32 0.373c1.451 0.392 4.957-0.5 3.729-0.373-1.64-0.082-2.57-0.583-3.73 0.373zm8.95-0.373c-1.273 0.054-2.863-0.78-3.356 0.373 2.983-0.795 6.284 1.82 7.832 0-0.63-1.684-2.9-0.438-4.47-0.373zm-9.7 0c-2.38-0.43-0.82 1.139 0 0zm11.57 1.865c-17.382-0.054-30.467-0.016-48.114 0-4.271 2.981-0.203 7.558 0.373 11.935 17.941 0.256 35.041-0.23 53.709 0.373-1.69-2.914-1.62-10.821-5.97-12.308zm-78.33 0c-0.29 0.082-0.434 0.312-0.373 0.746 0.083 0.291 0.312 0.434 0.746 0.373 6.313 0.455 15.166-0.602 21.26 0 2.257 0.223 5.472 2.25 5.968-0.746-9.74-0.74-16.04 0.517-27.61-0.373zm197.68 2.238c0.102-0.508-0.23-1.456-0.373-0.746-0.11 0.508 0.23 1.456 0.37 0.746zm-254 0.373c-0.291 0.083-0.434 0.312-0.373 0.746-0.001 0.374 0.302 0.444 0.373 0.746 8.179 0.188 17.157-0.494 24.616-0.373 1.755 0.028 4.836 1.498 5.595-1.119-9.95 0.737-19.02-0.062-30.22 0zm84.67 8.951c-1.093-3.05-0.761-7.212-4.103-8.206-8.016-1.048-19.371-1.005-28.347-0.373-8.431 0.594-17.07-1.834-22.005 1.865-1.236 3.204-3.131 7.249-1.492 11.189 21.967 0.262 39.95-0.831 58.184 0-0.32-1.693-1.57-2.607-2.24-4.475zm169.33-4.848c-0.729-0.856 0.719-2.406-0.373-3.357 0.17 0.95-1.36 3.226 0.37 3.357zm-236.47-1.119c1.663 0.167 3.81 0.92 5.222 0 1.042 1.038 5.322 2.147 5.595-0.373-4.437-0.575-12.241 0.562-16.784-0.373 1 1.52 3.83 0.531 5.97 0.746zm-42.52 1.492c-2.895 1.532-3.439 4.394-4.849 7.833-1.037 2.527-2.244 3.903-2.611 5.594 22.866 0.062 39.992-0.947 61.541 0-0.41-1.664-1.611-2.674-2.238-4.476-1.021-2.935-0.657-6.449-2.983-8.206-16.6-2.522-30.6 0.278-48.86-0.745zm-41.77 1.118c9.984-0.142 20.213 0.364 27.973 0.373 3.224 0.004 7.112 0.585 10.07-0.746-11.37 0.303-28.218-0.627-38.04 0.373zm299.12 12.309c0.697-3.753 0.448-8.912 0-11.935-0.082-0.291-0.312-0.434-0.745-0.373 0.73 3.586-0.27 7.785 0.74 12.308zm-303.22-10.443c13.253 0.763 24.129-0.181 35.433 0 1.608 0.025 3.839 1.679 5.222-0.746-11.78 1.107-29.465-0.691-40.653 0.746zm324.86 2.237c0.06-0.26-0.13-2.171-0.373-1.119-0.33 1.42 0.19 1.868 0.37 1.119zm-290.92-0.373c0.917 0.919 6.542 1.756 6.34-0.746-2.01 0.352-5.52-0.789-6.34 0.746zm-38.418 0c-4.939 0.029-8.191 1.376-11.189 3.356-0.606 1.383-1.321 2.657-2.611 3.357 0.076 1.402-1.16 2.566-1.865 3.73-0.603 0.995-2.474 2.48-1.119 2.983 17.443 0.377 43.564-0.783 58.932 0.747 0.245-1.572-1.191-2.972-1.865-4.849-1.134-3.162-1.376-7.09-3.73-8.951-10.916-0.551-25.629-0.438-36.548-0.373zm247.28 2.238c7.27-0.136 15.588 0.319 21.26-0.373 1.074 0.418 0.254 2.73 1.492 2.984-0.121-1.371 0.318-3.302-0.373-4.103-9.347 0.281-15.463-0.371-23.87 0.373 0.5 0.374 1.13 0.615 1.49 1.119zm-207.37 0c1.184 0.801 3.55 0.906 4.476-0.373-0.83-0.466-4.21-0.898-4.48 0.373zm123.45-0.373c1.302 2.02 4.737 1.119 7.087 1.119h15.665c2.773 0 6.531 0.846 7.459-1.119-11.67 0.251-19.82 0.108-30.22 0zm85.79 9.324c-1.026-3.157-0.757-7.388-3.356-8.205-5.146-1.618-15.304-0.746-24.244-0.746-9.352 0-17.782-0.834-22.378-0.373-8.287 0.832-7.617 9.152-6.341 14.546 18.378-0.448 37.729 0.277 58.558 0 0.37-2.126-1.46-2.831-2.24-5.222zm-0.37-7.832c1.569 1.869 5.598 0.764 8.951 0.746 3.633-0.02 7.358-0.276 10.07 0.373 0.326 43.746 1.255 90.321 1.865 135.02 1.207-0.556 1.091-2.367 1.119-3.357 0.038-1.34-0.348-3.162-0.373-4.476-0.446-22.555-0.266-41.781-0.746-58.557-0.677-23.654-0.211-45.511-1.119-69.747-5.8-0.591-12.97 0.387-19.76 0.011zm-80.57 1.119c2.828-0.777 7.02-0.192 10.443-0.373 1.345 0.153 0.511-0.681-0.373-0.373-2.452 0.09-4.707-0.017-6.714-0.373-1.897 0.248-4.56 0.762-6.34 0-0.38 1.746 2.8-0.067 2.98 1.119zm-124.94-0.746h-2.611c-0.73 2.091 3.34 2.091 2.61 0zm138 0c-2.39-0.43-0.82 1.139 0 0zm4.1 0c-0.773 0.222-2.45-0.461-2.611 0.373 0.77-0.222 2.45 0.461 2.61-0.373zm4.85 0c-4.98-0.432-3.57 1.1 0 0zm-85.41 1.865c0.925 1.439 3.103 1.047 4.849 1.119 5.578 0.228 10.858-0.373 16.783-0.373 4.144 0 8.7 0.825 11.936-1.119-9.4-0.294-20.37 0.671-33.57 0.373zm69.74 0c0.393-0.021 0.293-0.478-0.373-0.373-2.574 0.051-5.907-0.527-6.714 0.373h7.08zm1.5-0.373c-0.604 0.75 3.254 0.21 4.476 0.373h5.595c1.182 0.764 4.926 2.73 5.221 0-3.92-0.998-9.88-0.055-15.29-0.373zm-35.07 0.373c1.568-0.475 3.119 0.973 3.357-0.373-0.9 0.121-4.26-0.318-3.36 0.373zm25.37-0.373c-1.255 0.236-3.464-0.481-4.103 0.373 1.25-0.236 3.46 0.481 4.1-0.373zm83.55 0.373c0.259 1.374 2.257 0.71 3.356 0.746 4.104 0.134 9.389-0.659 11.936 0.746 0.102 25.696 1.18 52.44 1.492 77.579 0.344 27.725-0.448 54.921 1.118 80.562 0.849-3.024 0.373-6.289 0.373-9.325 0-11.218-0.291-21.22-0.373-31.329-0.308-38.226-0.704-78.07-1.491-118.98-5.23-0.387-9.95-0.082-16.42 0.002zm-107.42 1.492c-1.454-0.003-4.08-0.092-5.222 0.373-3.185 1.298-4.146 5.859-4.476 9.324-0.799 1.438-2.133 2.343-1.865 4.849 21.639 0.339 42.231-0.8 62.287 0.373-2.573-4.14-2.732-10.694-5.968-14.173-11.84-1.25-32.9-0.718-44.76-0.746zm-35.81 0.373c1.557 1.861 4.755 1.119 7.46 1.119 3.995 0 8.609-0.382 11.562-0.373 2.647 0.008 7.38 1.627 8.951-0.746-8.9-0.293-17.57 0.121-27.97 0zm143.6 0c0.486 2.204 2.992 0.746 4.476 0.746 2.698 0 5.744-0.165 8.205 0.373 0.659 5.466 0.312 13.224 0.373 19.022 0.02 1.846-0.859 4.839 1.119 5.595 0.282-5.962 0.225-16.46-0.373-26.108-4.33 0.546-8.72-0.056-13.81 0.375zm-187.61 2.611c-3.621 0-7.167 0.126-10.816 0-3.123-0.108-6.747-1.219-9.697 0.373 26.168 0.82 55.739 0.373 82.801 0.373 2.693 0 5.999 0.888 8.205-1.119-21.33-0.732-46.99 0.373-70.48 0.373zm244.67 0.373c-0.347 15.791 0.477 29.249 0.745 43.265 0.237 12.332-0.626 29.568 0.746 42.146 0.202-27.387-0.254-57.426-0.746-86.53-0.438 0.059-1.059-0.064-1.118 0.373 0.29 0.074 0.43 0.304 0.37 0.738zm-263.69 1.865c3.278 2.388 8.708 1.686 14.173 1.865 5.205 0.17 10.572-1.192 14.919-0.373 0.583-0.909 2.009-0.975 2.238-2.238-10.53 0.917-20.78-0.167-31.33 0.746zm88.39-0.747c-2.366 0.245-5.713-0.492-7.459 0.373 1.59 0.825 7.33 4.093 7.46-0.373zm-8.57 1.493c-6.018-1.242-14.09 0-22.751 0-8.358 0-17.21-0.863-22.751 0-1.62 0.252-3.739 2-5.595 2.238-1.729 0.221-3.639-0.402-5.222-0.373-12.01 0.222-23.091-0.036-33.567 0.373-1.048 0.041-2.374-0.753-3.357 0.373 15.618 0.03 30.931-0.117 42.519 0.373-1.271 2.018-1.317 4.637-2.238 6.714-0.812 1.833-2.614 2.914-2.984 4.849 19.676-0.091 42.403 0.059 64.151 0-2.8-4.783-2.8-13.434-8.2-14.547zm-144.34 2.237c1.715 0.746 8.979-0.294 9.697-0.373h-6.714c-0.18-0.516-3.196 0.281-2.983 0.373zm276.38 1.492c0.677 12.884 0.632 24.963 0.746 38.043 0.112 12.969 0.691 26.076 0.373 40.282-0.303 13.479 0.109 24.698 0.745 39.162 0.561 12.736-0.413 26.821 0 39.162 0.045 1.33-0.897 4.083 1.119 4.849-0.514-56.923-0.241-106.27-1.864-163.74h-2.984c-1.15 1.332 1.69 1.068 1.85 2.251zm-261.08-1.865c-1.012 0.231-2.96-0.474-3.357 0.373 1.013-0.231 2.96 0.474 3.357-0.373zm1.865 0.373c1.892 1.018 1.388-1.302 0 0zm20.513 0.373c1.134-0.234 3.213 0.477 3.73-0.373-0.811-0.624-3.36-0.598-3.73 0.373zm4.476 0h3.73c-0.181-0.994-2.711-0.707-3.73 0zm107.79 0c0.524 0.097 0.425 0.818 0.746 1.119 1.049-0.07 1.589-0.649 1.491-1.865-0.99 0.006-2.2-0.207-2.24 0.746zm-101.45-0.373c-2.389-0.43-0.82 1.14 0 0zm-45.13 1.119c-1.995 0.243-4.965-0.49-6.341 0.373 1.995-0.243 4.966 0.49 6.341-0.373zm10.07 0c-1.012 0.231-2.96-0.474-3.357 0.373 1.012-0.231 2.96 0.474 3.357-0.373zm8.951 0c-2.738 0.246-6.46-0.493-8.578 0.373 2.858 0.269 6.677 0.582 8.578-0.373zm16.784 0c-1.321 0.024-3.461-0.671-4.476 0.746 16.719 0.016 33.125 0.625 49.606 0.373 2.013-0.031 4.82 0.647 6.34-1.119-16.33 0.717-34.42-0.316-51.473 0zm-46.249 1.865c-0.374-0.001-0.444 0.302-0.746 0.373v1.119c17.729 0.711 35.584-0.824 50.352-0.373 14.368 0.439 29.343 0.777 42.146 0.373 1.713-0.054 4.501 0.946 5.594-1.119-31.62-0.584-58.025-0.252-97.342-0.373zm250.26 1.865c-6.974 0.283-14.191 0.529-20.514 0.373-2.294-0.057-5.255-1.271-6.713 0.373 3.534 1.603 8.053 1.123 12.308 1.119 12.007-0.009 28.599-0.045 42.893 0 1.105 8.943 0.333 14.867 0.373 24.616 0.094 22.975 0.746 46.19 0.746 69.746-0.001 22.999 0.248 46.918 1.118 70.492 1.364-0.96 0.663-2.675 0.746-4.103 0.091-1.563 0.387-3.272 0.373-4.849-0.395-44.837-1.119-75.107-1.119-113.38 0-12.43 0.1-26.559-0.373-39.535-0.046-1.277 0.906-4.087-1.118-4.849-8.65 0.488-18.98-0.403-28.73-0.008zm-256.23 0.746c0.211 1.995 2.593 1.053 3.73 1.119 7.877 0.456 18.948-0.083 27.6 0 3.581 0.035 7.465 0.893 9.697-1.119-12.875 0.014-27.671-0.061-41.027 0zm97.349 8.956c-0.959-3.236-0.81-6.132-2.984-7.833-2.282-1.785-7.24-0.932-11.935-0.746-13.195 0.524-30.949-1.508-40.654 1.119-2.009 2.049-2.435 5.838-3.73 8.578-0.877 1.857-2.633 2.869-2.611 4.476 22.748-0.479 43.612-0.79 64.152 0 0.22-1.84-1.55-3.23-2.25-5.6zm5.59-7.837c-0.464-2.271-4.859-0.611-7.087-1.119 0.5 2.52 5.29 0.772 7.09 1.119zm-71.982 1.491c-10.172-0.126-17.502 0-28.719 0-2.319 0-5.625-0.917-7.087 1.119 12.655-0.128 26.161 0.317 39.536 0 1.15-0.027 3.273 0.687 4.103-0.746-2.451-1.169-5.173-0.339-7.833-0.373zm66.762 0v1.119c1.247-0.37 4.181 0.948 3.729-1.119-0.52-0.731-3.17-0.454-3.73 0zm-98.465 1.866c-0.638 0.005-4.385 0.912-4.849 0.746 3.25 1.16 10.325 0 14.173 0 4.849 0 10.172-0.685 14.546 0 1.658 0.26 3.041 1.56 4.849 1.865 1.582 0.267 3.969 0.157 5.595 0 1.437-0.139 4.016 0.624 4.103-1.865-12.362-0.619-26.588-0.837-38.417-0.745zm99.955 1.864c0.333-0.661 1.514-0.476 1.119-1.865h-1.865c-0.05 0.926-0.06 1.811 0.75 1.865zm99.96 18.646c-21.427-0.261-43.669 0.464-63.406 0-28.045-0.659-50.331-0.535-77.579 0-7.782 0.152-22.095 1.263-25.735-1.492-4.803-3.635-2.55-12.205-7.087-15.292-1.995-1.357-5.149-1.2-8.951-1.119-3.41 0.073-7.292 0.164-11.189 0-14.395-0.607-26.113-1.067-32.822 6.34-2.312 2.553-5.459 6.024-6.34 8.952-0.989 3.286-0.311 7.392-0.373 11.562-0.069 4.675-0.732 9.635-0.746 13.8-0.031 9.836 0.986 18.54 0 27.6-0.656-0.09-0.85-0.642-0.746-1.491-0.961-0.967-1.296 0.597-1.119 1.864-0.291 1.658 2.242 0.493 1.492 2.611-0.083 10.831 0 21.327 0 31.702 0 10.22-0.315 20.008 0 29.838 0.47 14.649 1.24 30.145 1.119 45.131-0.041 4.999-0.08 9.929 0.373 14.546 16.844-0.17 33.706 0.373 50.352 0.373 17.158 0 34.084-0.395 50.352 0 32.279 0.781 58.09-0.604 85.784 0 1.975 0.043 4.111 0.83 5.968 0.745 0.787-0.035 1.496-0.638 2.237-0.745 1.047-0.152 1.924 0.38 2.984 0.372 3.201-0.021 6.016 0.275 9.324 0.373 8.314 0.248 17.862-0.214 26.854 0.373 9.988 0.652 21.07 0.96 34.313 0.746 3.441-0.056 7.035 0.324 10.07-0.746 1.05 1.008 2.422 1.018 4.103 1.119 3.924 0.236 10.769-0.799 14.546-1.865 0.141-33.997-0.106-73.188-0.373-105.92-0.04-4.903 0.295-9.715-0.746-14.174 1.494-9.59 0.403-18.074 0.373-26.107-0.033-8.763 0.049-18.335 0-29.092-18.37 0.03-40.83 0.27-63.01 0zm-170.45-16.41c-0.132 1.319 1.823 0.682 2.611 0.746 2.003 0.164 3.551 0.083 4.849 0-1.172-1.84-5.589-0.61-7.46-0.75zm0.746 2.61c1.154 0.396 5.937 1.222 5.967-0.746-1.401-0.51-5.577-0.95-5.967 0.75zm310.31 1.12c-0.087 15.598 0.373 30.577 0.373 46.622 0 4.98-0.378 10.201 0 14.919 0.062 0.784 0.074 2.761 1.119 3.356 0.053-22.25-0.965-39.759-0.746-65.644-0.082-0.291-0.312-0.434-0.746-0.373 0.01 0.37 0.01 0.74 0.01 1.11zm-309.2 2.24c1.226-0.266 2.807-0.177 2.984-1.492-0.619-0.625-2.19-0.296-3.357-0.373-0.119 0.86 0.06 1.43 0.373 1.86zm266.68-0.75c0.226 21.246 1.119 44.373 1.119 67.508 0 23.28-0.01 45.875 1.119 66.39 1.536-1.744 0.404-4.17 0.373-6.341-0.111-7.534 0-16.096 0-24.616 0-34.793-0.99-69.316-1.119-102.94-0.021-0.228-0.056-0.441-0.373-0.373-0.021-0.228-0.056-0.441-0.373-0.373-0.01 0.49-0.66 0.34-0.75 0.74zm-262.94 8.58c34.126 0.706 70.776 0.373 105.55 0.373 4.759 0 9.262 0.75 13.801 0.746 4.33-0.004 8.574-0.397 13.054-0.373 34.217 0.185 68.743-0.448 96.974 0.373 0.669 19.316 0.927 43.981 0.746 68.254 2.137-1.815 0.716-4.871 0.746-7.459 0.031-2.728 0.479-5.619 0.372-8.579-0.614-17.007 0.295-38.281-1.118-54.081-40.527-0.374-80.911-0.373-122.34-0.373-34.448 0-73.619-0.007-108.54-0.373-0.253 1.02 0.76 0.75 0.765 1.49zm295.02 83.92c-0.09-22.788-0.422-47.504-1.492-66.762-0.3 23.5 0.08 43.93 1.49 66.76zm3.35-27.6c0.163 7.349-0.032 15.07 1.119 22.005-0.418-10.658 0.042-23.248-0.373-34.687-0.147-4.079-0.095-9.175-1.119-11.189-0.2 8.53 0.21 16.42 0.37 23.88zm29.47-19.02c0.983 0.113 1.225-0.516 1.119-1.491h-1.119v1.49zm-7.83 7.83c1.689-1.418 0.285-5.931 0.746-8.578-0.082-0.291-0.312-0.435-0.746-0.373-0.13 3.58-0.02 5.16 0 8.95zm5.97-5.22c0.949-0.046 1.446-0.543 1.491-1.492-1.63-0.15-2.07 0.3-1.49 1.49zm-16.04 17.9c0.059 0.614-0.63 2.539 0.746 2.611-0.092-4.793 0.01-11.301 0-15.665h-1.119c0.64 4.32-0.05 8.76 0.37 13.05zm7.08-7.08c-0.366-1.524 0.041-1.508 0-3.357-1.3 0.34-0.88 3.5 0 3.36zm-8.2 4.1c0.102-0.508-0.23-1.456-0.373-0.746-0.11 0.51 0.23 1.46 0.37 0.75zm-1.87 11.56c0.814-3.839 0.257-8.729-0.373-10.816-0.56 2.86-0.82 8.5 0.37 10.82zm1.87-3.35c0.568-0.568-0.574-2.149-0.746-1.118 0.03-0.14 0.69 1.17 0.75 1.12zm-39.54 34.68v11.189c0 3.636-0.818 8.112 1.119 9.324-0.653-6.178 0.293-14.767-0.373-21.632-0.04 0.59-0.95 0.3-0.75 1.12z"/>
	<path d="m352.58 13.054c1.307-1.651 3.745-0.377 5.595-0.373 2.362 0.006 4.869-0.974 7.459 0h6.714c0.923-0.047 0.634 0.457 0 0.373-7.65-0.058-12.51-0.089-19.77 0z" fill="#FFFFF7"/>
	<path d="m388.76 24.99c-3.363-1.962-7.355 0.503-10.816-0.746 2.845-0.808 8.353-0.637 11.935 0 0.207 31.275 0.188 52.25 0.746 81.681 0.37 19.489 0.225 39.686 0.746 57.811-1.329-0.457-1.041-2.273-1.119-3.356-0.553-7.664 0-20.444 0-29.838 0-11.378-0.537-18.153-0.373-29.465-1.04-25.821 0.09-54.097-1.13-76.07z" fill="#FFFFF7"/>
	<path d="m358.92 36.552c0.86-1.407 2.896-0.754 4.103-0.746 5.27 0.035 9.735-0.229 14.919 0.373 0.418 17.856 0.213 45.903 0.746 67.135-1.422-1.35-0.689-3.523-0.746-5.221-0.089-2.646 0.071-5.238 0-7.833-0.438-15.836-1.03-32.65-0.746-53.335-5.24-1.641-12.65 0.496-18.27-0.369z" fill="#FFFFF7"/>
	<path d="m275 58.557c1.228-0.126-2.278 0.765-3.729 0.373 1.16-0.956 2.09-0.455 3.73-0.373z" fill="#FFFFF7"/>
	<path d="m389.5 162.99c0.041 1.85-0.366 1.833 0 3.357-0.88 0.14-1.3-3.02 0-3.36z" fill="#FFFFF7"/>
	<path d="m145.58 271.15c0.299-0.916 2.512 2.366 4.103 2.61-1.39 0.64-3.16-1.55-4.1-2.61z" fill="#FFFFF7"/>
	<path d="m143.34 273.02c1.168 0.074 1.524 0.961 2.238 1.491-0.16 0.37-2.17-0.54-2.24-1.49z"/>
	<path d="m123.57 296.14c-1.389-0.109 1.098-0.928 0.746 0 0.87 0.62-0.14-0.03-0.75 0z"/>
	<path d="m300.36 118.23c0.049 10.757-0.033 20.33 0 29.092 0.03 8.033 1.121 16.518-0.373 26.107 1.041 4.459 0.706 9.271 0.746 14.174 0.267 32.736 0.514 71.927 0.373 105.92-3.777 1.066-10.622 2.102-14.546 1.865-1.681-0.102-3.053-0.111-4.103-1.119-3.035 1.07-6.629 0.69-10.07 0.746-13.243 0.214-24.325-0.094-34.313-0.746-8.992-0.587-18.54-0.125-26.854-0.373-3.309-0.098-6.123-0.394-9.324-0.373-1.061 0.008-1.938-0.524-2.984-0.372-0.741 0.107-1.45 0.71-2.237 0.745-1.856 0.085-3.993-0.702-5.968-0.745-27.694-0.604-53.505 0.781-85.784 0-16.268-0.395-33.194 0-50.352 0-16.646 0-33.508-0.543-50.352-0.373-0.453-4.617-0.414-9.547-0.373-14.546 0.121-14.986-0.649-30.481-1.119-45.131-0.315-9.83 0-19.618 0-29.838 0-10.375-0.083-20.871 0-31.702 0.75-2.118-1.782-0.953-1.492-2.611-0.177-1.268 0.158-2.831 1.119-1.864-0.104 0.85 0.09 1.401 0.746 1.491 0.986-9.06-0.031-17.764 0-27.6 0.014-4.166 0.677-9.125 0.746-13.8 0.062-4.17-0.616-8.276 0.373-11.562 0.881-2.928 4.028-6.398 6.34-8.952 6.709-7.408 18.427-6.947 32.822-6.34 3.897 0.164 7.78 0.073 11.189 0 3.802-0.082 6.957-0.239 8.951 1.119 4.537 3.087 2.284 11.657 7.087 15.292 3.64 2.755 17.953 1.645 25.735 1.492 27.248-0.535 49.534-0.659 77.579 0 19.737 0.464 41.979-0.261 63.406 0 22.16 0.26 44.62 0.02 63.01-0.01zm-270.03-6.34c0.619 0.625 2.189 0.297 3.356 0.373 1.097-0.629-1.164-1.676 0-2.238h1.119c0.271 1.141-0.644 1.097-0.373 2.238 1.966-0.254 3.879 1.224 4.476-0.746-2.662-0.819-2.212-4.75-3.729-6.713h-1.119c-1.392 2.22-1.986 5.23-3.73 7.09zm38.789 85.04c-0.229-0.109-1.436-0.928-1.492 0 0.694-0.36 1.247 1.12 1.492 0zm89.882 71.99c0.004-1.508-1.098-4.173-1.865-5.222-1.12-1.53-3.327-1.921-4.476-3.356-2.034 0.701-4.679 0.792-7.459 0.746-2.475 1.011-3.941 5.006-2.984 8.205 0.206-0.664 0.192-1.549 0.746-1.864-0.13 10.36 16.01 10.85 16.03 1.48zm-13.42 5.59c-0.713-0.53-1.07-1.417-2.238-1.491 0.07 0.95 2.08 1.86 2.24 1.49z" fill="#FFFFF7"/>
	<path d="m142.97 267.42c-0.554 0.315-0.54 1.2-0.746 1.864-0.957-3.199 0.509-7.194 2.984-8.205 2.781 0.046 5.425-0.045 7.459-0.746 1.149 1.436 3.356 1.826 4.476 3.356 0.767 1.049 1.869 3.714 1.865 5.222-0.02 9.38-16.16 8.89-16.03-1.49zm13.42 1.87c-0.053-1.314-1.673-1.062-2.611-1.491-1.461-1.522-2.75-3.218-3.729-5.222-0.48 3.38 2.06 6.86 6.34 6.71zm0 1.86c-0.275-1.466-2.253-1.229-3.73-1.492-1.896-1.71-3.38-3.831-4.476-6.341-0.75 4.64 2.52 8.4 8.21 7.83zm-1.11 1.49c-4.782-0.812-8.09-3.1-8.579-8.206-0.082-0.29-0.312-0.434-0.746-0.373-1.78 5.86 4.11 10.96 9.33 8.58zm-5.6 1.12c-1.591-0.244-3.804-3.526-4.103-2.61 0.94 1.06 2.71 3.25 4.1 2.61z"/>
</g>
<metadata><rdf:RDF><cc:Work><dc:format>image/svg+xml</dc:format><dc:type rdf:resource="http://purl.org/dc/dcmitype/StillImage"/><cc:license rdf:resource="http://creativecommons.org/licenses/publicdomain/"/><dc:publisher><cc:Agent rdf:about="http://openclipart.org/"><dc:title>Openclipart</dc:title></cc:Agent></dc:publisher><dc:title>divider cards</dc:title><dc:date>2008-04-09T17:38:53</dc:date><dc:description>from "A Textbook of Filing" by James N. McCord, 1920</dc:description><dc:source>http://openclipart.org/detail/16250/divider-cards-by-johnny_automatic-16250</dc:source><dc:creator><cc:Agent><dc:title>johnny_automatic</dc:title></cc:Agent></dc:creator><dc:subject><rdf:Bag><rdf:li>card</rdf:li><rdf:li>clip art</rdf:li><rdf:li>clipart</rdf:li><rdf:li>divider</rdf:li><rdf:li>externalsource</rdf:li><rdf:li>file</rdf:li><rdf:li>image</rdf:li><rdf:li>media</rdf:li><rdf:li>office</rdf:li><rdf:li>png</rdf:li><rdf:li>public domain</rdf:li><rdf:li>svg</rdf:li></rdf:Bag></dc:subject></cc:Work><cc:License rdf:about="http://creativecommons.org/licenses/publicdomain/"><cc:permits rdf:resource="http://creativecommons.org/ns#Reproduction"/><cc:permits rdf:resource="http://creativecommons.org/ns#Distribution"/><cc:permits rdf:resource="http://creativecommons.org/ns#DerivativeWorks"/></cc:License></rdf:RDF></metadata></svg>
