<?xml version="1.0" encoding="UTF-8" standalone="no"?>
<!-- Created with Inkscape (http://www.inkscape.org/) -->

<svg
   xmlns:dc="http://purl.org/dc/elements/1.1/"
   xmlns:cc="http://creativecommons.org/ns#"
   xmlns:rdf="http://www.w3.org/1999/02/22-rdf-syntax-ns#"
   xmlns:svg="http://www.w3.org/2000/svg"
   xmlns="http://www.w3.org/2000/svg"
   xmlns:sodipodi="http://sodipodi.sourceforge.net/DTD/sodipodi-0.dtd"
   xmlns:inkscape="http://www.inkscape.org/namespaces/inkscape"
   id="svg6124"
   sodipodi:docname="united nodes.svg"
   viewBox="0 0 650.71379 381.57319"
   version="1.0"
   inkscape:version="0.91 r13725"
   width="183.64589mm"
   height="107.68843mm">
  <defs
     id="defs344">
    <inkscape:path-effect
       effect="skeletal"
       id="path-effect5036"
       is_visible="true"
       pattern="M 4.80943,6.09124 2.94524,4.93866 0.93898,5.82091 1.45905,3.69181 0,2.05635 2.18554,1.89304 3.29005,0 4.12073,2.02813 6.26242,2.4936 4.59021,3.91041 4.80932,6.09102 Z"
       copytype="single_stretched"
       prop_scale="1"
       scale_y_rel="false"
       spacing="0"
       normal_offset="0"
       tang_offset="0"
       prop_units="false"
       vertical_pattern="false"
       fuse_tolerance="0" />
  </defs>
  <sodipodi:namedview
     id="namedview345"
     bordercolor="#666666"
     inkscape:pageshadow="2"
     guidetolerance="10"
     pagecolor="#ffffff"
     gridtolerance="10"
     inkscape:window-maximized="0"
     inkscape:zoom="1"
     objecttolerance="10"
     borderopacity="1"
     inkscape:current-layer="svg6124"
     inkscape:cx="247.64823"
     inkscape:cy="197"
     inkscape:window-y="28"
     inkscape:window-x="0"
     inkscape:window-width="1364"
     showgrid="false"
     inkscape:pageopacity="0"
     inkscape:window-height="669"
     inkscape:object-nodes="true"
     inkscape:snap-object-midpoints="true"
     inkscape:document-units="px"
     units="mm"
     fit-margin-top="10"
     fit-margin-left="10"
     fit-margin-right="10"
     fit-margin-bottom="10" />
  <path
     style="color:#000000;font-style:normal;font-variant:normal;font-weight:normal;font-stretch:normal;font-size:medium;line-height:normal;font-family:sans-serif;text-indent:0;text-align:start;text-decoration:none;text-decoration-line:none;text-decoration-style:solid;text-decoration-color:#000000;letter-spacing:normal;word-spacing:normal;text-transform:none;direction:ltr;block-progression:tb;writing-mode:lr-tb;baseline-shift:baseline;text-anchor:start;white-space:normal;clip-rule:nonzero;display:inline;overflow:visible;visibility:visible;opacity:1;isolation:auto;mix-blend-mode:normal;color-interpolation:sRGB;color-interpolation-filters:linearRGB;solid-color:#000000;solid-opacity:1;fill:#000000;fill-opacity:1;fill-rule:evenodd;stroke:#000000;stroke-width:0.9992126;stroke-linecap:butt;stroke-linejoin:miter;stroke-miterlimit:4;stroke-dasharray:none;stroke-dashoffset:0;stroke-opacity:1;color-rendering:auto;image-rendering:auto;shape-rendering:auto;text-rendering:auto;enable-background:accumulate"
     d="M 73.884766 35.433594 L 50.386719 87.537109 L 50.416016 87.611328 L 35.433594 194.48047 L 35.929688 194.55078 L 35.650391 194.96484 L 128.17383 257.05859 L 128.45312 256.64453 L 128.37695 257.13867 L 201.9668 268.35156 L 287.82812 320.00391 L 288.08594 319.57617 L 288.05469 320.07617 L 378.73633 325.73242 L 378.76758 325.23438 L 378.76953 325.23438 L 379.08398 325.61914 L 414.32812 296.7207 L 454.99609 291.8125 L 527.66797 346.14062 L 527.9668 345.74023 L 528.40039 345.48828 L 492.58398 283.6875 L 528.22656 262.02148 L 527.9668 261.59375 L 528.41016 261.82617 L 543.9668 232.12695 L 543.52539 231.89648 L 543.52344 231.89453 L 544.02344 231.87109 L 542.61523 202.29297 L 557.24414 170.25 L 580.88477 175.8125 L 581 175.32617 L 581.5 175.32617 L 581.5 149.87109 L 580.99805 149.87109 L 581.46289 149.68359 L 564.29688 107.11133 L 594.69531 123.19727 L 594.92773 122.75781 L 594.92969 122.75781 L 595.14844 123.20508 L 607.12305 117.32617 L 606.9043 116.87891 L 607.31055 116.58984 L 600.40039 106.82422 L 597.80078 86.609375 L 615.28125 53.367188 L 614.39648 52.900391 L 596.99023 86.005859 L 583.52734 85.501953 L 583.50781 86 L 583.15625 85.646484 L 562.9707 105.67578 L 563.32227 106.03125 L 562.87109 105.81641 L 543.86719 145.93555 L 484.66602 167.07812 L 484.72461 167.24414 L 459.09961 124.16016 L 458.67188 124.41406 L 458.76562 123.92383 L 393.51172 111.27734 L 393.41797 111.76953 L 392.92773 111.875 L 392.99219 112.16992 L 392.72461 112.01758 L 393.51172 111.27734 L 392.82617 110.54883 L 391.81445 111.5 L 348.81836 87.025391 L 349.19727 86.878906 L 284.1582 67.367188 L 284.01367 67.845703 L 284.05664 67.347656 L 184.35547 58.863281 L 184.31445 59.359375 L 184.31445 59.361328 L 184.3125 59.361328 L 184.04102 58.941406 L 112.36719 105.31836 L 73.884766 35.433594 z M 73.974609 37.666016 L 111.1582 105.19727 L 51.621094 87.236328 L 73.974609 37.666016 z M 186.5625 60.052734 L 283.4707 68.300781 L 279.34766 112.28906 L 186.5625 60.052734 z M 183.92969 60.205078 L 193.60742 127.27148 L 113.4043 105.83789 L 183.92969 60.205078 z M 184.95312 60.294922 L 278.30664 112.84961 L 194.63281 127.36914 L 184.95312 60.294922 z M 284.45703 68.501953 L 346.11133 86.998047 L 280.3457 112.3457 L 284.45703 68.501953 z M 584.56445 86.539062 L 596.8457 87 L 599.19141 105.26562 L 584.56445 86.539062 z M 583.45898 86.751953 L 598.875 106.48242 L 564.5 105.5625 L 583.45898 86.751953 z M 347.16211 87.664062 L 347.84961 152.82227 L 347.77148 152.89453 L 347.85156 152.97852 L 347.85352 153.22461 L 280.91016 113.19922 L 347.16211 87.664062 z M 348.16406 87.802734 L 391.05273 112.2168 L 348.83789 151.89258 L 348.16406 87.802734 z M 51.769531 88.326172 L 111.41992 106.32227 L 79.095703 158.59375 L 51.769531 88.326172 z M 51.158203 89.523438 L 78.330078 159.39258 L 36.601562 193.35742 L 51.158203 89.523438 z M 565.44531 106.58594 L 599.24219 107.49414 L 594.63281 122.0332 L 565.44531 106.58594 z M 113.0293 106.77344 L 193.22266 128.20312 L 141.77539 177.33008 L 113.0293 106.77344 z M 112.0957 107.13086 L 141.07227 178.25586 L 128.20898 255.06836 L 79.527344 159.79492 L 112.0957 107.13086 z M 563.28516 107.27344 L 580.22852 149.29492 L 544.98633 145.90625 L 563.28516 107.27344 z M 600.09375 108.11914 L 606.15625 116.6875 L 595.75781 121.79102 L 600.09375 108.11914 z M 394.06836 112.4043 L 458.04492 124.80273 L 442.72461 179.81445 L 409.56641 183.26758 L 394.06836 112.4043 z M 391.96094 112.73438 L 393.2793 113.48438 L 408.46289 182.91016 L 348.85742 153.79883 L 348.85156 153.25195 L 391.96094 112.73438 z M 279.35547 113.68164 L 286.85938 162.10938 L 286.82617 162.16602 L 286.625 161.70898 L 285.75977 162.0918 L 196.09961 128.13086 L 279.35547 113.68164 z M 280.42969 114.07812 L 346.9082 153.82617 L 288.60352 162.64062 L 287.88867 162.21484 L 280.42969 114.07812 z M 458.83789 125.67578 L 483.67773 167.4375 L 443.83789 179.53516 L 458.83789 125.67578 z M 195.00586 128.78516 L 284.45508 162.66797 L 215.73242 193.0293 L 195.00586 128.78516 z M 193.98242 128.86328 L 214.68555 193.04492 L 142.62109 177.9043 L 193.98242 128.86328 z M 545.12109 146.92188 L 580.5 150.32617 L 580.5 174.69531 L 557.29102 169.23438 L 545.12109 146.92188 z M 544.1543 147.24023 L 556.40039 169.68945 L 541.85156 201.55469 L 511.09375 189.25195 L 544.1543 147.24023 z M 542.76367 147.39062 L 510.21875 188.75 L 485.81055 167.73047 L 542.76367 147.39062 z M 348.01562 154.67188 L 365.16016 208.16406 L 289.96094 163.44727 L 348.01562 154.67188 z M 349.19531 155.07812 L 408.11719 183.85352 L 366.32422 208.51953 L 349.19531 155.07812 z M 78.705078 160.37891 L 127.12891 255.15234 L 36.769531 194.51172 L 78.705078 160.37891 z M 285.78516 163.17188 L 286.62695 163.49023 L 297.49023 209.33398 L 217.07812 193.52734 L 285.78516 163.17188 z M 288.40039 163.68359 L 364.25 208.78711 L 298.55273 209.4707 L 287.72461 163.78516 L 288.40039 163.68359 z M 484.81836 167.50391 L 484.83398 167.54883 L 484.77344 167.53125 L 484.81836 167.50391 z M 484.06445 168.36523 L 470.48633 213.17188 L 443.9707 180.53906 L 484.06445 168.36523 z M 485.08984 168.42969 L 509.44727 189.4043 L 471.55664 213.08594 L 485.08984 168.42969 z M 141.99609 178.79688 L 214.85156 194.10156 L 202.55469 265.83594 L 199.94922 266.08594 L 199.99805 266.58398 L 199.74609 267.00195 L 129.0293 256.22656 L 141.99609 178.79688 z M 442.89648 180.80078 L 468.85742 212.75391 L 410.94336 184.12891 L 442.89648 180.80078 z M 409.19336 184.38086 L 468.32422 213.60547 L 367.73633 208.84766 L 409.19336 184.38086 z M 510.33789 190.02734 L 540.26953 201.99805 L 473.09375 213.30469 L 510.33789 190.02734 z M 215.78906 194.55078 L 308.25977 255.69531 L 203.58594 265.73633 L 215.78906 194.55078 z M 217.80859 194.6875 L 297.75 210.4043 L 308.91602 254.92969 L 217.80859 194.6875 z M 541.64453 202.95898 L 543.00195 231.45508 L 455.47461 242.3125 L 541.64453 202.95898 z M 538.44531 203.32031 L 453.63086 242.05469 L 470.99219 214.67383 L 538.44531 203.32031 z M 364.63672 209.7832 L 310.00586 255.16602 L 298.79688 210.46875 L 364.63672 209.7832 z M 369.03906 209.91016 L 469.80859 214.67578 L 452.10547 242.59375 L 369.03906 209.91016 z M 366.62109 210.03516 L 450.70117 243.11328 L 372.13477 263.79102 L 366.62109 210.03516 z M 365.63867 210.25 L 371.13477 263.8418 L 310.91016 255.71484 L 365.63867 210.25 z M 542.14062 232.57031 L 491.90625 282.80469 L 453.37109 243.58008 L 542.14062 232.57031 z M 541.56055 234.56445 L 527.58789 261.23828 L 495.19922 280.92578 L 541.56055 234.56445 z M 451.08398 244.04883 L 414.01367 295.53711 L 372.82617 264.64258 L 451.08398 244.04883 z M 452.88281 244.50977 L 490.9082 283.21484 L 455.59961 290.68359 L 452.88281 244.50977 z M 451.88867 244.64648 L 454.60938 290.85156 L 415.19336 295.60938 L 451.88867 244.64648 z M 310.05469 256.60742 L 370.30664 264.74023 L 289.03125 318.35156 L 310.05469 256.60742 z M 308.99023 256.62891 L 287.8125 318.82812 L 203.21094 267.93359 L 203.41211 266.75781 L 308.99023 256.62891 z M 371.29297 265.28711 L 378.20312 324.69727 L 289.60938 319.17188 L 371.29297 265.28711 z M 372.32812 265.52148 L 413.3125 296.25977 L 379.1582 324.26562 L 372.32812 265.52148 z M 202.37891 266.85547 L 202.28906 267.37695 L 201.55469 266.93555 L 202.37891 266.85547 z M 491.6543 284.07812 L 526.3125 343.87891 L 456.31641 291.55273 L 491.6543 284.07812 z "
     id="path4612" />
  <metadata
     id="metadata343">
    <rdf:RDF>
      <cc:Work>
        <dc:format>image/svg+xml</dc:format>
        <dc:type
           rdf:resource="http://purl.org/dc/dcmitype/StillImage" />
        <cc:license
           rdf:resource="http://creativecommons.org/publicdomain/zero/1.0/" />
        <dc:publisher>
          <cc:Agent
             rdf:about="http://openclipart.org/">
            <dc:title>Openclipart</dc:title>
          </cc:Agent>
        </dc:publisher>
        <dc:title></dc:title>
      </cc:Work>
      <cc:License
         rdf:about="http://creativecommons.org/publicdomain/zero/1.0/">
        <cc:permits
           rdf:resource="http://creativecommons.org/ns#Reproduction" />
        <cc:permits
           rdf:resource="http://creativecommons.org/ns#Distribution" />
        <cc:permits
           rdf:resource="http://creativecommons.org/ns#DerivativeWorks" />
      </cc:License>
    </rdf:RDF>
  </metadata>
  <path
     style="opacity:1;fill:#c83737;fill-opacity:1;stroke:none;stroke-width:0.99921262;stroke-linecap:square;stroke-linejoin:miter;stroke-miterlimit:4;stroke-dasharray:none;stroke-dashoffset:0;stroke-opacity:1"
     d="m 162.44542,260.44201 c -17.57502,-2.71956 -32.04551,-5.0401 -32.15664,-5.15674 -0.4366,-0.45827 12.36484,-73.79904 12.99066,-74.42486 0.50386,-0.50386 69.49546,13.29798 70.27842,14.05928 0.33132,0.32214 -11.66562,68.85703 -12.20653,69.73224 -0.91072,1.47357 -5.12052,1.01804 -38.90591,-4.20992 z"
     id="path4239"
     inkscape:connector-curvature="0" />
  <path
     style="opacity:1;fill:#c83737;fill-opacity:1;stroke:none;stroke-width:0.99921262;stroke-linecap:square;stroke-linejoin:miter;stroke-miterlimit:4;stroke-dasharray:none;stroke-dashoffset:0;stroke-opacity:1"
     d="M 82.4,223.91368 C 59.85,208.82934 40.843879,195.93467 40.164175,195.25886 c -0.979124,-0.97353 2.863631,-4.56678 18.5,-17.29883 L 78.4,161.88995 l 22.71349,44.54479 c 12.49241,24.49964 22.61741,44.62584 22.5,44.7249 C 123.49607,251.25869 104.95,238.99801 82.4,223.91368 Z"
     id="path4243"
     inkscape:connector-curvature="0" />
  <path
     style="opacity:1;fill:#c83737;fill-opacity:1;stroke:none;stroke-width:0.99921262;stroke-linecap:square;stroke-linejoin:miter;stroke-miterlimit:4;stroke-dasharray:none;stroke-dashoffset:0;stroke-opacity:1"
     d="M 66.628422,123.8167 C 59.664033,105.86319 54.176083,90.963764 54.432978,90.706868 c 0.987705,-0.987704 55.392082,16.178592 54.738692,17.271782 -0.3598,0.60199 -6.49251,10.54453 -13.628245,22.09453 -7.135735,11.55 -13.711706,22.21191 -14.61327,23.69314 -1.63364,2.68398 -1.682209,2.58228 -14.301733,-29.94962 z"
     id="path4262"
     inkscape:connector-curvature="0" />
  <path
     style="opacity:1;fill:#c83737;fill-opacity:1;stroke:none;stroke-width:0.99921262;stroke-linecap:square;stroke-linejoin:miter;stroke-miterlimit:4;stroke-dasharray:none;stroke-dashoffset:0;stroke-opacity:1"
     d="m 128.59983,142.32867 c -7.45118,-18.28258 -13.41213,-33.37652 -13.24657,-33.54208 0.2468,-0.2468 67.36507,17.39294 74.04035,19.45897 1.71647,0.53126 0.92971,1.60474 -5.65978,7.72232 -4.20935,3.90792 -15.28831,14.41702 -24.61989,23.35357 l -16.96652,16.24828 -13.54759,-33.24106 z"
     id="path4264"
     inkscape:connector-curvature="0" />
  <path
     style="opacity:1;fill:#c83737;fill-opacity:1;stroke:none;stroke-width:0.99921262;stroke-linecap:square;stroke-linejoin:miter;stroke-miterlimit:4;stroke-dasharray:none;stroke-dashoffset:0;stroke-opacity:1"
     d="m 195.36555,125.14948 c -0.67633,-2.15133 -9.14194,-62.5763 -8.76701,-62.5763 1.39596,0 88.05083,49.5748 87.17308,49.87126 -0.60456,0.2042 -18.41712,3.38853 -39.58345,7.0763 -25.20869,4.39206 -38.60097,6.33376 -38.82262,5.62874 z"
     id="path4266"
     inkscape:connector-curvature="0" />
  <path
     style="opacity:1;fill:#aa0000;fill-opacity:1;stroke:none;stroke-width:0.99921262;stroke-linecap:square;stroke-linejoin:miter;stroke-miterlimit:4;stroke-dasharray:none;stroke-dashoffset:0;stroke-opacity:1"
     d="M 79.087804,94.58059 C 65.166096,90.291432 53.637883,86.62261 53.469552,86.427651 53.107773,86.008642 72.723618,42.408779 73.75273,41.344516 74.363273,40.713119 107.9,100.21703 107.9,101.93171 c 0,1.30945 -4.08332,0.26763 -28.812196,-7.35112 z"
     id="path4268"
     inkscape:connector-curvature="0" />
  <path
     style="opacity:1;fill:#aa0000;fill-opacity:1;stroke:none;stroke-width:0.99921262;stroke-linecap:square;stroke-linejoin:miter;stroke-miterlimit:4;stroke-dasharray:none;stroke-dashoffset:0;stroke-opacity:1"
     d="m 38.1479,188.57318 c 0.318806,-1.375 3.42213,-23.07382 6.896277,-48.2196 3.474146,-25.14578 6.620659,-45.395775 6.992251,-44.999997 0.371592,0.395778 6.153071,14.846937 12.84773,32.113687 11.709551,30.20107 12.102636,31.45833 10.343975,33.08449 -1.60103,1.4804 -32.490627,26.57053 -36.244007,29.43926 -1.157286,0.88452 -1.31001,0.62557 -0.836226,-1.41784 z"
     id="path4270"
     inkscape:connector-curvature="0" />
  <path
     style="opacity:1;fill:#aa0000;fill-opacity:1;stroke:none;stroke-width:0.99921262;stroke-linecap:square;stroke-linejoin:miter;stroke-miterlimit:4;stroke-dasharray:none;stroke-dashoffset:0;stroke-opacity:1"
     d="M 118.17955,233.33825 C 113.11383,223.29246 102.60707,202.63082 94.831205,187.42349 L 80.693267,159.7738 95.918862,135.17349 c 8.374078,-13.53017 15.520838,-24.60031 15.881688,-24.60031 0.36085,0 6.87384,15.27398 14.47331,33.94218 l 13.81723,33.94219 -5.66183,34.30781 c -3.11401,18.8693 -5.97177,35.3271 -6.35057,36.57289 -0.56272,1.85065 -2.37392,-1.0768 -9.89914,-16 z"
     id="path4272"
     inkscape:connector-curvature="0" />
  <path
     style="opacity:1;fill:#aa0000;fill-opacity:1;stroke:none;stroke-width:0.99921262;stroke-linecap:square;stroke-linejoin:miter;stroke-miterlimit:4;stroke-dasharray:none;stroke-dashoffset:0;stroke-opacity:1"
     d="m 153.73063,115.70917 c -19.61815,-5.2998 -35.94604,-9.91388 -36.2842,-10.25352 -0.33815,-0.33965 14.09589,-10.146819 32.07565,-21.793722 17.97976,-11.646903 33.00327,-20.819014 33.38557,-20.382468 0.66909,0.764018 9.02786,56.96908 9.00402,60.54372 -0.006,0.9625 -0.57417,1.69869 -1.26167,1.63599 -0.6875,-0.0627 -17.30122,-4.45021 -36.91937,-9.75 z"
     id="path4274"
     inkscape:connector-curvature="0" />
  <path
     style="opacity:1;fill:#ff6600;fill-opacity:1;stroke:none;stroke-width:0.99921262;stroke-linecap:square;stroke-linejoin:miter;stroke-miterlimit:4;stroke-dasharray:none;stroke-dashoffset:0;stroke-opacity:1"
     d="m 178.86542,184.62441 c -17.34402,-3.70752 -32.0873,-6.92519 -32.76284,-7.15037 -0.67554,-0.22518 9.69002,-10.82129 23.03458,-23.54691 L 193.4,130.78964 l 9.19275,28.09561 c 10.87231,33.2288 10.73043,32.71946 9.0763,32.58402 -0.69798,-0.0572 -15.45961,-3.13734 -32.80363,-6.84486 z"
     id="path4276"
     inkscape:connector-curvature="0" />
  <path
     style="opacity:1;fill:#ff6600;fill-opacity:1;stroke:none;stroke-width:0.99921262;stroke-linecap:square;stroke-linejoin:miter;stroke-miterlimit:4;stroke-dasharray:none;stroke-dashoffset:0;stroke-opacity:1"
     d="m 205.18628,261.82318 c 0.29495,-1.5125 2.90318,-16.7 5.79605,-33.75 2.89288,-17.05 5.37594,-31.15563 5.51791,-31.34585 0.27944,-0.37441 85.04832,55.35926 87.2111,57.33937 1.03472,0.94733 -0.33642,1.33234 -6.5,1.82517 -4.29624,0.34352 -26.62685,2.43734 -49.62359,4.65294 -22.99674,2.21561 -42.06549,4.02837 -42.375,4.02837 -0.30951,0 -0.32142,-1.2375 -0.0265,-2.75 z"
     id="path4278"
     inkscape:connector-curvature="0" />
  <path
     style="opacity:1;fill:#ff6600;fill-opacity:1;stroke:none;stroke-width:0.99921262;stroke-linecap:square;stroke-linejoin:miter;stroke-miterlimit:4;stroke-dasharray:none;stroke-dashoffset:0;stroke-opacity:1"
     d="m 257.4,200.5296 c -18.7,-3.74864 -34.64429,-6.96012 -35.43175,-7.13662 -0.78746,-0.17649 13.11698,-6.74122 30.89875,-14.58827 17.78177,-7.84705 32.53108,-14.06679 32.77623,-13.82163 0.38273,0.38273 10.25677,40.96881 10.25677,42.15925 0,0.93863 -5.7985,-0.0573 -38.5,-6.61273 z"
     id="path4280"
     inkscape:connector-curvature="0" />
  <path
     style="opacity:1;fill:#ff6600;fill-opacity:1;stroke:none;stroke-width:0.99921262;stroke-linecap:square;stroke-linejoin:miter;stroke-miterlimit:4;stroke-dasharray:none;stroke-dashoffset:0;stroke-opacity:1"
     d="m 274.9,157.04217 c -4.675,-1.82844 -23.35,-8.95065 -41.5,-15.82713 -18.15,-6.87649 -32.325,-12.72899 -31.5,-13.00558 0.825,-0.27658 17.7,-3.26073 37.5,-6.63145 19.8,-3.37071 36.7005,-6.32844 37.55668,-6.57273 1.3055,-0.37249 2.08232,2.98549 4.81448,20.81187 1.7918,11.69082 3.48412,22.04353 3.76071,23.00603 0.67796,2.35914 -0.58881,2.14694 -10.63187,-1.78101 z"
     id="path4282"
     inkscape:connector-curvature="0" />
  <path
     style="opacity:1;fill:#ff6600;fill-opacity:1;stroke:none;stroke-width:0.99921262;stroke-linecap:square;stroke-linejoin:miter;stroke-miterlimit:4;stroke-dasharray:none;stroke-dashoffset:0;stroke-opacity:1"
     d="m 315.18538,132.72399 c -17.16805,-10.25794 -31.23055,-18.87878 -31.25,-19.15742 -0.0501,-0.71771 61.14812,-24.143225 61.68103,-23.610314 0.55578,0.55578 1.73632,61.651824 1.18869,61.517734 -0.2228,-0.0545 -14.45168,-8.49205 -31.61972,-18.75 z"
     id="path4284"
     inkscape:connector-curvature="0" />
  <path
     style="opacity:1;fill:#ff6600;fill-opacity:1;stroke:none;stroke-width:0.99921262;stroke-linecap:square;stroke-linejoin:miter;stroke-miterlimit:4;stroke-dasharray:none;stroke-dashoffset:0;stroke-opacity:1"
     d="M 235.18717,86.301846 C 211.48831,72.97608 192.22626,61.938132 192.38261,61.773073 c 0.61498,-0.649239 88.0755,7.142307 88.94616,7.923897 0.74031,0.664575 -2.00074,39.59004 -2.85931,40.60488 -0.1064,0.12576 -19.58343,-10.674237 -43.28229,-24.000004 z"
     id="path4286"
     inkscape:connector-curvature="0" />
  <path
     style="opacity:1;fill:#ff6600;fill-opacity:1;stroke:none;stroke-width:0.99921262;stroke-linecap:square;stroke-linejoin:miter;stroke-miterlimit:4;stroke-dasharray:none;stroke-dashoffset:0;stroke-opacity:1"
     d="m 291.88186,313.90651 c -0.0263,-1.20717 18.20961,-54.70547 18.92059,-55.50697 0.61582,-0.69424 54.59016,6.30272 55.40078,7.18187 0.39522,0.42864 -71.04939,47.94874 -73.40663,48.8251 -0.49313,0.18334 -0.90476,-0.0417 -0.91474,-0.5 z"
     id="path4288"
     inkscape:connector-curvature="0" />
  <path
     style="opacity:1;fill:#ff6600;fill-opacity:1;stroke:none;stroke-width:0.99921262;stroke-linecap:square;stroke-linejoin:miter;stroke-miterlimit:4;stroke-dasharray:none;stroke-dashoffset:0;stroke-opacity:1"
     d="m 305.26024,232.07318 -5.10095,-20.5 9.70912,0 c 5.34001,0 19.34417,-0.28838 31.12035,-0.64085 L 362.4,210.29148 336.94598,231.43233 c -13.99972,11.62747 -25.70845,21.14085 -26.01941,21.14085 -0.31096,0 -2.86081,-9.225 -5.66633,-20.5 z"
     id="path4290"
     inkscape:connector-curvature="0" />
  <path
     style="opacity:1;fill:#c87137;fill-opacity:1;stroke:none;stroke-width:0.99921262;stroke-linecap:square;stroke-linejoin:miter;stroke-miterlimit:4;stroke-dasharray:none;stroke-dashoffset:0;stroke-opacity:1"
     d="m 244.93357,291.99306 c -22.25653,-13.43094 -40.03153,-24.43315 -39.5,-24.44937 0.53154,-0.0162 23.68965,-2.2305 51.46248,-4.92061 27.77283,-2.69012 50.52756,-4.81435 50.56607,-4.72051 0.44121,1.07526 -20.15698,58.64911 -20.96192,58.59049 -0.60511,-0.0441 -19.31009,-11.06907 -41.56663,-24.5 z"
     id="path4292"
     inkscape:connector-curvature="0" />
  <path
     style="opacity:1;fill:#c87137;fill-opacity:1;stroke:none;stroke-width:0.99921262;stroke-linecap:square;stroke-linejoin:miter;stroke-miterlimit:4;stroke-dasharray:none;stroke-dashoffset:0;stroke-opacity:1"
     d="m 265.0812,224.80533 c -22.17535,-14.67745 -39.87307,-26.83486 -39.32827,-27.01646 1.75878,-0.58626 69.60867,12.98544 70.76263,14.15432 0.86079,0.87193 10.38444,36.74133 10.38444,39.11145 0,0.2852 -0.3375,0.50019 -0.75,0.47776 -0.4125,-0.0224 -18.89346,-12.04961 -41.0688,-26.72707 z"
     id="path4294"
     inkscape:connector-curvature="0" />
  <path
     style="opacity:1;fill:#c87137;fill-opacity:1;stroke:none;stroke-width:0.99921262;stroke-linecap:square;stroke-linejoin:miter;stroke-miterlimit:4;stroke-dasharray:none;stroke-dashoffset:0;stroke-opacity:1"
     d="m 206.5622,161.46096 c -5.35575,-16.58007 -9.60726,-30.27606 -9.44778,-30.43553 0.39427,-0.39427 82.0904,30.53705 83.04089,31.44047 0.53525,0.50874 -53.79042,25.34895 -63.14748,28.87396 -0.38934,0.14667 -5.08987,-13.29884 -10.44563,-29.8789 z"
     id="path4296"
     inkscape:connector-curvature="0" />
  <path
     style="opacity:1;fill:#c87137;fill-opacity:1;stroke:none;stroke-width:0.99921262;stroke-linecap:square;stroke-linejoin:miter;stroke-miterlimit:4;stroke-dasharray:none;stroke-dashoffset:0;stroke-opacity:1"
     d="m 281.99169,106.40651 c 0.0504,-2.38333 0.83793,-11.590977 1.75,-20.461434 L 285.4,69.816972 l 28,8.390035 c 15.4,4.61452 28.37993,8.511311 28.8443,8.659536 0.63584,0.202962 -29.93828,12.305477 -59.46813,23.539967 -0.4819,0.18334 -0.83491,-1.61666 -0.78448,-4 z"
     id="path4298"
     inkscape:connector-curvature="0" />
  <path
     style="opacity:1;fill:#ffcc00;fill-opacity:1;stroke:none;stroke-width:0.99921262;stroke-linecap:square;stroke-linejoin:miter;stroke-miterlimit:4;stroke-dasharray:none;stroke-dashoffset:0;stroke-opacity:1"
     d="m 333.9,321.04142 c -18.975,-1.25222 -35.92329,-2.43235 -37.66287,-2.6225 -2.84213,-0.31068 0.73639,-2.91925 35.28863,-25.72377 21.14833,-13.95792 38.60376,-25.20792 38.78986,-25 0.30045,0.33569 6.63541,53.25802 6.59899,55.12803 -0.0193,0.99161 -2.62527,0.88366 -43.01461,-1.78176 z"
     id="path4300"
     inkscape:connector-curvature="0" />
  <path
     style="opacity:1;fill:#ffcc00;fill-opacity:1;stroke:none;stroke-width:0.99921262;stroke-linecap:square;stroke-linejoin:miter;stroke-miterlimit:4;stroke-dasharray:none;stroke-dashoffset:0;stroke-opacity:1"
     d="m 341.9,259.02169 c -12.925,-1.82727 -24.625,-3.46321 -26,-3.63541 -2.11759,-0.26521 1.39518,-3.55619 22.96485,-21.51492 14.00566,-11.661 25.60675,-21.05991 25.7802,-20.88646 0.27587,0.27587 5.25495,46.4332 5.25495,48.71474 0,1.21368 -1.46201,1.07386 -28,-2.67795 z"
     id="path4302"
     inkscape:connector-curvature="0" />
  <path
     style="opacity:1;fill:#ffcc00;fill-opacity:1;stroke:none;stroke-width:0.99921262;stroke-linecap:square;stroke-linejoin:miter;stroke-miterlimit:4;stroke-dasharray:none;stroke-dashoffset:0;stroke-opacity:1"
     d="M 394.20797,279.30409 375.17706,265.035 411.5663,255.47078 c 20.01408,-5.26032 36.26424,-9.22133 36.11147,-8.80225 -0.55387,1.51937 -33.29337,46.84469 -33.85833,46.87426 -0.31931,0.0167 -9.14447,-6.3907 -19.61147,-14.2387 z"
     id="path4304"
     inkscape:connector-curvature="0" />
  <path
     style="opacity:1;fill:#ffcc00;fill-opacity:1;stroke:none;stroke-width:0.99921262;stroke-linecap:square;stroke-linejoin:miter;stroke-miterlimit:4;stroke-dasharray:none;stroke-dashoffset:0;stroke-opacity:1"
     d="m 294.24682,187.32318 c -2.77153,-11.6875 -4.95057,-21.37031 -4.8423,-21.51735 0.10827,-0.14705 15.97429,9.12191 35.25783,20.59769 l 35.06097,20.86504 -15.07065,0.65231 c -8.28886,0.35877 -21.88727,0.65231 -30.21867,0.65231 l -15.14802,0 -5.03916,-21.25 z"
     id="path4306"
     inkscape:connector-curvature="0" />
  <path
     style="opacity:1;fill:#ffcc00;fill-opacity:1;stroke:none;stroke-width:0.99921262;stroke-linecap:square;stroke-linejoin:miter;stroke-miterlimit:4;stroke-dasharray:none;stroke-dashoffset:0;stroke-opacity:1"
     d="m 288.4738,159.42605 c -1.19004,-5.42702 -6.56387,-42.19613 -6.2176,-42.5424 0.20768,-0.20769 14.275,7.96224 31.2607,18.15539 16.98571,10.19316 30.33169,18.53326 29.65775,18.53358 -1.26354,5.8e-4 -45.27001,6.57951 -50.97978,7.62143 -2.77806,0.50694 -3.27387,0.27137 -3.72107,-1.768 z"
     id="path4308"
     inkscape:connector-curvature="0" />
  <path
     style="opacity:1;fill:#ffcc00;fill-opacity:1;stroke:none;stroke-width:0.99921262;stroke-linecap:square;stroke-linejoin:miter;stroke-miterlimit:4;stroke-dasharray:none;stroke-dashoffset:0;stroke-opacity:1"
     d="m 366.40055,205.40634 c -1.90924,-5.08548 -15.18807,-47.39975 -14.95798,-47.66504 0.15832,-0.18253 12.50744,5.66747 27.4425,13 l 27.15466,13.33188 -18.75843,11 c -21.88453,12.83316 -20.2465,12.02256 -20.88075,10.33316 z"
     id="path4310"
     inkscape:connector-curvature="0" />
  <path
     style="opacity:1;fill:#ffcc00;fill-opacity:1;stroke:none;stroke-width:0.99921262;stroke-linecap:square;stroke-linejoin:miter;stroke-miterlimit:4;stroke-dasharray:none;stroke-dashoffset:0;stroke-opacity:1"
     d="m 349.49971,119.46128 c -0.39008,-16.01155 -0.55251,-29.268638 -0.36095,-29.460198 0.54671,-0.546701 39.77303,21.996278 39.5026,22.701748 -0.3066,0.79984 -37.4887,35.87035 -38.0301,35.87035 -0.22127,0 -0.72147,-13.10036 -1.11155,-29.1119 z"
     id="path4312"
     inkscape:connector-curvature="0" />
  <path
     style="opacity:1;fill:#ffcc00;fill-opacity:1;stroke:none;stroke-width:0.99921262;stroke-linecap:square;stroke-linejoin:miter;stroke-miterlimit:4;stroke-dasharray:none;stroke-dashoffset:0;stroke-opacity:1"
     d="m 402.95978,148.57806 c -4.0813,-18.68759 -7.22688,-34.1642 -6.99017,-34.39247 0.42205,-0.407 59.90836,10.9999 60.4305,11.58795 0.5391,0.60715 -14.04347,51.73986 -15.0047,52.61288 -0.54748,0.49724 -7.07041,1.45535 -14.49541,2.12914 -7.425,0.67379 -14.17942,1.40842 -15.00983,1.63251 -1.22562,0.33074 -2.90666,-5.98843 -8.93039,-33.57001 z"
     id="path4314"
     inkscape:connector-curvature="0" />
  <path
     style="opacity:1;fill:#ffcc00;fill-opacity:1;stroke:none;stroke-width:0.99921262;stroke-linecap:square;stroke-linejoin:miter;stroke-miterlimit:4;stroke-dasharray:none;stroke-dashoffset:0;stroke-opacity:1"
     d="m 414.26247,226.68138 c -25.6036,-10.07128 -36.29001,-14.70185 -34.40866,-14.90972 2.80856,-0.31034 87.16325,3.58316 87.61955,4.04418 0.24404,0.24657 -14.8011,24.38047 -15.65777,25.11662 -0.22858,0.19642 -17.12748,-6.21657 -37.55312,-14.25108 z"
     id="path4316"
     inkscape:connector-curvature="0" />
  <path
     style="opacity:1;fill:#ffcc00;fill-opacity:1;stroke:none;stroke-width:0.99921262;stroke-linecap:square;stroke-linejoin:miter;stroke-miterlimit:4;stroke-dasharray:none;stroke-dashoffset:0;stroke-opacity:1"
     d="m 456.50678,287.4141 c -0.53521,-2.62678 -2.58755,-39.19348 -2.22038,-39.56065 0.12937,-0.12937 7.83135,7.40865 17.11551,16.75115 10.05238,10.11556 16.49962,17.33486 15.93919,17.8479 -0.51761,0.47384 -7.0161,2.10355 -14.4411,3.62158 -7.425,1.51802 -14.04366,2.96725 -14.70813,3.22049 -0.66858,0.25482 -1.42114,-0.58501 -1.68509,-1.88047 z"
     id="path4318"
     inkscape:connector-curvature="0" />
  <path
     style="opacity:1;fill:#abc837;fill-opacity:1;stroke:none;stroke-width:0.99921262;stroke-linecap:square;stroke-linejoin:miter;stroke-miterlimit:4;stroke-dasharray:none;stroke-dashoffset:0;stroke-opacity:1"
     d="m 328.9,185.40705 c -18.425,-10.97008 -34.07015,-20.28013 -34.76699,-20.689 -0.69685,-0.40886 10.99977,-2.59961 25.99248,-4.86832 14.99271,-2.26871 27.28616,-4.04654 27.31877,-3.95074 3.468,10.18619 15.52208,48.93302 15.28951,49.14682 C 362.5502,205.21458 347.325,196.37714 328.9,185.40705 Z"
     id="path4320"
     inkscape:connector-curvature="0" />
  <path
     style="opacity:1;fill:#abc837;fill-opacity:1;stroke:none;stroke-width:0.99921262;stroke-linecap:square;stroke-linejoin:miter;stroke-miterlimit:4;stroke-dasharray:none;stroke-dashoffset:0;stroke-opacity:1"
     d="m 377.9,166.91061 -27.5,-13.51525 10.5,-10.00004 c 19.20343,-18.28905 31.04096,-29.11496 31.39969,-28.71631 0.19509,0.21679 3.35484,14.11917 7.02167,30.89417 3.66683,16.775 6.92088,31.5125 7.23121,32.75 0.31034,1.2375 0.17796,2.21685 -0.29416,2.17634 C 405.78628,180.45901 393.025,174.344 377.9,166.91061 Z"
     id="path4322"
     inkscape:connector-curvature="0" />
  <path
     style="opacity:1;fill:#abc837;fill-opacity:1;stroke:none;stroke-width:0.99921262;stroke-linecap:square;stroke-linejoin:miter;stroke-miterlimit:4;stroke-dasharray:none;stroke-dashoffset:0;stroke-opacity:1"
     d="m 372.9,262.12523 c 0,-0.36407 -1.14665,-11.71557 -2.5481,-25.22556 -1.40146,-13.50999 -2.41396,-24.69558 -2.25,-24.85687 0.31155,-0.30648 77.61127,30.01022 78.31654,30.71548 0.22217,0.22217 -15.6661,4.61672 -35.30725,9.76566 -19.64115,5.14894 -36.27369,9.56455 -36.96119,9.81246 -0.6875,0.24792 -1.25,0.15289 -1.25,-0.21117 z"
     id="path4324"
     inkscape:connector-curvature="0" />
  <path
     style="opacity:1;fill:#abc837;fill-opacity:1;stroke:none;stroke-width:0.99921262;stroke-linecap:square;stroke-linejoin:miter;stroke-miterlimit:4;stroke-dasharray:none;stroke-dashoffset:0;stroke-opacity:1"
     d="m 379.55341,318.32318 c -1.21096,-6.9146 -5.77896,-48.95779 -5.36432,-49.37242 0.66867,-0.66868 36.85269,26.711 36.51038,27.62662 -0.31309,0.83745 -29.47875,24.9958 -30.17668,24.9958 -0.22011,0 -0.65634,-1.4625 -0.96938,-3.25 z"
     id="path4326"
     inkscape:connector-curvature="0" />
  <path
     style="opacity:1;fill:#abc837;fill-opacity:1;stroke:none;stroke-width:0.99921262;stroke-linecap:square;stroke-linejoin:miter;stroke-miterlimit:4;stroke-dasharray:none;stroke-dashoffset:0;stroke-opacity:1"
     d="m 418.05213,293.76231 c 0.84878,-2.19132 32.25099,-45.11935 32.68655,-44.68378 0.76372,0.76372 2.95412,39.92185 2.27122,40.60293 -0.33544,0.33455 -7.3599,1.36862 -15.6099,2.29793 -8.25,0.9293 -16.05654,1.9127 -17.34787,2.18533 -1.29133,0.27263 -2.19133,0.0915 -2,-0.40241 z"
     id="path4328"
     inkscape:connector-curvature="0" />
  <path
     style="opacity:1;fill:#66ff00;fill-opacity:1;stroke:none;stroke-width:0.99921262;stroke-linecap:square;stroke-linejoin:miter;stroke-miterlimit:4;stroke-dasharray:none;stroke-dashoffset:0;stroke-opacity:1"
     d="m 490.08024,315.59561 c -16.67587,-12.55574 -30.51247,-23.02133 -30.74802,-23.25687 -0.23554,-0.23554 6.7815,-1.91851 15.59342,-3.73992 8.81192,-1.82141 16.19085,-3.13481 16.39763,-2.91865 0.20677,0.21616 6.10251,10.29301 13.10164,22.39301 6.99913,12.1 13.83706,23.9125 15.19541,26.25 1.35835,2.3375 2.08946,4.21649 1.6247,4.17552 -0.46476,-0.041 -14.48891,-10.34735 -31.16478,-22.90309 z"
     id="path4330"
     inkscape:connector-curvature="0" />
  <path
     style="opacity:1;fill:#66ff00;fill-opacity:1;stroke:none;stroke-width:0.99921262;stroke-linecap:square;stroke-linejoin:miter;stroke-miterlimit:4;stroke-dasharray:none;stroke-dashoffset:0;stroke-opacity:1"
     d="m 473.44372,262.61695 c -11.75623,-11.76985 -17.4373,-18.11708 -16.48958,-18.42313 1.74917,-0.56485 76.61292,-9.6385 79.43771,-9.62803 1.38516,0.005 -5.00859,7.01279 -20.99185,23.00739 -12.64103,12.65 -23.21705,23 -23.50227,23 -0.28521,0 -8.58952,-8.0803 -18.45401,-17.95623 z"
     id="path4332"
     inkscape:connector-curvature="0" />
  <path
     style="opacity:1;fill:#66ff00;fill-opacity:1;stroke:none;stroke-width:0.99921262;stroke-linecap:square;stroke-linejoin:miter;stroke-miterlimit:4;stroke-dasharray:none;stroke-dashoffset:0;stroke-opacity:1"
     d="m 456.9,239.05819 c 0,-0.22145 3.23609,-5.48367 7.19131,-11.69382 3.95523,-6.21016 7.26078,-11.40924 7.34567,-11.55352 0.32727,-0.55624 53.79863,-9.31835 55.14321,-9.03608 0.78178,0.16413 -8.38895,4.76463 -20.37939,10.22335 -11.99044,5.45872 -27.9883,12.74594 -35.5508,16.19382 -7.5625,3.44789 -13.75,6.0877 -13.75,5.86625 z"
     id="path4334"
     inkscape:connector-curvature="0" />
  <path
     style="opacity:1;fill:#66ff00;fill-opacity:1;stroke:none;stroke-width:0.99921262;stroke-linecap:square;stroke-linejoin:miter;stroke-miterlimit:4;stroke-dasharray:none;stroke-dashoffset:0;stroke-opacity:1"
     d="m 413.9,210.17036 -42.5,-2.11672 18.98516,-11.3297 18.98517,-11.3297 27.01483,13.52543 c 21.29415,10.66127 26.27368,13.5087 23.51484,13.44643 -1.925,-0.0435 -22.625,-1.03154 -46,-2.19574 z"
     id="path4336"
     inkscape:connector-curvature="0" />
  <path
     style="opacity:1;fill:#66ff00;fill-opacity:1;stroke:none;stroke-width:0.99921262;stroke-linecap:square;stroke-linejoin:miter;stroke-miterlimit:4;stroke-dasharray:none;stroke-dashoffset:0;stroke-opacity:1"
     d="m 458.4,196.88573 c -6.05,-7.47976 -11.31723,-14.1338 -11.70495,-14.78676 -0.49367,-0.8314 4.54214,-2.77059 16.80276,-6.47041 9.62923,-2.90576 17.75268,-5.03823 18.05209,-4.73881 0.61333,0.61332 -10.87137,39.67986 -11.6499,39.62851 -0.275,-0.0181 -5.45,-6.15278 -11.5,-13.63253 z"
     id="path4338"
     inkscape:connector-curvature="0" />
  <path
     style="opacity:1;fill:#66ff00;fill-opacity:1;stroke:none;stroke-width:0.99921262;stroke-linecap:square;stroke-linejoin:miter;stroke-miterlimit:4;stroke-dasharray:none;stroke-dashoffset:0;stroke-opacity:1"
     d="m 498.51061,177.34278 c -5.90051,-5.07673 -10.36423,-9.36191 -9.9194,-9.52263 35.76744,-12.92326 49.88039,-17.88871 50.17065,-17.65186 0.50626,0.41311 -28.01008,36.40489 -28.84365,36.40489 -0.37368,0 -5.5071,-4.15368 -11.4076,-9.2304 z"
     id="path4340"
     inkscape:connector-curvature="0" />
  <path
     style="opacity:1;fill:#37c837;fill-opacity:1;stroke:none;stroke-width:0.99921262;stroke-linecap:square;stroke-linejoin:miter;stroke-miterlimit:4;stroke-dasharray:none;stroke-dashoffset:0;stroke-opacity:1"
     d="m 445.9,176.59529 c 0,-1.13912 12.8495,-47.20495 13.29016,-47.6456 0.1629,-0.1629 5.37331,8.27669 11.57869,18.75464 6.20538,10.47795 11.13596,19.14792 10.95683,19.2666 -0.54101,0.35844 -34.57273,10.60225 -35.22254,10.60225 -0.33173,0 -0.60314,-0.44005 -0.60314,-0.97789 z"
     id="path4342"
     inkscape:connector-curvature="0" />
  <path
     style="opacity:1;fill:#37c837;fill-opacity:1;stroke:none;stroke-width:0.99921262;stroke-linecap:square;stroke-linejoin:miter;stroke-miterlimit:4;stroke-dasharray:none;stroke-dashoffset:0;stroke-opacity:1"
     d="m 438.4,196.57318 c -13.2,-6.51046 -23.325,-11.88341 -22.5,-11.93988 0.825,-0.0565 7.125,-0.7359 14,-1.50985 6.875,-0.77395 12.7574,-1.10187 13.07199,-0.72872 0.31459,0.37315 4.55382,5.62845 9.42049,11.67845 4.86668,6.05 9.51652,11.7875 10.333,12.75 0.81647,0.9625 1.07725,1.71337 0.57951,1.6686 C 462.80724,208.44701 451.6,203.08364 438.4,196.57318 Z"
     id="path4344"
     inkscape:connector-curvature="0" />
  <path
     style="opacity:1;fill:#37c837;fill-opacity:1;stroke:none;stroke-width:0.99921262;stroke-linecap:square;stroke-linejoin:miter;stroke-miterlimit:4;stroke-dasharray:none;stroke-dashoffset:0;stroke-opacity:1"
     d="m 473.86806,209.76666 c -0.0816,-1.77135 11.60909,-39.14589 12.17847,-38.93404 0.35559,0.13231 5.37931,4.34828 11.16381,9.36883 l 10.51728,9.12826 -16.91381,10.56521 c -9.30259,5.81087 -16.92818,10.25315 -16.94575,9.87174 z"
     id="path4346"
     inkscape:connector-curvature="0" />
  <path
     style="opacity:1;fill:#37c837;fill-opacity:1;stroke:none;stroke-width:0.99921262;stroke-linecap:square;stroke-linejoin:miter;stroke-miterlimit:4;stroke-dasharray:none;stroke-dashoffset:0;stroke-opacity:1"
     d="m 520.36461,257.60862 c 8.21679,-8.2305 15.08207,-14.8221 15.25618,-14.64799 0.17411,0.17411 -1.73952,4.1816 -4.25252,8.90554 -4.52806,8.51187 -4.65707,8.64335 -14.37277,14.64799 -5.39204,3.33246 -10.20123,6.05902 -10.6871,6.05902 -0.48587,0 5.83943,-6.73405 14.05621,-14.96456 z"
     id="path4348"
     inkscape:connector-curvature="0" />
  <path
     style="opacity:1;fill:#00ff66;fill-opacity:1;stroke:none;stroke-width:0.99921262;stroke-linecap:square;stroke-linejoin:miter;stroke-miterlimit:4;stroke-dasharray:none;stroke-dashoffset:0;stroke-opacity:1"
     d="m 462.9,240.25494 c 0.275,-0.27314 17.825,-8.4013 39,-18.06258 l 38.5,-17.56596 0.85302,12.53704 c 0.46916,6.89537 0.64142,12.74864 0.38279,13.00726 -0.25862,0.25862 -16.61748,2.47548 -36.35301,4.92636 -19.73554,2.45088 -37.4578,4.72577 -39.3828,5.05532 -1.925,0.32954 -3.275,0.37569 -3,0.10256 z"
     id="path4350"
     inkscape:connector-curvature="0" />
  <path
     style="opacity:1;fill:#00ff66;fill-opacity:1;stroke:none;stroke-width:0.99921262;stroke-linecap:square;stroke-linejoin:miter;stroke-miterlimit:4;stroke-dasharray:none;stroke-dashoffset:0;stroke-opacity:1"
     d="m 527.36154,194.7967 c -7.67885,-3.04816 -14.11174,-5.65813 -14.29532,-5.79993 -0.40965,-0.31642 30.13256,-39.31719 30.8386,-39.37923 0.27765,-0.0244 2.9199,4.56814 5.87166,10.20564 l 5.36684,10.25 -6.91012,15.13282 -6.91012,15.13282 -13.96154,-5.54212 z"
     id="path4352"
     inkscape:connector-curvature="0" />
  <path
     style="opacity:1;fill:#00ff66;fill-opacity:1;stroke:none;stroke-width:0.99921262;stroke-linecap:square;stroke-linejoin:miter;stroke-miterlimit:4;stroke-dasharray:none;stroke-dashoffset:0;stroke-opacity:1"
     d=""
     id="path4354"
     inkscape:connector-curvature="0" />
  <path
     style="opacity:1;fill:#00ff66;fill-opacity:1;stroke:none;stroke-width:0.99921262;stroke-linecap:square;stroke-linejoin:miter;stroke-miterlimit:4;stroke-dasharray:none;stroke-dashoffset:0;stroke-opacity:1"
     d="m 557.12649,146.2788 c -9.31635,-0.89063 -10.21885,-1.15434 -9.68684,-2.83056 1.04374,-3.28853 15.52645,-33.14318 15.8887,-32.75296 0.6263,0.67465 14.57165,35.15643 14.57165,36.03038 0,1.02299 -6.96563,0.87315 -20.77351,-0.44686 z"
     id="path4356"
     inkscape:connector-curvature="0" />
  <path
     style="opacity:1;fill:#0088aa;fill-opacity:1;stroke:none;stroke-width:0.99921262;stroke-linecap:square;stroke-linejoin:miter;stroke-miterlimit:4;stroke-dasharray:none;stroke-dashoffset:0;stroke-opacity:1"
     d="m 478.9,211.25488 c 0,-0.63769 30.60272,-19.6817 31.62746,-19.6817 2.05972,0 24.32683,9.43331 23.64031,10.01505 -0.42228,0.35782 -12.24277,2.55365 -26.26777,4.87961 -14.025,2.32597 -26.2875,4.45653 -27.25,4.73457 -0.9625,0.27805 -1.75,0.30166 -1.75,0.0525 z"
     id="path4358"
     inkscape:connector-curvature="0" />
  <path
     style="opacity:1;fill:#0088aa;fill-opacity:1;stroke:none;stroke-width:0.99921262;stroke-linecap:square;stroke-linejoin:miter;stroke-miterlimit:4;stroke-dasharray:none;stroke-dashoffset:0;stroke-opacity:1"
     d="m 568.18226,170.9094 -10.21774,-2.46934 -5.13505,-9.49732 c -2.82427,-5.22352 -4.87058,-9.76178 -4.54734,-10.08502 0.59709,-0.5971 26.66329,1.46262 29.86787,2.36012 1.53006,0.42852 1.75,1.86409 1.75,11.42273 0,6.01293 -0.3375,10.88886 -0.75,10.83539 -0.4125,-0.0535 -5.34798,-1.20842 -10.96774,-2.56656 z"
     id="path4360"
     inkscape:connector-curvature="0" />
  <path
     style="opacity:1;fill:#0088aa;fill-opacity:1;stroke:none;stroke-width:0.99921262;stroke-linecap:square;stroke-linejoin:miter;stroke-miterlimit:4;stroke-dasharray:none;stroke-dashoffset:0;stroke-opacity:1"
     d="m 575.11754,104.64302 -7.28246,-0.56984 7.84757,-7.792733 7.84757,-7.792733 6.69248,8.542733 6.69248,8.542733 -7.25759,-0.18016 c -3.99167,-0.0991 -10.5347,-0.43659 -14.54005,-0.75 z"
     id="path4362"
     inkscape:connector-curvature="0" />
  <path
     style="opacity:1;fill:#212178;fill-opacity:1;stroke:none;stroke-width:0.99921262;stroke-linecap:square;stroke-linejoin:miter;stroke-miterlimit:4;stroke-dasharray:none;stroke-dashoffset:0;stroke-opacity:1"
     d="m 581.58694,114.04598 -12,-6.44199 4.5,-0.0102 c 2.475,-0.006 8.83621,0.27694 14.13603,0.62793 l 9.63602,0.63816 -1.97783,5.85667 c -1.0878,3.22116 -2.04901,5.83749 -2.13602,5.81406 -0.087,-0.0234 -5.5582,-2.9415 -12.1582,-6.4846 z"
     id="path4364"
     inkscape:connector-curvature="0" />
  <path
     style="opacity:1;fill:#212178;fill-opacity:1;stroke:none;stroke-width:0.99921262;stroke-linecap:square;stroke-linejoin:miter;stroke-miterlimit:4;stroke-dasharray:none;stroke-dashoffset:0;stroke-opacity:1"
     d="M 594.52499,97.669601 C 593.39091,96.241569 591.2,93.38568 589.6563,91.32318 l -2.80673,-3.75 4.54673,0 4.54673,0 0.67849,5.430413 c 0.86815,6.948498 0.45187,7.874967 -2.09653,4.666008 z"
     id="path4366"
     inkscape:connector-curvature="0" />
  <path
     style="opacity:1;fill:#53536c;fill-opacity:1;stroke:none;stroke-width:0.99921262;stroke-linecap:square;stroke-linejoin:miter;stroke-miterlimit:4;stroke-dasharray:none;stroke-dashoffset:0;stroke-opacity:1"
     d="m 598.09252,118.84886 c 0.003,-0.42662 0.49818,-2.54995 1.10025,-4.71851 l 1.09467,-3.94283 1.87752,2.44283 c 2.4988,3.25118 2.42333,3.63222 -1.07802,5.44283 -1.65,0.85325 -2.99749,1.2023 -2.99442,0.77568 z"
     id="path4368"
     inkscape:connector-curvature="0" />
</svg>
